<svg xmlns="http://www.w3.org/2000/svg" width="79.501" height="24.675" viewBox="0 0 79.501 24.675">
  <g id="Grupo_1108012" data-name="Grupo 1108012" transform="translate(-738.586 -893.59)">
    <path id="Trazado_873241" data-name="Trazado 873241" d="M-12510.117-12421.192l-1.414-1.415-10.925-10.925,2.828-2.828,9.511,9.51,9.508-9.51,2.828,2.828Z" transform="translate(13196.391 -11604.191) rotate(-90)" fill="#ff7630"/>
    <path id="Trazado_873242" data-name="Trazado 873242" d="M-12510.117-12421.192l-1.414-1.415-10.925-10.925,2.828-2.828,9.511,9.51,9.508-9.51,2.828,2.828Z" transform="translate(13174.946 -11604.191) rotate(-90)" fill="#ff7630"/>
    <path id="Trazado_873243" data-name="Trazado 873243" d="M-12510.117-12421.192l-1.414-1.415-10.925-10.925,2.828-2.828,9.511,9.51,9.508-9.51,2.828,2.828Z" transform="translate(13217.835 -11604.191) rotate(-90)" fill="#ff7630"/>
    <path id="Trazado_873244" data-name="Trazado 873244" d="M-12510.117-12421.192l-1.414-1.415-10.925-10.925,2.828-2.828,9.511,9.51,9.508-9.51,2.828,2.828Z" transform="translate(13239.279 -11604.191) rotate(-90)" fill="#ff7630"/>
  </g>
</svg>
