<svg xmlns="http://www.w3.org/2000/svg" xmlns:xlink="http://www.w3.org/1999/xlink" width="93.522" height="120.694" viewBox="0 0 93.522 120.694">
  <defs>
    <clipPath id="clip-path">
      <rect id="Rect치ngulo_402994" data-name="Rect치ngulo 402994" width="93.522" height="120.694" fill="none"/>
    </clipPath>
  </defs>
  <g id="Grupo_1108483" data-name="Grupo 1108483" transform="translate(0 0.001)">
    <rect id="Rect치ngulo_402991" data-name="Rect치ngulo 402991" width="12.275" height="2.373" transform="translate(29.646 13.184) rotate(-79.186)" fill="#313133"/>
    <path id="Trazado_896850" data-name="Trazado 896850" d="M776.635,20.989l2.776.53-2.388,12.5-2.776-.53Zm2.246.891L777,21.52l-2.218,11.611,1.885.36Z" transform="translate(-744.86 -20.127)" fill="#313133"/>
    <g id="Grupo_1108482" data-name="Grupo 1108482" transform="translate(0 -0.001)">
      <g id="Grupo_1108481" data-name="Grupo 1108481" transform="translate(0 0)" clip-path="url(#clip-path)">
        <path id="Trazado_896851" data-name="Trazado 896851" d="M802.675,46.223h0a.783.783,0,0,0,.955-.641l1.838-10.208a.876.876,0,0,0-.64-1,.783.783,0,0,0-.955.641l-1.838,10.208a.876.876,0,0,0,.64,1" transform="translate(-771.45 -32.958)" fill="#313133"/>
        <path id="Trazado_896852" data-name="Trazado 896852" d="M796.532,39.877l1.838-10.209a1.029,1.029,0,0,1,.423-.67.963.963,0,0,1,.784-.146,1.1,1.1,0,0,1,.8,1.264l-1.838,10.208a1.029,1.029,0,0,1-.423.67.963.963,0,0,1-.784.146,1.011,1.011,0,0,1-.3-.125,1.121,1.121,0,0,1-.5-1.139m2.953-10.59a.566.566,0,0,0-.461.084.584.584,0,0,0-.241.381l-1.838,10.208a.655.655,0,0,0,.48.745.566.566,0,0,0,.461-.084.585.585,0,0,0,.241-.381l1.838-10.208a.659.659,0,0,0-.3-.67.611.611,0,0,0-.18-.076" transform="translate(-766.153 -27.659)" fill="#313133"/>
        <path id="Trazado_896853" data-name="Trazado 896853" d="M774.092,19.457a1.911,1.911,0,0,0,.563.235,1.828,1.828,0,0,0,1.468-.277,1.969,1.969,0,0,0,.81-1.283l1.838-10.208a2.032,2.032,0,0,0-1.477-2.362,1.828,1.828,0,0,0-1.468.277,1.969,1.969,0,0,0-.81,1.283l-1.838,10.208a2.067,2.067,0,0,0,.914,2.126" transform="translate(-743.673 -5.289)" fill="#313133"/>
        <path id="Trazado_896854" data-name="Trazado 896854" d="M767.687,12,769.525,1.79a2.191,2.191,0,0,1,.9-1.428,2.028,2.028,0,0,1,1.63-.308,2.254,2.254,0,0,1,1.637,2.621l-1.838,10.208a2.191,2.191,0,0,1-.9,1.428,2.028,2.028,0,0,1-1.63.308,2.111,2.111,0,0,1-.623-.261A2.306,2.306,0,0,1,767.687,12M771.963.49a1.626,1.626,0,0,0-1.307.246,1.747,1.747,0,0,0-.719,1.138L768.1,12.083a1.848,1.848,0,0,0,.813,1.892,1.708,1.708,0,0,0,.5.21,1.626,1.626,0,0,0,1.307-.246,1.747,1.747,0,0,0,.719-1.138L773.28,2.592A1.839,1.839,0,0,0,772.465.7a1.7,1.7,0,0,0-.5-.21" transform="translate(-738.388 0.001)" fill="#313133"/>
        <path id="Trazado_896871" data-name="Trazado 896871" d="M.3.061,2.536,0l-.3,11.2L0,11.265Z" transform="matrix(0.843, -0.538, 0.538, 0.843, 11.37, 7.71)" fill="#313133"/>
        <path id="Trazado_896855" data-name="Trazado 896855" d="M298.111,150.752l2.208-1.5,6.005,9.979-2.208,1.5Zm2.08-.88-1.5,1.016,5.553,9.227,1.5-1.016Z" transform="translate(-286.748 -143.219)" fill="#313133"/>
        <path id="Trazado_896856" data-name="Trazado 896856" d="M335.165,173.9h0a.968.968,0,0,0,.229-1.258l-4.833-8.032a.847.847,0,0,0-1.25-.256.968.968,0,0,0-.229,1.258l4.833,8.032a.847.847,0,0,0,1.25.256" transform="translate(-316.405 -157.545)" fill="#313133"/>
        <path id="Trazado_896857" data-name="Trazado 896857" d="M328.432,168.469l-4.833-8.032a1.2,1.2,0,0,1,.284-1.559,1.029,1.029,0,0,1,.839-.195,1.076,1.076,0,0,1,.711.512l4.834,8.032a1.2,1.2,0,0,1-.284,1.559h0a1.029,1.029,0,0,1-.839.195l-.041-.009a1.081,1.081,0,0,1-.67-.5m1.427.136-.122-.181a.736.736,0,0,0,.174-.956l-4.834-8.032a.662.662,0,0,0-.436-.314.631.631,0,0,0-.515.119.736.736,0,0,0-.174.956l4.834,8.032a.661.661,0,0,0,.436.314.631.631,0,0,0,.515-.119Z" transform="translate(-311.099 -152.244)" fill="#313133"/>
        <path id="Trazado_896858" data-name="Trazado 896858" d="M306.451,147.516l.071.016a1.9,1.9,0,0,0,1.526-.354h0a2.18,2.18,0,0,0,.516-2.835l-4.834-8.032a1.989,1.989,0,0,0-1.292-.931,1.9,1.9,0,0,0-1.526.354,2.181,2.181,0,0,0-.516,2.835l4.833,8.032a1.993,1.993,0,0,0,1.221.915" transform="translate(-288.647 -129.868)" fill="#313133"/>
        <path id="Trazado_896859" data-name="Trazado 896859" d="M299.749,141.431l-4.833-8.032a2.412,2.412,0,0,1,.57-3.136,2.1,2.1,0,0,1,1.688-.392,2.2,2.2,0,0,1,1.429,1.03l4.834,8.032a2.412,2.412,0,0,1-.57,3.136l-.018.013h0a2.1,2.1,0,0,1-1.669.378l-.078-.018a2.214,2.214,0,0,1-1.351-1.012m3.333-2.258-4.834-8.032a1.776,1.776,0,0,0-1.154-.832,1.694,1.694,0,0,0-1.363.316,1.949,1.949,0,0,0-.461,2.534l4.833,8.032a1.784,1.784,0,0,0,1.155.832,1.7,1.7,0,0,0,1.363-.316l.006,0a1.949,1.949,0,0,0,.455-2.529" transform="translate(-283.343 -124.578)" fill="#313133"/>
        <path id="Trazado_896872" data-name="Trazado 896872" d="M.189.039,2.511,0,2.321,10.635,0,10.674Z" transform="translate(0.833 24.945) rotate(-72.038)" fill="#313133"/>
        <path id="Trazado_896860" data-name="Trazado 896860" d="M17.413,553.4l.808-2.645,10.458,3.6L27.871,557Zm1.078-2.083-.549,1.8,9.658,3.322.549-1.8Z" transform="translate(-16.749 -528.479)" fill="#313133"/>
        <path id="Trazado_896861" data-name="Trazado 896861" d="M44.422,562.777h0a.917.917,0,0,0-.529-1.189l-8.436-2.9a.838.838,0,0,0-1.054.528.917.917,0,0,0,.529,1.189l8.436,2.9a.838.838,0,0,0,1.054-.528" transform="translate(-33.034 -536.047)" fill="#313133"/>
        <path id="Trazado_896862" data-name="Trazado 896862" d="M38.015,558.237l-8.436-2.9a1.088,1.088,0,0,1-.632-.59,1.193,1.193,0,0,1-.028-.893,1.047,1.047,0,0,1,1.314-.658l8.436,2.9a1.088,1.088,0,0,1,.632.59,1.193,1.193,0,0,1,.028.893,1.051,1.051,0,0,1-1.226.684c-.029-.007-.059-.016-.088-.026m-8.7-4.222a.711.711,0,0,0,.017.539.648.648,0,0,0,.382.356l8.436,2.9a.632.632,0,0,0,.794-.4.711.711,0,0,0-.017-.539.648.648,0,0,0-.382-.356l-8.436-2.9-.053-.016a.635.635,0,0,0-.74.413" transform="translate(-27.746 -530.767)" fill="#313133"/>
        <path id="Trazado_896863" data-name="Trazado 896863" d="M15.459,536.785a1.932,1.932,0,0,0,2.254-1.258h0a2.194,2.194,0,0,0-.051-1.642A2,2,0,0,0,16.5,532.8l-8.436-2.9a1.925,1.925,0,0,0-2.416,1.21A2.194,2.194,0,0,0,5.7,532.75a2,2,0,0,0,1.163,1.085l8.436,2.9c.054.018.108.034.162.048" transform="translate(-5.302 -508.37)" fill="#313133"/>
        <path id="Trazado_896864" data-name="Trazado 896864" d="M9.93,531.657l-8.436-2.9a2.215,2.215,0,0,1-1.288-1.2,2.43,2.43,0,0,1-.056-1.819,2.132,2.132,0,0,1,2.677-1.34l8.436,2.9a2.216,2.216,0,0,1,1.288,1.2,2.43,2.43,0,0,1,.056,1.819,2.149,2.149,0,0,1-2.5,1.393h0c-.06-.015-.12-.033-.179-.053M.541,525.9a1.958,1.958,0,0,0,.045,1.465,1.785,1.785,0,0,0,1.037.968l8.436,2.9c.048.016.1.031.145.043a1.731,1.731,0,0,0,2.011-1.122,1.957,1.957,0,0,0-.045-1.465,1.784,1.784,0,0,0-1.037-.968l-8.436-2.9q-.072-.025-.144-.042A1.725,1.725,0,0,0,.541,525.9" transform="translate(0 -503.077)" fill="#313133"/>
        <path id="Trazado_896865" data-name="Trazado 896865" d="M420.175,1734.145a29.844,29.844,0,0,1-2.305-7.606l.009.008a42.372,42.372,0,0,0,2.3,7.6" transform="translate(-401.942 -1656.709)" fill="#e20037"/>
        <path id="Trazado_896866" data-name="Trazado 896866" d="M437.3,600.967c0,23.371-17.825,42.325-39.837,42.388V655.6a1.011,1.011,0,0,1-1.6.877c-4.654-3.5-18.462-14.368-28.039-26.959a59.71,59.71,0,0,1-7.151-11.726,43.887,43.887,0,0,1-2.377-7.867,44.989,44.989,0,0,1-.9-8.961c0-23.411,17.886-42.389,39.95-42.389S437.3,577.556,437.3,600.967" transform="translate(-343.777 -535.986)" fill="#f69f07"/>
        <path id="Trazado_896867" data-name="Trazado 896867" d="M450.4,2034.442a42.8,42.8,0,0,1-7.151-11.726,59.706,59.706,0,0,0,7.151,11.726" transform="translate(-426.357 -1940.907)" fill="#f69f07"/>
        <path id="Trazado_896868" data-name="Trazado 896868" d="M156.173,568.365a3.441,3.441,0,0,1-2.074-.7c-5.2-3.907-18.29-14.317-27.6-26.555a60.373,60.373,0,0,1-7.238-11.887l-.032-.076a45.384,45.384,0,0,1-2.452-8.116,46.489,46.489,0,0,1-.923-9.236,45.736,45.736,0,0,1,3.238-17.013,43.8,43.8,0,0,1,8.827-13.892,41.007,41.007,0,0,1,13.092-9.365,39.132,39.132,0,0,1,32.068,0,41.006,41.006,0,0,1,13.092,9.365A43.8,43.8,0,0,1,195,494.778a46.316,46.316,0,0,1,.011,34,43.8,43.8,0,0,1-8.8,13.878,41.017,41.017,0,0,1-13.055,9.372,38.887,38.887,0,0,1-13.39,3.376v9.151a3.829,3.829,0,0,1-1.942,3.384,3.423,3.423,0,0,1-1.649.427M124.005,526.9a54.916,54.916,0,0,0,6.558,10.724c7.676,10.092,18.41,19.139,23.979,23.528V549.963l2.6-.007c19.778-.057,35.868-17.177,35.868-38.165,0-21.045-16.136-38.166-35.969-38.166s-35.97,17.121-35.97,38.166a40.62,40.62,0,0,0,.806,8.07,39.59,39.59,0,0,0,2.124,7.042" transform="translate(-111.438 -449.153)" fill="#313133"/>
        <path id="Trazado_896869" data-name="Trazado 896869" d="M211.775,1935.791a44.021,44.021,0,0,1-7.373-12.09l4.759-2.278a54.838,54.838,0,0,0,6.575,10.761Z" transform="translate(-196.611 -1843.711)" fill="#313133"/>
        <path id="Trazado_896870" data-name="Trazado 896870" d="M1104.574,936.977a12.084,12.084,0,0,1-.225,2.532,3.5,3.5,0,0,1-.8,1.651,3.218,3.218,0,0,1-1.5.9,8.47,8.47,0,0,1-2.351.275,8.657,8.657,0,0,1-2.369-.275,3.1,3.1,0,0,1-1.5-.9,3.588,3.588,0,0,1-.778-1.651,12.052,12.052,0,0,1-.225-2.532,12.541,12.541,0,0,1,.225-2.587,3.735,3.735,0,0,1,.778-1.688,3.043,3.043,0,0,1,1.5-.917,8.655,8.655,0,0,1,2.369-.275,8.467,8.467,0,0,1,2.351.275,3.154,3.154,0,0,1,1.5.917,3.644,3.644,0,0,1,.8,1.688,12.575,12.575,0,0,1,.225,2.587m-1.072-10.75a1.579,1.579,0,0,1-.208.66,1.317,1.317,0,0,1-.605.5,4.355,4.355,0,0,1-1.176.312,15.164,15.164,0,0,1-3.648,0,4.322,4.322,0,0,1-1.158-.312,1.311,1.311,0,0,1-.605-.5,1.562,1.562,0,0,1-.208-.66l-.9-33.315a1.686,1.686,0,0,1,.207-.844,1.527,1.527,0,0,1,.744-.605,5.184,5.184,0,0,1,1.452-.349,19.849,19.849,0,0,1,2.3-.11,16.684,16.684,0,0,1,2.282.128,5.57,5.57,0,0,1,1.435.367,1.693,1.693,0,0,1,.761.587,1.493,1.493,0,0,1,.225.826Z" transform="translate(-1053.091 -854.967)" fill="#313133"/>
      </g>
    </g>
  </g>
</svg>
