<svg xmlns="http://www.w3.org/2000/svg" width="85" height="85" viewBox="0 0 85 85">
  <g id="Grupo_1108677" data-name="Grupo 1108677" transform="translate(-285.051 -1489)">
    <rect id="Rectángulo_402942" data-name="Rectángulo 402942" width="85" height="85" transform="translate(285.051 1489)" fill="#ffcd80"/>
    <g id="reshot-icon-notebook-JKNMRB5YFC" transform="translate(272.894 1507.382)">
      <path id="Trazado_896690" data-name="Trazado 896690" d="M100.436,57.565h-35.5a2.151,2.151,0,0,1-2.151-2.151V10.235a2.151,2.151,0,0,1,2.151-2.151h35.5a2.151,2.151,0,0,1,2.151,2.151V55.414A2.151,2.151,0,0,1,100.436,57.565Z" transform="translate(-27.411 -7.277)" fill="#c1c1c1"/>
      <path id="Trazado_896691" data-name="Trazado 896691" d="M70.317,57.565H64.938a2.151,2.151,0,0,1-2.151-2.151V10.235a2.151,2.151,0,0,1,2.151-2.151h5.378Z" transform="translate(-27.411 -7.277)" fill="#999"/>
      <path id="Trazado_896692" data-name="Trazado 896692" d="M218.029,93.218H203.934a1.021,1.021,0,0,1-1.02-1.02v-7.64a1.021,1.021,0,0,1,1.02-1.02h14.094a1.021,1.021,0,0,1,1.02,1.02V92.2A1.02,1.02,0,0,1,218.029,93.218Z" transform="translate(-153.554 -75.201)" fill="#f9f9f9"/>
      <path id="Trazado_896693" data-name="Trazado 896693" d="M433.037,221.49H429.81a.538.538,0,0,1-.538-.538v-7.53a.538.538,0,0,1,.538-.538h3.227a.538.538,0,0,1,.538.538v7.53A.538.538,0,0,1,433.037,221.49Z" transform="translate(-357.323 -191.64)" fill="#fed76e"/>
      <path id="Trazado_896694" data-name="Trazado 896694" d="M452.443,221.489H450.83v-8.605h1.613a.538.538,0,0,1,.538.538v7.53A.538.538,0,0,1,452.443,221.489Z" transform="translate(-376.73 -191.64)" fill="#feaf50"/>
      <path id="Trazado_896695" data-name="Trazado 896695" d="M64.393,7.53H50.3a1.829,1.829,0,0,0-1.827,1.827V17A1.829,1.829,0,0,0,50.3,18.824H64.393A1.829,1.829,0,0,0,66.22,17V9.357A1.829,1.829,0,0,0,64.393,7.53ZM64.607,17a.214.214,0,0,1-.214.214H50.3A.214.214,0,0,1,50.086,17V9.357a.214.214,0,0,1,.214-.214H64.393a.214.214,0,0,1,.214.214V17h0Zm-1.613-5.433a.807.807,0,0,1-.807.807H52.506a.807.807,0,1,1,0-1.613h9.681A.807.807,0,0,1,62.994,11.563Zm0,3.227a.807.807,0,0,1-.807.807H52.506a.807.807,0,1,1,0-1.613h9.681A.807.807,0,0,1,62.994,14.791ZM75.9,20.465V2.958A2.962,2.962,0,0,0,72.944,0h-35.5a2.962,2.962,0,0,0-2.958,2.958V5.916H33.144a.807.807,0,1,0,0,1.613h1.345v3.765H33.144a.807.807,0,1,0,0,1.613h1.345v3.765H33.144a.807.807,0,1,0,0,1.613h1.345v3.765H33.144a.807.807,0,1,0,0,1.613h1.345v3.765H33.144a.807.807,0,1,0,0,1.613h1.345v3.765H33.144a.807.807,0,0,0,0,1.613h1.345v3.765H33.144a.807.807,0,1,0,0,1.613h1.345v3.765H33.144a.807.807,0,1,0,0,1.613h1.345v2.958a2.962,2.962,0,0,0,2.958,2.958h35.5A2.962,2.962,0,0,0,75.9,48.136V30.629a1.347,1.347,0,0,0,1.076-1.317v-7.53A1.346,1.346,0,0,0,75.9,20.465Zm-3.227,8.578V22.051h2.689v6.992Zm.269,20.438H43.632v-3.5a.807.807,0,0,0-1.613,0v3.5H37.446A1.346,1.346,0,0,1,36.1,48.136V45.178h1.345a.807.807,0,1,0,0-1.613H36.1V39.8h1.345a.807.807,0,1,0,0-1.613H36.1V34.422h1.345a.807.807,0,1,0,0-1.613H36.1V29.043h1.345a.807.807,0,1,0,0-1.613H36.1V23.665h1.345a.807.807,0,1,0,0-1.613H36.1V18.287h1.345a.807.807,0,1,0,0-1.613H36.1V12.909h1.345a.807.807,0,1,0,0-1.613H36.1V7.53h1.345a.807.807,0,1,0,0-1.613H36.1V2.958a1.346,1.346,0,0,1,1.345-1.345h4.572V42.758a.807.807,0,0,0,1.613,0V1.613H72.944a1.346,1.346,0,0,1,1.345,1.345v17.48H72.406a1.346,1.346,0,0,0-1.345,1.345v7.53a1.346,1.346,0,0,0,1.345,1.345h1.882v17.48A1.346,1.346,0,0,1,72.944,49.481Z"/>
    </g>
  </g>
</svg>
