<svg xmlns="http://www.w3.org/2000/svg" xmlns:xlink="http://www.w3.org/1999/xlink" width="108.914" height="108.914" viewBox="0 0 108.914 108.914">
  <defs>
    <filter id="Trazado_874925" x="0" y="0" width="108.914" height="108.914" filterUnits="userSpaceOnUse">
      <feOffset dy="3" input="SourceAlpha"/>
      <feGaussianBlur stdDeviation="3" result="blur"/>
      <feFlood flood-opacity="0.161"/>
      <feComposite operator="in" in2="blur"/>
      <feComposite in="SourceGraphic"/>
    </filter>
  </defs>
  <g id="Grupo_1108640" data-name="Grupo 1108640" transform="translate(-1068.174 -13932.364)">
    <g id="Grupo_1107764" data-name="Grupo 1107764" transform="translate(-45.588 11982.88)">
      <g id="Grupo_1107763" data-name="Grupo 1107763" transform="translate(1122.762 1955.484)">
        <g transform="matrix(1, 0, 0, 1, -9, -6)" filter="url(#Trazado_874925)">
          <g id="Trazado_874925-2" data-name="Trazado 874925" transform="translate(9 6)" fill="#ffcd80" opacity="0.859">
            <path d="M 45.45676803588867 89.41407012939453 C 39.52198028564453 89.41407012939453 33.76551818847656 88.25206756591797 28.34726715087891 85.96034240722656 C 23.11311721801758 83.74648284912109 18.41204261779785 80.57682800292969 14.37464332580566 76.5394287109375 C 10.33724308013916 72.50202941894531 7.167593002319336 67.80095672607422 4.953730583190918 62.56679534912109 C 2.662005424499512 57.14855575561523 1.500005483627319 51.39208221435547 1.500005483627319 45.45729446411133 C 1.500005483627319 39.52198028564453 2.662005424499512 33.76551818847656 4.953730583190918 28.34726905822754 C 7.167593002319336 23.11310577392578 10.33724308013916 18.41203117370605 14.37464332580566 14.37464332580566 C 18.41204261779785 10.33724403381348 23.11311721801758 7.167593955993652 28.34726715087891 4.953731060028076 C 33.76551818847656 2.662006139755249 39.52198028564453 1.500006198883057 45.45676803588867 1.500006198883057 C 51.39155578613281 1.500006198883057 57.14802932739258 2.662006139755249 62.56626892089844 4.953731060028076 C 67.80043029785156 7.167593955993652 72.50150299072266 10.33724403381348 76.53890228271484 14.37464332580566 C 80.57630920410156 18.41203117370605 83.74595642089844 23.11310577392578 85.95981597900391 28.34726905822754 C 88.25154113769531 33.76551818847656 89.41354370117188 39.52198028564453 89.41354370117188 45.45676803588867 C 89.41354370117188 51.39208221435547 88.25154113769531 57.14855575561523 85.95981597900391 62.56679534912109 C 83.74595642089844 67.80095672607422 80.57630920410156 72.50202941894531 76.53890228271484 76.5394287109375 C 72.50150299072266 80.57682800292969 67.80043029785156 83.74648284912109 62.56626892089844 85.96034240722656 C 57.14802932739258 88.25206756591797 51.39155578613281 89.41407012939453 45.45676803588867 89.41407012939453 Z" stroke="none"/>
            <path d="M 45.45676803588867 3 C 39.72381210327148 3 34.1639404296875 4.12213134765625 28.93159484863281 6.335227966308594 C 23.87622833251953 8.473472595214844 19.33542633056641 11.53517150878906 15.43529510498047 15.435302734375 C 11.53517150878906 19.33543395996094 8.473464965820312 23.87622833251953 6.335227966308594 28.93160247802734 C 4.122123718261719 34.16394424438477 3 39.72381591796875 3 45.4572868347168 C 3 51.19024658203125 4.122123718261719 56.75011825561523 6.335227966308594 61.98246002197266 C 8.473464965820312 67.03782653808594 11.53517150878906 71.57862854003906 15.43529510498047 75.478759765625 C 19.33542633056641 79.37889099121094 23.87622833251953 82.44058990478516 28.93159484863281 84.57883453369141 C 34.1639404296875 86.79193115234375 39.72381210327148 87.9140625 45.45676803588867 87.9140625 C 51.18972396850586 87.9140625 56.74959564208984 86.79193115234375 61.98194122314453 84.57883453369141 C 67.03730773925781 82.44058990478516 71.57810974121094 79.37889099121094 75.47824096679688 75.478759765625 C 79.37837219238281 71.57862854003906 82.44007110595703 67.03782653808594 84.57830810546875 61.98246002197266 C 86.79141235351562 56.75011825561523 87.91353607177734 51.19024658203125 87.91353607177734 45.4567756652832 C 87.91353607177734 39.72381591796875 86.79141235351562 34.16394424438477 84.57830810546875 28.93160247802734 C 82.44007110595703 23.87622833251953 79.37837219238281 19.33543395996094 75.47824096679688 15.435302734375 C 71.57810974121094 11.53517150878906 67.03730773925781 8.473472595214844 61.98194122314453 6.335227966308594 C 56.74959564208984 4.12213134765625 51.18972396850586 3 45.45676803588867 3 M 45.45676803588867 0 C 70.56185150146484 0 90.91353607177734 20.35169219970703 90.91353607177734 45.4567756652832 L 90.91353607177734 45.4572868347168 C 90.91353607177734 70.5623779296875 70.56185150146484 90.9140625 45.45676803588867 90.9140625 C 20.3516845703125 90.9140625 0 70.5623779296875 0 45.4572868347168 L 0 45.4567756652832 C 0 20.35169219970703 20.3516845703125 0 45.45676803588867 0 Z" stroke="none" fill="#fff"/>
          </g>
        </g>
        <g id="Trazado_874923" data-name="Trazado 874923" transform="translate(0 0)" fill="none">
          <path d="M45.457,0A45.457,45.457,0,0,1,90.914,45.457h0A45.457,45.457,0,0,1,0,45.457H0A45.457,45.457,0,0,1,45.457,0Z" stroke="none"/>
          <path d="M 45.45676803588867 3 C 39.72381210327148 3 34.1639404296875 4.12213134765625 28.93159484863281 6.335227966308594 C 23.87622833251953 8.473472595214844 19.33542633056641 11.53517150878906 15.43529510498047 15.435302734375 C 11.53517150878906 19.33543395996094 8.473464965820312 23.87622833251953 6.335227966308594 28.93160247802734 C 4.122123718261719 34.16394424438477 3 39.72381591796875 3 45.4572868347168 C 3 51.19024658203125 4.122123718261719 56.75011825561523 6.335227966308594 61.98246002197266 C 8.473464965820312 67.03782653808594 11.53517150878906 71.57862854003906 15.43529510498047 75.478759765625 C 19.33542633056641 79.37889099121094 23.87622833251953 82.44058990478516 28.93159484863281 84.57883453369141 C 34.1639404296875 86.79193115234375 39.72381210327148 87.9140625 45.45676803588867 87.9140625 C 51.18972396850586 87.9140625 56.74959564208984 86.79193115234375 61.98194122314453 84.57883453369141 C 67.03730773925781 82.44058990478516 71.57810974121094 79.37889099121094 75.47824096679688 75.478759765625 C 79.37837219238281 71.57862854003906 82.44007110595703 67.03782653808594 84.57830810546875 61.98246002197266 C 86.79141235351562 56.75011825561523 87.91353607177734 51.19024658203125 87.91353607177734 45.4567756652832 C 87.91353607177734 39.72381591796875 86.79141235351562 34.16394424438477 84.57830810546875 28.93160247802734 C 82.44007110595703 23.87622833251953 79.37837219238281 19.33543395996094 75.47824096679688 15.435302734375 C 71.57810974121094 11.53517150878906 67.03730773925781 8.473472595214844 61.98194122314453 6.335227966308594 C 56.74959564208984 4.12213134765625 51.18972396850586 3 45.45676803588867 3 M 45.45676803588867 0 C 70.56185150146484 0 90.91353607177734 20.35169219970703 90.91353607177734 45.4567756652832 L 90.91353607177734 45.4572868347168 C 90.91353607177734 70.5623779296875 70.56185150146484 90.9140625 45.45676803588867 90.9140625 C 20.3516845703125 90.9140625 0 70.5623779296875 0 45.4572868347168 L 0 45.4567756652832 C 0 20.35169219970703 20.3516845703125 0 45.45676803588867 0 Z" stroke="none" fill="#fff"/>
        </g>
      </g>
    </g>
    <g id="bafle" transform="translate(1066.054 13932.648)">
      <g id="Grupo_1108622" data-name="Grupo 1108622" transform="translate(29.614 25.214)">
        <g id="Grupo_1108592" data-name="Grupo 1108592" transform="translate(8.165 0)">
          <path id="Trazado_897036" data-name="Trazado 897036" d="M103.138,28.762H67.673a.913.913,0,0,0-.914.913V78.413a.913.913,0,0,0,.914.913h1.779l.712,2.737h30.484l.712-2.737h1.779a.914.914,0,0,0,.912-.913V29.675A.913.913,0,0,0,103.138,28.762Z" transform="translate(-66.759 -28.762)" fill="#9ec9ff"/>
        </g>
        <g id="Grupo_1108593" data-name="Grupo 1108593" transform="translate(8.165 0)">
          <path id="Trazado_897037" data-name="Trazado 897037" d="M70.365,79.326a.914.914,0,0,1-.914-.913V29.675a.914.914,0,0,1,.914-.913H67.673a.913.913,0,0,0-.914.913V78.413a.913.913,0,0,0,.914.913h1.779l.712,2.737h2.692l-.71-2.737Z" transform="translate(-66.759 -28.762)" fill="#aef4db"/>
        </g>
        <g id="Grupo_1108594" data-name="Grupo 1108594" transform="translate(11.391 45.394)">
          <path id="Trazado_897038" data-name="Trazado 897038" d="M83.276,236.192a.921.921,0,1,1-.92-.921A.92.92,0,0,1,83.276,236.192Z" transform="translate(-81.435 -235.271)" fill="#f4f4f4"/>
        </g>
        <g id="Grupo_1108595" data-name="Grupo 1108595" transform="translate(40.424 45.394)">
          <path id="Trazado_897039" data-name="Trazado 897039" d="M215.354,236.192a.921.921,0,1,1-.92-.921A.921.921,0,0,1,215.354,236.192Z" transform="translate(-213.513 -235.271)" fill="#f4f4f4"/>
        </g>
        <g id="Grupo_1108596" data-name="Grupo 1108596" transform="translate(11.391 3.258)">
          <path id="Trazado_897040" data-name="Trazado 897040" d="M83.276,44.5a.921.921,0,1,1-.92-.921A.92.92,0,0,1,83.276,44.5Z" transform="translate(-81.435 -43.581)" fill="#f4f4f4"/>
        </g>
        <g id="Grupo_1108597" data-name="Grupo 1108597" transform="translate(40.424 3.258)">
          <path id="Trazado_897041" data-name="Trazado 897041" d="M215.354,44.5a.921.921,0,1,1-.92-.921A.921.921,0,0,1,215.354,44.5Z" transform="translate(-213.513 -43.581)" fill="#f4f4f4"/>
        </g>
        <g id="Grupo_1108598" data-name="Grupo 1108598" transform="translate(14.072 21.303)">
          <circle id="Elipse_11691" data-name="Elipse 11691" cx="10.179" cy="10.179" r="10.179" transform="translate(0 19.484) rotate(-73.154)" fill="#ffda88"/>
        </g>
        <g id="Grupo_1108599" data-name="Grupo 1108599" transform="translate(16.585 23.815)">
          <path id="Trazado_897042" data-name="Trazado 897042" d="M108.092,147.282a10.171,10.171,0,0,1,8.664-10.054,10.179,10.179,0,1,0,0,20.108A10.171,10.171,0,0,1,108.092,147.282Z" transform="translate(-105.061 -137.103)" fill="#ffe2a9"/>
        </g>
        <g id="Grupo_1108600" data-name="Grupo 1108600" transform="translate(24.304 31.487)">
          <path id="Trazado_897043" data-name="Trazado 897043" d="M145.191,174.51A2.507,2.507,0,1,1,142.685,172,2.507,2.507,0,0,1,145.191,174.51Z" transform="translate(-140.177 -172.003)" fill="#f4f4f4"/>
        </g>
        <g id="Grupo_1108601" data-name="Grupo 1108601" transform="translate(24.304 31.487)">
          <path id="Trazado_897044" data-name="Trazado 897044" d="M141.843,174.51a2.5,2.5,0,0,1,1.675-2.355,2.507,2.507,0,1,0,0,4.709A2.5,2.5,0,0,1,141.843,174.51Z" transform="translate(-140.177 -172.003)" fill="#f9f9f9"/>
        </g>
        <g id="Grupo_1108602" data-name="Grupo 1108602" transform="translate(20.188 6.407)">
          <path id="Trazado_897045" data-name="Trazado 897045" d="M134.7,64.53a6.623,6.623,0,1,1-6.622-6.623A6.623,6.623,0,0,1,134.7,64.53Z" transform="translate(-121.453 -57.907)" fill="#ffda88"/>
        </g>
        <g id="Grupo_1108603" data-name="Grupo 1108603" transform="translate(20.188 6.407)">
          <path id="Trazado_897046" data-name="Trazado 897046" d="M123.526,64.53A6.618,6.618,0,0,1,129.113,58a6.623,6.623,0,1,0,0,13.068A6.619,6.619,0,0,1,123.526,64.53Z" transform="translate(-121.454 -57.907)" fill="#ffe2a9"/>
        </g>
        <g id="Grupo_1108604" data-name="Grupo 1108604" transform="translate(20.608 8.592)">
          <path id="Trazado_897047" data-name="Trazado 897047" d="M123.365,69.982H135.77a6.642,6.642,0,0,0-1.3-2.134h-9.812A6.612,6.612,0,0,0,123.365,69.982Z" transform="translate(-123.365 -67.848)" fill="#f4f4f4"/>
        </g>
        <g id="Grupo_1108605" data-name="Grupo 1108605" transform="translate(20.608 8.591)">
          <path id="Trazado_897048" data-name="Trazado 897048" d="M124.66,67.846l0,0c-.137.152-.268.311-.39.475a.022.022,0,0,1-.005.006q-.184.247-.346.512s0,0,0,.006q-.162.264-.3.545l0,.008c-.09.185-.17.375-.243.569a.023.023,0,0,0,0,.009h2.065a6.575,6.575,0,0,1,1.3-2.134H124.66Z" transform="translate(-123.364 -67.846)" fill="#f9f9f9"/>
        </g>
        <g id="Grupo_1108606" data-name="Grupo 1108606" transform="translate(20.188 11.97)">
          <path id="Trazado_897049" data-name="Trazado 897049" d="M121.453,84.275a6.653,6.653,0,0,0,.095,1.074h13.057a6.779,6.779,0,0,0,.094-1.074,6.6,6.6,0,0,0-.093-1.059H121.545A6.778,6.778,0,0,0,121.453,84.275Z" transform="translate(-121.453 -83.216)" fill="#f4f4f4"/>
        </g>
        <g id="Grupo_1108607" data-name="Grupo 1108607" transform="translate(20.188 11.97)">
          <path id="Trazado_897050" data-name="Trazado 897050" d="M121.546,85.329c0,.007,0,.013,0,.02h2.068a6.336,6.336,0,0,1,0-2.134h-2.069v0c-.026.165-.048.331-.064.5-.016.184-.029.368-.029.556s.013.376.029.562C121.5,85,121.52,85.167,121.546,85.329Z" transform="translate(-121.454 -83.215)" fill="#f9f9f9"/>
        </g>
        <g id="Grupo_1108608" data-name="Grupo 1108608" transform="translate(20.603 15.318)">
          <path id="Trazado_897051" data-name="Trazado 897051" d="M124.63,100.581h9.84a6.629,6.629,0,0,0,1.288-2.134H123.342A6.6,6.6,0,0,0,124.63,100.581Z" transform="translate(-123.342 -98.447)" fill="#f4f4f4"/>
        </g>
        <g id="Grupo_1108609" data-name="Grupo 1108609" transform="translate(20.602 15.318)">
          <path id="Trazado_897052" data-name="Trazado 897052" d="M126.7,100.581a6.611,6.611,0,0,1-1.295-2.134h-2.065s0,0,0,.006c.072.2.155.388.245.574l0,0q.137.282.3.548l0,0c.107.177.222.348.345.514l0,.006q.184.246.388.474l.005.005H126.7Z" transform="translate(-123.338 -98.447)" fill="#f9f9f9"/>
        </g>
        <g id="Grupo_1108610" data-name="Grupo 1108610" transform="translate(39.93 34.394)">
          <path id="Trazado_897053" data-name="Trazado 897053" d="M223.869,188.032a.774.774,0,0,0-.4-.887.839.839,0,0,0-.147-.055l-6.992-1.835a.811.811,0,0,0-.153-.025.773.773,0,0,0-.789.575L213.9,191.46a2.576,2.576,0,0,0-.359-.125,1.542,1.542,0,1,0,1.48,1.934c0-.012,0-.024,0-.036s.013-.029.017-.045l.917-3.5,5.5,1.443-.567,2.16a2.381,2.381,0,0,0-.359-.125,1.542,1.542,0,1,0,1.48,1.933.341.341,0,0,0,.005-.036c.005-.015.012-.029.017-.045Zm-7.518.168.331-1.257,5.5,1.443-.329,1.258Z" transform="translate(-211.265 -185.229)" fill="#fe6f80"/>
        </g>
        <g id="Grupo_1108613" data-name="Grupo 1108613" transform="translate(39.933 34.394)">
          <g id="Grupo_1108611" data-name="Grupo 1108611">
            <path id="Trazado_897054" data-name="Trazado 897054" d="M212.065,193.041a1.749,1.749,0,0,1,2.238-.958,2.573,2.573,0,0,1,.359.125l1.484-5.655a.773.773,0,0,1,.788-.575.8.8,0,0,1,.153.025l6.812,1.788a.77.77,0,0,0-.423-.648.836.836,0,0,0-.147-.055l-6.992-1.835a.81.81,0,0,0-.153-.025.773.773,0,0,0-.788.575l-1.484,5.655a2.572,2.572,0,0,0-.359-.125,1.749,1.749,0,0,0-2.238.958,1.569,1.569,0,0,0,.88,1.68A1.277,1.277,0,0,1,212.065,193.041Z" transform="translate(-211.276 -185.227)" fill="#ffa1aa"/>
          </g>
          <g id="Grupo_1108612" data-name="Grupo 1108612" transform="translate(6.992 5.926)">
            <path id="Trazado_897055" data-name="Trazado 897055" d="M243.872,215.908a1.746,1.746,0,0,1,2.237-.958,2.383,2.383,0,0,1,.359.125l.695-2.658-.886-.232-.558,2.141a2.384,2.384,0,0,0-.359-.125,1.746,1.746,0,0,0-2.237.958,1.569,1.569,0,0,0,.878,1.68A1.277,1.277,0,0,1,243.872,215.908Z" transform="translate(-243.084 -212.184)" fill="#ffa1aa"/>
          </g>
        </g>
        <g id="Grupo_1108614" data-name="Grupo 1108614" transform="translate(3.028 10.373)">
          <path id="Trazado_897056" data-name="Trazado 897056" d="M55.995,78.753a.774.774,0,0,0-.4-.887.838.838,0,0,0-.147-.055l-6.992-1.835a.77.77,0,0,0-.942.55l-1.483,5.655a2.574,2.574,0,0,0-.359-.125,1.542,1.542,0,1,0-.759,2.891,1.75,1.75,0,0,0,2.238-.958c0-.012,0-.024,0-.036s.013-.029.017-.045l.917-3.5,5.5,1.443-.567,2.16a2.409,2.409,0,0,0-.359-.125,1.542,1.542,0,1,0,1.48,1.934.347.347,0,0,0,.005-.036c.005-.015.012-.029.017-.045Zm-7.518.169.331-1.257,5.5,1.444-.329,1.257Z" transform="translate(-43.391 -75.951)" fill="#fe6f80"/>
        </g>
        <g id="Grupo_1108617" data-name="Grupo 1108617" transform="translate(3.029 10.373)">
          <g id="Grupo_1108615" data-name="Grupo 1108615">
            <path id="Trazado_897057" data-name="Trazado 897057" d="M43.876,83.9a1.749,1.749,0,0,1,2.238-.958,2.485,2.485,0,0,1,.359.125l1.485-5.655a.772.772,0,0,1,.787-.575.755.755,0,0,1,.153.024L55.891,78.7a.783.783,0,0,1,.108.04.767.767,0,0,0-.552-.929l-6.992-1.835a.76.76,0,0,0-.154-.024.772.772,0,0,0-.787.575L46.03,82.181a2.459,2.459,0,0,0-.359-.125,1.749,1.749,0,0,0-2.238.958,1.408,1.408,0,0,0,.422,1.323A1.186,1.186,0,0,1,43.876,83.9Z" transform="translate(-43.395 -75.951)" fill="#ffa1aa"/>
          </g>
          <g id="Grupo_1108616" data-name="Grupo 1108616" transform="translate(6.992 5.906)">
            <path id="Trazado_897058" data-name="Trazado 897058" d="M75.683,106.7a1.749,1.749,0,0,1,2.238-.958,2.462,2.462,0,0,1,.359.125l.752-2.858-.63-.19-.566,2.16a2.452,2.452,0,0,0-.359-.125,1.749,1.749,0,0,0-2.238.958,1.4,1.4,0,0,0,.422,1.323A1.19,1.19,0,0,1,75.683,106.7Z" transform="translate(-75.202 -102.819)" fill="#ffa1aa"/>
          </g>
        </g>
        <g id="Grupo_1108618" data-name="Grupo 1108618" transform="translate(0 41.227)">
          <path id="Trazado_897059" data-name="Trazado 897059" d="M34.67,216.311H32.884a1.017,1.017,0,0,0-.2.02.992.992,0,0,0-.311.126.377.377,0,0,0-.046.025.979.979,0,0,0-.09.073c-.02.016-.04.031-.058.048a1.1,1.1,0,0,0-.07.085c-.017.021-.036.04-.052.062s-.03.056-.044.083a.7.7,0,0,0-.047.087.347.347,0,0,0-.012.037.846.846,0,0,0-.047.15,1.027,1.027,0,0,0-.021.2v4.008c-.046,0-.09-.01-.137-.01-1.179,0-2.134.708-2.134,1.582s.955,1.582,2.134,1.582,2.135-.708,2.135-1.582v-4.58h.787a1,1,0,1,0,0-2Z" transform="translate(-29.614 -216.311)" fill="#fe6f80"/>
        </g>
        <g id="Grupo_1108619" data-name="Grupo 1108619" transform="translate(0 41.226)">
          <path id="Trazado_897060" data-name="Trazado 897060" d="M30.5,223.9c0-.873.955-1.582,2.135-1.582.047,0,.09.009.137.01v-4.008a1.027,1.027,0,0,1,.02-.2,1.169,1.169,0,0,1,.047-.15c.005-.012.007-.025.012-.037.013-.031.031-.058.047-.086a.923.923,0,0,1,.046-.083c.016-.023.035-.042.052-.062a.823.823,0,0,1,.07-.086c.017-.018.039-.031.058-.048a1.012,1.012,0,0,1,.089-.073c.014-.01.031-.016.046-.025a.965.965,0,0,1,.312-.126.984.984,0,0,1,.2-.021h1.787a1.044,1.044,0,0,1,.109.012c0-.006,0-.013,0-.02a1,1,0,0,0-1-1H32.884a1.014,1.014,0,0,0-.2.02.992.992,0,0,0-.311.126.377.377,0,0,0-.046.025.985.985,0,0,0-.09.073c-.02.016-.04.031-.058.048a1.094,1.094,0,0,0-.07.085c-.017.021-.036.04-.052.062s-.03.056-.044.083a.7.7,0,0,0-.047.087.347.347,0,0,0-.012.037.846.846,0,0,0-.047.15,1.026,1.026,0,0,0-.021.2v4.008c-.046,0-.09-.01-.137-.01-1.179,0-2.134.708-2.134,1.582a1.521,1.521,0,0,0,.928,1.3A1.163,1.163,0,0,1,30.5,223.9Z" transform="translate(-29.614 -216.31)" fill="#ffa1aa"/>
        </g>
        <g id="Grupo_1108620" data-name="Grupo 1108620" transform="translate(48.784)">
          <path id="Trazado_897061" data-name="Trazado 897061" d="M253.952,28.83l-1.666.647a1.01,1.01,0,0,0-.18.092.967.967,0,0,0-.246.23c-.01.014-.023.025-.033.039a.959.959,0,0,0-.057.1c-.012.022-.026.043-.036.066s-.024.07-.035.1a.759.759,0,0,0-.025.077.7.7,0,0,0-.012.094.815.815,0,0,0-.013.1c0,.013,0,.026,0,.039a1.048,1.048,0,0,0,.011.157,1.061,1.061,0,0,0,.055.195l1.453,3.735c-.044.015-.088.023-.131.04-1.1.428-1.733,1.434-1.416,2.248a2.232,2.232,0,0,0,3.979-1.548c-.027-.071-1.66-4.268-1.66-4.268l.734-.285a1,1,0,1,0-.725-1.863Z" transform="translate(-251.543 -28.762)" fill="#fe6f80"/>
        </g>
        <g id="Grupo_1108621" data-name="Grupo 1108621" transform="translate(48.783 0.001)">
          <path id="Trazado_897062" data-name="Trazado 897062" d="M252.5,37.173c-.318-.814.316-1.821,1.416-2.248.043-.017.087-.025.131-.04l-1.453-3.735a1.089,1.089,0,0,1-.055-.195,1.077,1.077,0,0,1-.011-.157c0-.013,0-.026,0-.039a.87.87,0,0,1,.013-.1.784.784,0,0,1,.012-.094c.005-.027.017-.052.025-.077s.021-.071.035-.1.025-.044.036-.066a1.038,1.038,0,0,1,.057-.1c.009-.014.022-.026.033-.039a.964.964,0,0,1,.246-.23,1,1,0,0,1,.18-.092l1.666-.647a1,1,0,0,1,.269-.06,1,1,0,0,0-1.144-.315l-1.666.647a1.01,1.01,0,0,0-.18.092.967.967,0,0,0-.246.23c-.01.014-.023.025-.033.039a.956.956,0,0,0-.057.1c-.012.022-.026.043-.036.066s-.024.07-.035.1a.755.755,0,0,0-.025.077.7.7,0,0,0-.012.094.815.815,0,0,0-.013.1c0,.013,0,.026,0,.039a1.048,1.048,0,0,0,.011.157,1.061,1.061,0,0,0,.055.195l1.453,3.735c-.044.015-.088.023-.131.04-1.1.428-1.733,1.434-1.416,2.248a1.48,1.48,0,0,0,1.226.859A1.222,1.222,0,0,1,252.5,37.173Z" transform="translate(-251.541 -28.766)" fill="#ffa1aa"/>
        </g>
      </g>
      <g id="Grupo_1108639" data-name="Grupo 1108639" transform="translate(29.614 24.215)">
        <g id="Grupo_1108623" data-name="Grupo 1108623" transform="translate(7.166 0)">
          <path id="Trazado_897063" data-name="Trazado 897063" d="M99.591,76.778H64.126a1.915,1.915,0,0,1-1.913-1.912V26.128a1.915,1.915,0,0,1,1.913-1.913h7.891a1,1,0,1,1,0,2H64.212V74.779H99.5V26.214H76.445a1,1,0,1,1,0-2H99.591a1.914,1.914,0,0,1,1.912,1.913V74.866A1.914,1.914,0,0,1,99.591,76.778Z" transform="translate(-62.213 -24.215)" fill="#161616"/>
        </g>
        <g id="Grupo_1108624" data-name="Grupo 1108624" transform="translate(9.858 50.564)">
          <path id="Trazado_897064" data-name="Trazado 897064" d="M106.656,258.977h-4.617a1,1,0,1,1,0-2h3.844l.192-.738H76.753l.192.738H97.611a1,1,0,1,1,0,2H76.172a1,1,0,0,1-.967-.748l-.712-2.737a1,1,0,0,1,.967-1.251h31.908a1,1,0,0,1,.967,1.251l-.712,2.737A1,1,0,0,1,106.656,258.977Z" transform="translate(-74.461 -254.242)" fill="#161616"/>
        </g>
        <g id="Grupo_1108625" data-name="Grupo 1108625" transform="translate(11.391 46.394)">
          <path id="Trazado_897065" data-name="Trazado 897065" d="M83.276,236.192a.921.921,0,1,1-.92-.921A.92.92,0,0,1,83.276,236.192Z" transform="translate(-81.435 -235.271)" fill="#161616"/>
        </g>
        <g id="Grupo_1108626" data-name="Grupo 1108626" transform="translate(40.424 46.394)">
          <path id="Trazado_897066" data-name="Trazado 897066" d="M215.354,236.192a.921.921,0,1,1-.92-.921A.921.921,0,0,1,215.354,236.192Z" transform="translate(-213.513 -235.271)" fill="#161616"/>
        </g>
        <g id="Grupo_1108627" data-name="Grupo 1108627" transform="translate(11.391 4.257)">
          <path id="Trazado_897067" data-name="Trazado 897067" d="M83.276,44.5a.921.921,0,1,1-.92-.921A.92.92,0,0,1,83.276,44.5Z" transform="translate(-81.435 -43.581)" fill="#161616"/>
        </g>
        <g id="Grupo_1108628" data-name="Grupo 1108628" transform="translate(40.424 4.257)">
          <path id="Trazado_897068" data-name="Trazado 897068" d="M215.354,44.5a.921.921,0,1,1-.92-.921A.921.921,0,0,1,215.354,44.5Z" transform="translate(-213.513 -43.581)" fill="#161616"/>
        </g>
        <g id="Grupo_1108629" data-name="Grupo 1108629" transform="translate(15.633 23.815)">
          <path id="Trazado_897069" data-name="Trazado 897069" d="M111.911,154.912a11.178,11.178,0,1,1,11.178-11.178A11.191,11.191,0,0,1,111.911,154.912Zm0-20.358a9.179,9.179,0,1,0,9.179,9.179A9.19,9.19,0,0,0,111.911,134.555Z" transform="translate(-100.733 -132.556)" fill="#161616"/>
        </g>
        <g id="Grupo_1108630" data-name="Grupo 1108630" transform="translate(23.304 31.487)">
          <path id="Trazado_897070" data-name="Trazado 897070" d="M139.138,174.47a3.506,3.506,0,1,1,3.506-3.506A3.511,3.511,0,0,1,139.138,174.47Zm0-5.014a1.508,1.508,0,1,0,1.507,1.508A1.51,1.51,0,0,0,139.138,169.456Z" transform="translate(-135.631 -167.457)" fill="#161616"/>
        </g>
        <g id="Grupo_1108631" data-name="Grupo 1108631" transform="translate(19.188 6.407)">
          <path id="Trazado_897071" data-name="Trazado 897071" d="M124.529,68.605a7.622,7.622,0,1,1,7.622-7.622A7.632,7.632,0,0,1,124.529,68.605Zm0-13.246a5.623,5.623,0,1,0,5.623,5.623A5.63,5.63,0,0,0,124.529,55.36Z" transform="translate(-116.906 -53.361)" fill="#161616"/>
        </g>
        <g id="Grupo_1108632" data-name="Grupo 1108632" transform="translate(20.608 9.591)">
          <path id="Trazado_897072" data-name="Trazado 897072" d="M123.365,69.982H135.77a6.616,6.616,0,0,0-1.3-2.134h-9.812A6.642,6.642,0,0,0,123.365,69.982Z" transform="translate(-123.365 -67.848)" fill="#161616"/>
        </g>
        <g id="Grupo_1108633" data-name="Grupo 1108633" transform="translate(20.188 12.969)">
          <path id="Trazado_897073" data-name="Trazado 897073" d="M121.453,84.275a6.653,6.653,0,0,0,.095,1.074h13.057a6.779,6.779,0,0,0,.094-1.074,6.6,6.6,0,0,0-.093-1.059H121.545A6.778,6.778,0,0,0,121.453,84.275Z" transform="translate(-121.453 -83.216)" fill="#161616"/>
        </g>
        <g id="Grupo_1108634" data-name="Grupo 1108634" transform="translate(20.603 16.317)">
          <path id="Trazado_897074" data-name="Trazado 897074" d="M124.63,100.581h9.84a6.629,6.629,0,0,0,1.288-2.134H123.342A6.6,6.6,0,0,0,124.63,100.581Z" transform="translate(-123.342 -98.447)" fill="#161616"/>
        </g>
        <g id="Grupo_1108635" data-name="Grupo 1108635" transform="translate(39.93 35.394)">
          <path id="Trazado_897075" data-name="Trazado 897075" d="M223.869,188.032a.774.774,0,0,0-.4-.887.839.839,0,0,0-.147-.055l-6.992-1.835a.811.811,0,0,0-.153-.025.773.773,0,0,0-.789.575L213.9,191.46a2.576,2.576,0,0,0-.359-.125,1.542,1.542,0,1,0,1.48,1.934c0-.012,0-.024,0-.036s.013-.029.017-.045l.917-3.5,5.5,1.443-.567,2.16a2.381,2.381,0,0,0-.359-.125,1.542,1.542,0,1,0,1.48,1.933.341.341,0,0,0,.005-.036c.005-.015.012-.029.017-.045Zm-7.518.168.331-1.257,5.5,1.443-.329,1.258Z" transform="translate(-211.265 -185.229)" fill="#161616"/>
        </g>
        <g id="Grupo_1108636" data-name="Grupo 1108636" transform="translate(3.028 11.372)">
          <path id="Trazado_897076" data-name="Trazado 897076" d="M55.995,78.753a.774.774,0,0,0-.4-.887.838.838,0,0,0-.147-.055l-6.992-1.835a.77.77,0,0,0-.942.55l-1.483,5.655a2.574,2.574,0,0,0-.359-.125,1.542,1.542,0,1,0-.759,2.891,1.75,1.75,0,0,0,2.238-.958c0-.012,0-.024,0-.036s.013-.029.017-.045l.917-3.5,5.5,1.443-.567,2.16a2.409,2.409,0,0,0-.359-.125,1.542,1.542,0,1,0,1.48,1.934.347.347,0,0,0,.005-.036c.005-.015.012-.029.017-.045Zm-7.518.169.331-1.257,5.5,1.444-.329,1.257Z" transform="translate(-43.391 -75.951)" fill="#161616"/>
        </g>
        <g id="Grupo_1108637" data-name="Grupo 1108637" transform="translate(0 42.226)">
          <path id="Trazado_897077" data-name="Trazado 897077" d="M34.67,216.311H32.884a1.017,1.017,0,0,0-.2.02.992.992,0,0,0-.311.126.377.377,0,0,0-.046.025.979.979,0,0,0-.09.073c-.02.016-.04.031-.058.048a1.1,1.1,0,0,0-.07.085c-.017.021-.036.04-.052.062s-.03.056-.044.083a.7.7,0,0,0-.047.087.347.347,0,0,0-.012.037.846.846,0,0,0-.047.15,1.027,1.027,0,0,0-.021.2v4.008c-.046,0-.09-.01-.137-.01-1.179,0-2.134.708-2.134,1.582s.955,1.582,2.134,1.582,2.135-.708,2.135-1.582v-4.58h.787a1,1,0,1,0,0-2Z" transform="translate(-29.614 -216.311)" fill="#161616"/>
        </g>
        <g id="Grupo_1108638" data-name="Grupo 1108638" transform="translate(48.784 0.999)">
          <path id="Trazado_897078" data-name="Trazado 897078" d="M253.952,28.83l-1.666.647a1.01,1.01,0,0,0-.18.092.967.967,0,0,0-.246.23c-.01.014-.023.025-.033.039a.959.959,0,0,0-.057.1c-.012.022-.026.043-.036.066s-.024.07-.035.1a.759.759,0,0,0-.025.077.7.7,0,0,0-.012.094.815.815,0,0,0-.013.1c0,.013,0,.026,0,.039a1.048,1.048,0,0,0,.011.157,1.061,1.061,0,0,0,.055.195l1.453,3.735c-.044.015-.088.023-.131.04-1.1.428-1.733,1.434-1.416,2.248a2.232,2.232,0,0,0,3.979-1.548c-.027-.071-1.66-4.268-1.66-4.268l.734-.285a1,1,0,1,0-.725-1.863Z" transform="translate(-251.543 -28.762)" fill="#161616"/>
        </g>
      </g>
    </g>
  </g>
</svg>
