<svg xmlns="http://www.w3.org/2000/svg" xmlns:xlink="http://www.w3.org/1999/xlink" width="108.914" height="108.914" viewBox="0 0 108.914 108.914">
  <defs>
    <filter id="Trazado_874925" x="0" y="0" width="108.914" height="108.914" filterUnits="userSpaceOnUse">
      <feOffset dy="3" input="SourceAlpha"/>
      <feGaussianBlur stdDeviation="3" result="blur"/>
      <feFlood flood-opacity="0.161"/>
      <feComposite operator="in" in2="blur"/>
      <feComposite in="SourceGraphic"/>
    </filter>
  </defs>
  <g id="Grupo_1108668" data-name="Grupo 1108668" transform="translate(6269.876 -2324.365)">
    <g id="Grupo_1108579" data-name="Grupo 1108579" transform="translate(-7383.639 374.88)">
      <g id="Grupo_1107763" data-name="Grupo 1107763" transform="translate(1122.762 1955.484)">
        <g transform="matrix(1, 0, 0, 1, -9, -6)" filter="url(#Trazado_874925)">
          <g id="Trazado_874925-2" data-name="Trazado 874925" transform="translate(9 6)" fill="#ffcd80" opacity="0.859">
            <path d="M 45.45676803588867 89.41407012939453 C 39.52198028564453 89.41407012939453 33.76551818847656 88.25206756591797 28.34726715087891 85.96034240722656 C 23.11311721801758 83.74648284912109 18.41204261779785 80.57682800292969 14.37464332580566 76.5394287109375 C 10.33724308013916 72.50202941894531 7.167593002319336 67.80095672607422 4.953730583190918 62.56679534912109 C 2.662005424499512 57.14855575561523 1.500005483627319 51.39208221435547 1.500005483627319 45.45729446411133 C 1.500005483627319 39.52198028564453 2.662005424499512 33.76551818847656 4.953730583190918 28.34726905822754 C 7.167593002319336 23.11310577392578 10.33724308013916 18.41203117370605 14.37464332580566 14.37464332580566 C 18.41204261779785 10.33724403381348 23.11311721801758 7.167593955993652 28.34726715087891 4.953731060028076 C 33.76551818847656 2.662006139755249 39.52198028564453 1.500006198883057 45.45676803588867 1.500006198883057 C 51.39155578613281 1.500006198883057 57.14802932739258 2.662006139755249 62.56626892089844 4.953731060028076 C 67.80043029785156 7.167593955993652 72.50150299072266 10.33724403381348 76.53890228271484 14.37464332580566 C 80.57630920410156 18.41203117370605 83.74595642089844 23.11310577392578 85.95981597900391 28.34726905822754 C 88.25154113769531 33.76551818847656 89.41354370117188 39.52198028564453 89.41354370117188 45.45676803588867 C 89.41354370117188 51.39208221435547 88.25154113769531 57.14855575561523 85.95981597900391 62.56679534912109 C 83.74595642089844 67.80095672607422 80.57630920410156 72.50202941894531 76.53890228271484 76.5394287109375 C 72.50150299072266 80.57682800292969 67.80043029785156 83.74648284912109 62.56626892089844 85.96034240722656 C 57.14802932739258 88.25206756591797 51.39155578613281 89.41407012939453 45.45676803588867 89.41407012939453 Z" stroke="none"/>
            <path d="M 45.45676803588867 3 C 39.72381210327148 3 34.1639404296875 4.12213134765625 28.93159484863281 6.335227966308594 C 23.87622833251953 8.473472595214844 19.33542633056641 11.53517150878906 15.43529510498047 15.435302734375 C 11.53517150878906 19.33543395996094 8.473464965820312 23.87622833251953 6.335227966308594 28.93160247802734 C 4.122123718261719 34.16394424438477 3 39.72381591796875 3 45.4572868347168 C 3 51.19024658203125 4.122123718261719 56.75011825561523 6.335227966308594 61.98246002197266 C 8.473464965820312 67.03782653808594 11.53517150878906 71.57862854003906 15.43529510498047 75.478759765625 C 19.33542633056641 79.37889099121094 23.87622833251953 82.44058990478516 28.93159484863281 84.57883453369141 C 34.1639404296875 86.79193115234375 39.72381210327148 87.9140625 45.45676803588867 87.9140625 C 51.18972396850586 87.9140625 56.74959564208984 86.79193115234375 61.98194122314453 84.57883453369141 C 67.03730773925781 82.44058990478516 71.57810974121094 79.37889099121094 75.47824096679688 75.478759765625 C 79.37837219238281 71.57862854003906 82.44007110595703 67.03782653808594 84.57830810546875 61.98246002197266 C 86.79141235351562 56.75011825561523 87.91353607177734 51.19024658203125 87.91353607177734 45.4567756652832 C 87.91353607177734 39.72381591796875 86.79141235351562 34.16394424438477 84.57830810546875 28.93160247802734 C 82.44007110595703 23.87622833251953 79.37837219238281 19.33543395996094 75.47824096679688 15.435302734375 C 71.57810974121094 11.53517150878906 67.03730773925781 8.473472595214844 61.98194122314453 6.335227966308594 C 56.74959564208984 4.12213134765625 51.18972396850586 3 45.45676803588867 3 M 45.45676803588867 0 C 70.56185150146484 0 90.91353607177734 20.35169219970703 90.91353607177734 45.4567756652832 L 90.91353607177734 45.4572868347168 C 90.91353607177734 70.5623779296875 70.56185150146484 90.9140625 45.45676803588867 90.9140625 C 20.3516845703125 90.9140625 0 70.5623779296875 0 45.4572868347168 L 0 45.4567756652832 C 0 20.35169219970703 20.3516845703125 0 45.45676803588867 0 Z" stroke="none" fill="#fff"/>
          </g>
        </g>
        <g id="Trazado_874923" data-name="Trazado 874923" transform="translate(0 0)" fill="none">
          <path d="M45.457,0A45.457,45.457,0,0,1,90.914,45.457h0A45.457,45.457,0,0,1,0,45.457H0A45.457,45.457,0,0,1,45.457,0Z" stroke="none"/>
          <path d="M 45.45676803588867 3 C 39.72381210327148 3 34.1639404296875 4.12213134765625 28.93159484863281 6.335227966308594 C 23.87622833251953 8.473472595214844 19.33542633056641 11.53517150878906 15.43529510498047 15.435302734375 C 11.53517150878906 19.33543395996094 8.473464965820312 23.87622833251953 6.335227966308594 28.93160247802734 C 4.122123718261719 34.16394424438477 3 39.72381591796875 3 45.4572868347168 C 3 51.19024658203125 4.122123718261719 56.75011825561523 6.335227966308594 61.98246002197266 C 8.473464965820312 67.03782653808594 11.53517150878906 71.57862854003906 15.43529510498047 75.478759765625 C 19.33542633056641 79.37889099121094 23.87622833251953 82.44058990478516 28.93159484863281 84.57883453369141 C 34.1639404296875 86.79193115234375 39.72381210327148 87.9140625 45.45676803588867 87.9140625 C 51.18972396850586 87.9140625 56.74959564208984 86.79193115234375 61.98194122314453 84.57883453369141 C 67.03730773925781 82.44058990478516 71.57810974121094 79.37889099121094 75.47824096679688 75.478759765625 C 79.37837219238281 71.57862854003906 82.44007110595703 67.03782653808594 84.57830810546875 61.98246002197266 C 86.79141235351562 56.75011825561523 87.91353607177734 51.19024658203125 87.91353607177734 45.4567756652832 C 87.91353607177734 39.72381591796875 86.79141235351562 34.16394424438477 84.57830810546875 28.93160247802734 C 82.44007110595703 23.87622833251953 79.37837219238281 19.33543395996094 75.47824096679688 15.435302734375 C 71.57810974121094 11.53517150878906 67.03730773925781 8.473472595214844 61.98194122314453 6.335227966308594 C 56.74959564208984 4.12213134765625 51.18972396850586 3 45.45676803588867 3 M 45.45676803588867 0 C 70.56185150146484 0 90.91353607177734 20.35169219970703 90.91353607177734 45.4567756652832 L 90.91353607177734 45.4572868347168 C 90.91353607177734 70.5623779296875 70.56185150146484 90.9140625 45.45676803588867 90.9140625 C 20.3516845703125 90.9140625 0 70.5623779296875 0 45.4572868347168 L 0 45.4567756652832 C 0 20.35169219970703 20.3516845703125 0 45.45676803588867 0 Z" stroke="none" fill="#fff"/>
        </g>
      </g>
    </g>
    <g id="vaso" transform="translate(-6242.055 2352.651)">
      <path id="Trazado_897101" data-name="Trazado 897101" d="M258.744,8.454v.954a.955.955,0,0,1-.956.954h-.161l-.317,8.842a1.905,1.905,0,0,1-.493,1.211l-1.262,1.391-2.041,33.629a.955.955,0,0,1-.955.9H238.105a.955.955,0,0,1-.955-.9l-1.917-33.625-1.341-1.377a1.9,1.9,0,0,1-.54-1.268l-.28-8.8h-.15a.955.955,0,0,1-.956-.954V8.454a.955.955,0,0,1,.956-.954h24.864A.955.955,0,0,1,258.744,8.454Z" transform="translate(-209.176 -6.763)" fill="#c1e9fd"/>
      <path id="Trazado_897102" data-name="Trazado 897102" d="M258.744,8.455v.954a.955.955,0,0,1-.956.954h-.161l-.317,8.842a1.905,1.905,0,0,1-.493,1.211l-1.262,1.391-2.041,33.629a.955.955,0,0,1-.955.9h-2.994a.955.955,0,0,0,.955-.9l2.041-33.629,1.262-1.391a1.907,1.907,0,0,0,.493-1.212l.253-7.054a1.725,1.725,0,0,0-1.724-1.787H232.923a.955.955,0,0,1-.956-.954V8.455a.955.955,0,0,1,.956-.954h24.864A.955.955,0,0,1,258.744,8.455Z" transform="translate(-209.176 -6.764)" fill="#a4e0f7"/>
      <path id="Trazado_897103" data-name="Trazado 897103" d="M23.757,14.967v1.279a7.467,7.467,0,0,1-7.467,7.467H14.967A7.467,7.467,0,0,1,7.5,16.246V7.5h8.79A7.467,7.467,0,0,1,23.757,14.967Z" transform="translate(-6.763 -6.763)" fill="#8eb55e"/>
      <path id="Trazado_897104" data-name="Trazado 897104" d="M24.714,189.38a17.167,17.167,0,1,1,17.214-17.167A17.19,17.19,0,0,1,24.714,189.38Z" transform="translate(-6.763 -139.813)" fill="#f9e1a2"/>
      <path id="Trazado_897105" data-name="Trazado 897105" d="M86.152,243.978a10.491,10.491,0,1,1,10.519-10.491A10.505,10.505,0,0,1,86.152,243.978Z" transform="translate(-68.202 -201.086)" fill="#eacc8f"/>
      <path id="Trazado_897106" data-name="Trazado 897106" d="M184.139,233.488a10.505,10.505,0,0,1-10.519,10.491c-.334,0-.664-.016-.989-.047a10.488,10.488,0,0,0,0-20.889c.326-.03.656-.046.989-.046A10.505,10.505,0,0,1,184.139,233.488Z" transform="translate(-155.669 -201.087)" fill="#d8b77c"/>
      <path id="Trazado_897107" data-name="Trazado 897107" d="M39.089,45.345a.737.737,0,0,1-.707-.766l.956-23.843a.737.737,0,0,1,1.473.059l-.956,23.843a.737.737,0,0,1-.736.707ZM48.612,0H23.747a1.694,1.694,0,0,0-1.693,1.691v.954A1.694,1.694,0,0,0,23.18,4.237l.26,8.183a2.636,2.636,0,0,0,.748,1.759l1.149,1.18.042.736a17.905,17.905,0,0,0-7.429-1.6,18.136,18.136,0,0,0-2.235.138l-2.575-2.568V8.425a.737.737,0,1,0-1.474,0V10.6L9.442,8.378V5.7a.737.737,0,1,0-1.474,0V6.908L3.935,2.886A.737.737,0,1,0,2.894,3.929l4.05,4.039H5.378a.737.737,0,0,0,0,1.474H8.422l2.2,2.194H8.037a.737.737,0,1,0,0,1.474H12.1l1.842,1.837A17.909,17.909,0,1,0,32.57,42.779l.075,1.859a.737.737,0,1,0,1.473-.059l-.163-4.073a17.854,17.854,0,0,0-.712-17.491c0-.014,0-.028,0-.043l-.08-2.234a.737.737,0,0,0-1.473.053l0,.086a18.154,18.154,0,0,0-1.45-1.525.737.737,0,0,0-1.008,1.075A16.255,16.255,0,0,1,34.427,32.4a16.455,16.455,0,1,1-6.96-13.415.737.737,0,0,0,.851-1.2q-.691-.488-1.417-.906l-.063-1.1H38.545a.737.737,0,0,0,0-1.474H26.369l-1.124-1.155a1.165,1.165,0,0,1-.331-.778l-.256-8.039h17.2a.737.737,0,1,0,0-1.474H23.747a.218.218,0,0,1-.219-.217V1.691a.218.218,0,0,1,.219-.217H48.611a.218.218,0,0,1,.219.217v.954a.218.218,0,0,1-.219.217H44.727a.737.737,0,1,0,0,1.474h2.959L47.4,12.414a1.169,1.169,0,0,1-.3.743l-1.262,1.391a.737.737,0,0,0-.19.45L43.6,48.627a.219.219,0,0,1-.219.2H28.929a.218.218,0,0,1-.219-.2.737.737,0,1,0-1.472.084,1.693,1.693,0,0,0,1.69,1.595H43.383a1.7,1.7,0,0,0,1.69-1.588L47.1,15.346l1.088-1.2a2.645,2.645,0,0,0,.683-1.68l.295-8.224a1.694,1.694,0,0,0,1.14-1.6V1.691A1.694,1.694,0,0,0,48.612,0ZM6.264,17.5a.737.737,0,1,0,.318-1.439A6.555,6.555,0,0,1,1.474,9.7V1.474H9.726a6.529,6.529,0,0,1,6.531,6.511V9.7a6.468,6.468,0,0,1-.429,2.326.737.737,0,1,0,1.376.528A7.933,7.933,0,0,0,17.731,9.7V7.985A8,8,0,0,0,9.726,0H.737A.737.737,0,0,0,0,.737V9.7a7.993,7.993,0,0,0,6.264,7.8ZM21.3,37.693a.737.737,0,1,0,.949,1.128,8.147,8.147,0,0,0,0-12.841.737.737,0,0,0-.949,1.128,6.677,6.677,0,0,1,0,10.585ZM12.44,40.461a.737.737,0,1,0-.83,1.218,11.234,11.234,0,1,0-2.053-1.8.737.737,0,0,0,1.1-.984,9.778,9.778,0,1,1,1.785,1.562Z"/>
    </g>
  </g>
</svg>
