<svg xmlns="http://www.w3.org/2000/svg" xmlns:xlink="http://www.w3.org/1999/xlink" width="108.914" height="108.914" viewBox="0 0 108.914 108.914">
  <defs>
    <filter id="Trazado_874925" x="0" y="0" width="108.914" height="108.914" filterUnits="userSpaceOnUse">
      <feOffset dy="3" input="SourceAlpha"/>
      <feGaussianBlur stdDeviation="3" result="blur"/>
      <feFlood flood-opacity="0.161"/>
      <feComposite operator="in" in2="blur"/>
      <feComposite in="SourceGraphic"/>
    </filter>
  </defs>
  <g id="Grupo_1108669" data-name="Grupo 1108669" transform="translate(-423.758 -13932.364)">
    <g id="Grupo_1108577" data-name="Grupo 1108577" transform="translate(-374.131 11982.88)">
      <g id="Grupo_1098742" data-name="Grupo 1098742" transform="translate(806.889 1955.484)">
        <g transform="matrix(1, 0, 0, 1, -9, -6)" filter="url(#Trazado_874925)">
          <g id="Trazado_874925-2" data-name="Trazado 874925" transform="translate(9 6)" fill="#ffcd80" opacity="0.859">
            <path d="M 45.45676803588867 89.41407012939453 C 39.52198028564453 89.41407012939453 33.76551818847656 88.25206756591797 28.34726715087891 85.96034240722656 C 23.11311721801758 83.74648284912109 18.41204261779785 80.57682800292969 14.37464332580566 76.5394287109375 C 10.33724308013916 72.50202941894531 7.167593002319336 67.80095672607422 4.953730583190918 62.56679534912109 C 2.662005424499512 57.14855575561523 1.500005483627319 51.39208221435547 1.500005483627319 45.45729446411133 C 1.500005483627319 39.52198028564453 2.662005424499512 33.76551818847656 4.953730583190918 28.34726905822754 C 7.167593002319336 23.11310577392578 10.33724308013916 18.41203117370605 14.37464332580566 14.37464332580566 C 18.41204261779785 10.33724403381348 23.11311721801758 7.167593955993652 28.34726715087891 4.953731060028076 C 33.76551818847656 2.662006139755249 39.52198028564453 1.500006198883057 45.45676803588867 1.500006198883057 C 51.39155578613281 1.500006198883057 57.14802932739258 2.662006139755249 62.56626892089844 4.953731060028076 C 67.80043029785156 7.167593955993652 72.50150299072266 10.33724403381348 76.53890228271484 14.37464332580566 C 80.57630920410156 18.41203117370605 83.74595642089844 23.11310577392578 85.95981597900391 28.34726905822754 C 88.25154113769531 33.76551818847656 89.41354370117188 39.52198028564453 89.41354370117188 45.45676803588867 C 89.41354370117188 51.39208221435547 88.25154113769531 57.14855575561523 85.95981597900391 62.56679534912109 C 83.74595642089844 67.80095672607422 80.57630920410156 72.50202941894531 76.53890228271484 76.5394287109375 C 72.50150299072266 80.57682800292969 67.80043029785156 83.74648284912109 62.56626892089844 85.96034240722656 C 57.14802932739258 88.25206756591797 51.39155578613281 89.41407012939453 45.45676803588867 89.41407012939453 Z" stroke="none"/>
            <path d="M 45.45676803588867 3 C 39.72381210327148 3 34.1639404296875 4.12213134765625 28.93159484863281 6.335227966308594 C 23.87622833251953 8.473472595214844 19.33542633056641 11.53517150878906 15.43529510498047 15.435302734375 C 11.53517150878906 19.33543395996094 8.473464965820312 23.87622833251953 6.335227966308594 28.93160247802734 C 4.122123718261719 34.16394424438477 3 39.72381591796875 3 45.4572868347168 C 3 51.19024658203125 4.122123718261719 56.75011825561523 6.335227966308594 61.98246002197266 C 8.473464965820312 67.03782653808594 11.53517150878906 71.57862854003906 15.43529510498047 75.478759765625 C 19.33542633056641 79.37889099121094 23.87622833251953 82.44058990478516 28.93159484863281 84.57883453369141 C 34.1639404296875 86.79193115234375 39.72381210327148 87.9140625 45.45676803588867 87.9140625 C 51.18972396850586 87.9140625 56.74959564208984 86.79193115234375 61.98194122314453 84.57883453369141 C 67.03730773925781 82.44058990478516 71.57810974121094 79.37889099121094 75.47824096679688 75.478759765625 C 79.37837219238281 71.57862854003906 82.44007110595703 67.03782653808594 84.57830810546875 61.98246002197266 C 86.79141235351562 56.75011825561523 87.91353607177734 51.19024658203125 87.91353607177734 45.4567756652832 C 87.91353607177734 39.72381591796875 86.79141235351562 34.16394424438477 84.57830810546875 28.93160247802734 C 82.44007110595703 23.87622833251953 79.37837219238281 19.33543395996094 75.47824096679688 15.435302734375 C 71.57810974121094 11.53517150878906 67.03730773925781 8.473472595214844 61.98194122314453 6.335227966308594 C 56.74959564208984 4.12213134765625 51.18972396850586 3 45.45676803588867 3 M 45.45676803588867 0 C 70.56185150146484 0 90.91353607177734 20.35169219970703 90.91353607177734 45.4567756652832 L 90.91353607177734 45.4572868347168 C 90.91353607177734 70.5623779296875 70.56185150146484 90.9140625 45.45676803588867 90.9140625 C 20.3516845703125 90.9140625 0 70.5623779296875 0 45.4572868347168 L 0 45.4567756652832 C 0 20.35169219970703 20.3516845703125 0 45.45676803588867 0 Z" stroke="none" fill="#fff"/>
          </g>
        </g>
        <g id="Trazado_874923" data-name="Trazado 874923" transform="translate(0 0)" fill="none">
          <path d="M45.457,0A45.457,45.457,0,0,1,90.914,45.457h0A45.457,45.457,0,0,1,0,45.457H0A45.457,45.457,0,0,1,45.457,0Z" stroke="none"/>
          <path d="M 45.45676803588867 3 C 39.72381210327148 3 34.1639404296875 4.12213134765625 28.93159484863281 6.335227966308594 C 23.87622833251953 8.473472595214844 19.33542633056641 11.53517150878906 15.43529510498047 15.435302734375 C 11.53517150878906 19.33543395996094 8.473464965820312 23.87622833251953 6.335227966308594 28.93160247802734 C 4.122123718261719 34.16394424438477 3 39.72381591796875 3 45.4572868347168 C 3 51.19024658203125 4.122123718261719 56.75011825561523 6.335227966308594 61.98246002197266 C 8.473464965820312 67.03782653808594 11.53517150878906 71.57862854003906 15.43529510498047 75.478759765625 C 19.33542633056641 79.37889099121094 23.87622833251953 82.44058990478516 28.93159484863281 84.57883453369141 C 34.1639404296875 86.79193115234375 39.72381210327148 87.9140625 45.45676803588867 87.9140625 C 51.18972396850586 87.9140625 56.74959564208984 86.79193115234375 61.98194122314453 84.57883453369141 C 67.03730773925781 82.44058990478516 71.57810974121094 79.37889099121094 75.47824096679688 75.478759765625 C 79.37837219238281 71.57862854003906 82.44007110595703 67.03782653808594 84.57830810546875 61.98246002197266 C 86.79141235351562 56.75011825561523 87.91353607177734 51.19024658203125 87.91353607177734 45.4567756652832 C 87.91353607177734 39.72381591796875 86.79141235351562 34.16394424438477 84.57830810546875 28.93160247802734 C 82.44007110595703 23.87622833251953 79.37837219238281 19.33543395996094 75.47824096679688 15.435302734375 C 71.57810974121094 11.53517150878906 67.03730773925781 8.473472595214844 61.98194122314453 6.335227966308594 C 56.74959564208984 4.12213134765625 51.18972396850586 3 45.45676803588867 3 M 45.45676803588867 0 C 70.56185150146484 0 90.91353607177734 20.35169219970703 90.91353607177734 45.4567756652832 L 90.91353607177734 45.4572868347168 C 90.91353607177734 70.5623779296875 70.56185150146484 90.9140625 45.45676803588867 90.9140625 C 20.3516845703125 90.9140625 0 70.5623779296875 0 45.4572868347168 L 0 45.4567756652832 C 0 20.35169219970703 20.3516845703125 0 45.45676803588867 0 Z" stroke="none" fill="#fff"/>
        </g>
      </g>
    </g>
    <g id="transport" transform="translate(438.314 13849.809)">
      <path id="Trazado_896997" data-name="Trazado 896997" d="M49.5,131.293H32.565a.861.861,0,0,1-.861-.861v-9.041a.861.861,0,0,1,.861-.861H49.5a.861.861,0,0,1,.861.861v9.041A.861.861,0,0,1,49.5,131.293Zm5.322-.861v-9.041a.861.861,0,0,1,.861-.861H68.664a.861.861,0,0,1,.818.593l2.961,9.041a.861.861,0,0,1-.818,1.129H55.685A.861.861,0,0,1,54.824,130.433Zm34.622,3.518-10.329-1.108a2.868,2.868,0,0,1-2.42-1.959L72.71,118.713a2.994,2.994,0,0,0-2.843-2.06H30.673a2.984,2.984,0,0,0-2.983,2.989v25.284h10.8a6.282,6.282,0,0,1,10.23,0H71.17a6.311,6.311,0,0,1,10.227,0h9.825v-9A1.993,1.993,0,0,0,89.446,133.951Z" transform="translate(-16.659 -1.785)" fill="#efbf27"/>
      <path id="Trazado_896998" data-name="Trazado 896998" d="M184.71,207.31H182.7a6.311,6.311,0,0,0-11.423-3.586,6.133,6.133,0,0,0-1.2,3.586H168.06c0-.034,0-.066.006-.1a8.458,8.458,0,0,1,.866-3.485,8.325,8.325,0,0,1,14.911,0,8.5,8.5,0,0,1,.861,3.483C184.707,207.241,184.71,207.276,184.71,207.31Z" transform="translate(-116.762 -60.583)" fill="#e8a61e"/>
      <path id="Trazado_896999" data-name="Trazado 896999" d="M70.78,207.253H68.766a6.309,6.309,0,0,0-11.423-3.586h-.006a6.4,6.4,0,0,0-1.2,3.586H54.13c0-.034,0-.069.006-.1A8.421,8.421,0,0,1,55,203.667s0,0,0,0a8.359,8.359,0,0,1,7.479-4.641,8.249,8.249,0,0,1,7.424,4.644,8.448,8.448,0,0,1,.869,3.483C70.777,207.184,70.78,207.219,70.78,207.253Z" transform="translate(-35.514 -60.526)" fill="#e8a61e"/>
      <path id="Trazado_897000" data-name="Trazado 897000" d="M60.341,131.029v9.04a.861.861,0,0,1-.861.861H42.546a.861.861,0,0,1-.861-.861v-9.04a.861.861,0,0,1,.861-.861H59.481A.861.861,0,0,1,60.341,131.029Z" transform="translate(-26.639 -11.423)" fill="#72c1e8"/>
      <path id="Trazado_897001" data-name="Trazado 897001" d="M12.811,161.733v12.034H8.325a1.5,1.5,0,0,1-1.495-1.495v-9.045a1.5,1.5,0,0,1,1.495-1.495h4.487Z" transform="translate(-1.783 -33.933)" fill="#878787"/>
      <path id="Trazado_897002" data-name="Trazado 897002" d="M20.69,161.733v12.034H22.7V161.733Z" transform="translate(-11.667 -33.933)" fill="#4c4945"/>
      <path id="Trazado_897003" data-name="Trazado 897003" d="M73.736,212.246a6.314,6.314,0,0,0-11.428-3.588,6.314,6.314,0,1,0,11.428,3.588Z" transform="translate(-40.481 -65.52)" fill="#4c4945"/>
      <circle id="Elipse_11688" data-name="Elipse 11688" cx="3.072" cy="3.072" r="3.072" transform="translate(23.869 143.759)" fill="#efefef"/>
      <path id="Trazado_897004" data-name="Trazado 897004" d="M139.075,140.93h-15.94a.861.861,0,0,1-.861-.861v-9.04a.861.861,0,0,1,.861-.861h12.98a.861.861,0,0,1,.818.593l2.96,9.04A.861.861,0,0,1,139.075,140.93Z" transform="translate(-84.11 -11.423)" fill="#72c1e8"/>
      <path id="Trazado_897005" data-name="Trazado 897005" d="M38.478,215.2a0,0,0,0,1,0,0,6.4,6.4,0,0,0-1.2,3.586h-8.1A1.5,1.5,0,0,1,27.68,217.3V215.2Z" transform="translate(-16.652 -72.065)" fill="#878787"/>
      <path id="Trazado_897006" data-name="Trazado 897006" d="M123.443,215.213a6.133,6.133,0,0,0-1.2,3.586H102.183a6.274,6.274,0,0,0-1.193-3.586Z" transform="translate(-68.932 -72.072)" fill="#878787"/>
      <path id="Trazado_897007" data-name="Trazado 897007" d="M55,215.2H57.34a0,0,0,0,1,0,0,6.4,6.4,0,0,0-1.2,3.586H54.13c0-.034,0-.069.006-.1A8.421,8.421,0,0,1,55,215.206Z" transform="translate(-35.514 -72.065)" fill="#4c4944"/>
      <path id="Trazado_897008" data-name="Trazado 897008" d="M104.2,218.8h-2.014a6.274,6.274,0,0,0-1.193-3.586h2.332a8.448,8.448,0,0,1,.869,3.483C104.194,218.73,104.2,218.764,104.2,218.8Z" transform="translate(-68.932 -72.072)" fill="#4c4944"/>
      <path id="Trazado_897009" data-name="Trazado 897009" d="M181.353,218.735a6.317,6.317,0,0,1-6.312-6.43,6.14,6.14,0,0,1,1.2-3.587,6.313,6.313,0,1,1,5.112,10.017Z" transform="translate(-121.731 -65.577)" fill="#4c4945"/>
      <path id="Trazado_897010" data-name="Trazado 897010" d="M224.735,215.213v1.6a1.987,1.987,0,0,1-1.988,1.988h-6.641a6.262,6.262,0,0,0-1.2-3.586Z" transform="translate(-150.172 -72.072)" fill="#878787"/>
      <path id="Trazado_897011" data-name="Trazado 897011" d="M168.932,215.213h2.341a6.133,6.133,0,0,0-1.2,3.586H168.06c0-.034,0-.066.006-.1A8.458,8.458,0,0,1,168.932,215.213Z" transform="translate(-116.762 -72.072)" fill="#4c4944"/>
      <path id="Trazado_897012" data-name="Trazado 897012" d="M218.12,218.8h-2.014a6.262,6.262,0,0,0-1.2-3.586h2.344a8.5,8.5,0,0,1,.861,3.483C218.117,218.73,218.12,218.764,218.12,218.8Z" transform="translate(-150.172 -72.072)" fill="#4c4944"/>
      <circle id="Elipse_11689" data-name="Elipse 11689" cx="3.072" cy="3.072" r="3.072" transform="translate(56.552 143.759)" fill="#efefef"/>
      <path id="Trazado_897013" data-name="Trazado 897013" d="M233.245,195.208h-4.738a1.668,1.668,0,0,1-1.668-1.668v-1.2a1.147,1.147,0,0,1,1.147-1.147h5.258Z" transform="translate(-158.679 -54.939)" fill="#fff"/>
      <path id="Trazado_897016" data-name="Trazado 897016" d="M35.907,183.06a.717.717,0,0,1-.717-.717v-.861a.717.717,0,1,1,1.434,0v.861A.717.717,0,0,1,35.907,183.06Zm0-3.729a.717.717,0,0,1-.717-.717V173.86a.717.717,0,1,1,1.434,0v4.753A.717.717,0,0,1,35.907,179.331Z" transform="translate(-22.007 -42.07)" fill="#f7e4b0"/>
      <path id="Trazado_897017" data-name="Trazado 897017" d="M60.56,143.315a.717.717,0,0,1,0-1.014l2.684-2.684a.717.717,0,0,1,1.014,1.014l-2.684,2.684A.717.717,0,0,1,60.56,143.315Z" transform="translate(-39.95 -18.011)" fill="#c5e5ff"/>
      <path id="Trazado_897018" data-name="Trazado 897018" d="M73.906,147.994a.717.717,0,0,1,0-1.014l2.684-2.684A.717.717,0,1,1,77.6,145.31l-2.684,2.684A.717.717,0,0,1,73.906,147.994Z" transform="translate(-49.468 -21.348)" fill="#c5e5ff"/>
      <path id="Trazado_897019" data-name="Trazado 897019" d="M136.136,143.315a.717.717,0,0,1,0-1.014l2.684-2.684a.717.717,0,0,1,1.014,1.014l-2.684,2.684A.717.717,0,0,1,136.136,143.315Z" transform="translate(-93.846 -18.011)" fill="#c5e5ff"/>
      <path id="Trazado_897020" data-name="Trazado 897020" d="M149.481,147.994a.717.717,0,0,1,0-1.014l2.684-2.684a.717.717,0,1,1,1.014,1.014l-2.684,2.684A.717.717,0,0,1,149.481,147.994Z" transform="translate(-103.363 -21.348)" fill="#c5e5ff"/>
      <path id="Trazado_897021" data-name="Trazado 897021" d="M124.055,180.207a.717.717,0,1,0,0,1.434h2.691a.717.717,0,1,0,0-1.434Z" transform="translate(-84.869 -47.108)"/>
      <path id="Trazado_897022" data-name="Trazado 897022" d="M73.732,222.444a3.789,3.789,0,1,0-3.789-3.789A3.793,3.793,0,0,0,73.732,222.444Zm0-6.144a2.355,2.355,0,1,1-2.355,2.355A2.357,2.357,0,0,1,73.732,216.3Z" transform="translate(-46.791 -71.824)"/>
      <path id="Trazado_897023" data-name="Trazado 897023" d="M187.663,222.444a3.789,3.789,0,1,0-3.789-3.789A3.793,3.793,0,0,0,187.663,222.444Zm0-6.144a2.355,2.355,0,1,1-2.355,2.355A2.357,2.357,0,0,1,187.663,216.3Z" transform="translate(-128.039 -71.824)"/>
      <path id="Trazado_897024" data-name="Trazado 897024" d="M39.26,128.727c-.126.358-.091-.317-.091,9.561a1.582,1.582,0,0,0,1.578,1.578H57.686a1.582,1.582,0,0,0,1.578-1.578v-9.042a1.583,1.583,0,0,0-1.581-1.578H40.748A1.579,1.579,0,0,0,39.26,128.727Zm18.423.376a.146.146,0,0,1,.143.143v9.039a.142.142,0,0,1-.143.143H40.75a.144.144,0,0,1-.145-.143v-9.04a.144.144,0,0,1,.145-.143Z" transform="translate(-24.842 -9.64)"/>
      <path id="Trazado_897025" data-name="Trazado 897025" d="M138.789,137.795l-2.96-9.04a1.576,1.576,0,0,0-1.5-1.087h-12.98a1.584,1.584,0,0,0-1.579,1.578v9.039a1.586,1.586,0,0,0,1.581,1.581h15.938A1.584,1.584,0,0,0,138.789,137.795Zm-17.441.634a.141.141,0,0,1-.141-.141v-9.042a.144.144,0,0,1,.143-.143h12.978a.145.145,0,0,1,.138.1l2.959,9.038a.146.146,0,0,1-.137.187H121.348Z" transform="translate(-82.325 -9.64)"/>
      <circle id="Elipse_11690" data-name="Elipse 11690" cx="0.717" cy="0.717" r="0.717" transform="translate(19.62 114.15)"/>
      <path id="Trazado_897026" data-name="Trazado 897026" d="M17.468,114.15H14.015a3.713,3.713,0,0,0-3.7,3.706v9.226H6.542a2.214,2.214,0,0,0-2.212,2.212v9.045a2.214,2.214,0,0,0,2.212,2.212h3.772c0,3.065,0,1.616,0,4.682a2.214,2.214,0,0,0,2.212,2.212h7.388a7.058,7.058,0,0,0,14.06,0H52.594a7.057,7.057,0,0,0,14.058,0h5.923a2.708,2.708,0,0,0,2.705-2.705v-10.6a2.709,2.709,0,0,0-2.413-2.688l-10.333-1.107a2.153,2.153,0,0,1-1.813-1.472l-3.987-12.169a3.71,3.71,0,0,0-3.526-2.556h-30a.717.717,0,1,0,0,1.434h30a2.277,2.277,0,0,1,2.163,1.569l3.985,12.169a3.6,3.6,0,0,0,3.026,2.45l10.327,1.107a1.275,1.275,0,0,1,1.136,1.262v1.391H69.307a1.868,1.868,0,0,0-1.865,1.865v1.2a2.387,2.387,0,0,0,2.384,2.384h4.019v1.437H65.1a6.961,6.961,0,0,0-5.468-2.613h-.014a6.992,6.992,0,0,0-5.462,2.613H32.534a7.234,7.234,0,0,0-11.129,0H11.748V117.856a2.274,2.274,0,0,1,2.266-2.272h3.454a.717.717,0,0,0,0-1.434Zm-7.157,24.967H6.542a.778.778,0,0,1-.777-.777v-9.045a.778.778,0,0,1,.777-.777h3.769Zm59.516.435a.954.954,0,0,1-.95-.95v-1.2a.43.43,0,0,1,.43-.43h4.538v2.585Zm4.019,4.306v.881a1.273,1.273,0,0,1-1.271,1.271H66.6a7.648,7.648,0,0,0-.6-2.151Zm-14.22-2.61a5.57,5.57,0,0,1,5.591,5.5l0,.037a5.605,5.605,0,1,1-5.594-5.536Zm-6.383,2.61a7.412,7.412,0,0,0-.6,2.151H33.923a7.45,7.45,0,0,0-.545-2.151Zm-31.9,2.924q0-.018,0-.035c0-.01,0-.02,0-.031a5.6,5.6,0,0,1,11.189.03c0,.013,0,.026,0,.039a5.6,5.6,0,1,1-11.2,0Zm-.811-2.924a7.242,7.242,0,0,0-.571,2.152H12.523a.778.778,0,0,1-.777-.777v-1.375Z" transform="translate(0 0)"/>
    </g>
  </g>
</svg>
