<svg xmlns="http://www.w3.org/2000/svg" xmlns:xlink="http://www.w3.org/1999/xlink" width="108.914" height="108.914" viewBox="0 0 108.914 108.914">
  <defs>
    <filter id="Trazado_874925" x="0" y="0" width="108.914" height="108.914" filterUnits="userSpaceOnUse">
      <feOffset dy="3" input="SourceAlpha"/>
      <feGaussianBlur stdDeviation="3" result="blur"/>
      <feFlood flood-opacity="0.161"/>
      <feComposite operator="in" in2="blur"/>
      <feComposite in="SourceGraphic"/>
    </filter>
  </defs>
  <g id="Grupo_1108591" data-name="Grupo 1108591" transform="translate(-745.457 -13932.364)">
    <g id="Grupo_1107765" data-name="Grupo 1107765" transform="translate(-52.432 11982.88)">
      <g id="Grupo_1098742" data-name="Grupo 1098742" transform="translate(806.889 1955.484)">
        <g transform="matrix(1, 0, 0, 1, -9, -6)" filter="url(#Trazado_874925)">
          <g id="Trazado_874925-2" data-name="Trazado 874925" transform="translate(9 6)" fill="#ffcd80" opacity="0.859">
            <path d="M 45.45676803588867 89.41407012939453 C 39.52198028564453 89.41407012939453 33.76551818847656 88.25206756591797 28.34726715087891 85.96034240722656 C 23.11311721801758 83.74648284912109 18.41204261779785 80.57682800292969 14.37464332580566 76.5394287109375 C 10.33724308013916 72.50202941894531 7.167593002319336 67.80095672607422 4.953730583190918 62.56679534912109 C 2.662005424499512 57.14855575561523 1.500005483627319 51.39208221435547 1.500005483627319 45.45729446411133 C 1.500005483627319 39.52198028564453 2.662005424499512 33.76551818847656 4.953730583190918 28.34726905822754 C 7.167593002319336 23.11310577392578 10.33724308013916 18.41203117370605 14.37464332580566 14.37464332580566 C 18.41204261779785 10.33724403381348 23.11311721801758 7.167593955993652 28.34726715087891 4.953731060028076 C 33.76551818847656 2.662006139755249 39.52198028564453 1.500006198883057 45.45676803588867 1.500006198883057 C 51.39155578613281 1.500006198883057 57.14802932739258 2.662006139755249 62.56626892089844 4.953731060028076 C 67.80043029785156 7.167593955993652 72.50150299072266 10.33724403381348 76.53890228271484 14.37464332580566 C 80.57630920410156 18.41203117370605 83.74595642089844 23.11310577392578 85.95981597900391 28.34726905822754 C 88.25154113769531 33.76551818847656 89.41354370117188 39.52198028564453 89.41354370117188 45.45676803588867 C 89.41354370117188 51.39208221435547 88.25154113769531 57.14855575561523 85.95981597900391 62.56679534912109 C 83.74595642089844 67.80095672607422 80.57630920410156 72.50202941894531 76.53890228271484 76.5394287109375 C 72.50150299072266 80.57682800292969 67.80043029785156 83.74648284912109 62.56626892089844 85.96034240722656 C 57.14802932739258 88.25206756591797 51.39155578613281 89.41407012939453 45.45676803588867 89.41407012939453 Z" stroke="none"/>
            <path d="M 45.45676803588867 3 C 39.72381210327148 3 34.1639404296875 4.12213134765625 28.93159484863281 6.335227966308594 C 23.87622833251953 8.473472595214844 19.33542633056641 11.53517150878906 15.43529510498047 15.435302734375 C 11.53517150878906 19.33543395996094 8.473464965820312 23.87622833251953 6.335227966308594 28.93160247802734 C 4.122123718261719 34.16394424438477 3 39.72381591796875 3 45.4572868347168 C 3 51.19024658203125 4.122123718261719 56.75011825561523 6.335227966308594 61.98246002197266 C 8.473464965820312 67.03782653808594 11.53517150878906 71.57862854003906 15.43529510498047 75.478759765625 C 19.33542633056641 79.37889099121094 23.87622833251953 82.44058990478516 28.93159484863281 84.57883453369141 C 34.1639404296875 86.79193115234375 39.72381210327148 87.9140625 45.45676803588867 87.9140625 C 51.18972396850586 87.9140625 56.74959564208984 86.79193115234375 61.98194122314453 84.57883453369141 C 67.03730773925781 82.44058990478516 71.57810974121094 79.37889099121094 75.47824096679688 75.478759765625 C 79.37837219238281 71.57862854003906 82.44007110595703 67.03782653808594 84.57830810546875 61.98246002197266 C 86.79141235351562 56.75011825561523 87.91353607177734 51.19024658203125 87.91353607177734 45.4567756652832 C 87.91353607177734 39.72381591796875 86.79141235351562 34.16394424438477 84.57830810546875 28.93160247802734 C 82.44007110595703 23.87622833251953 79.37837219238281 19.33543395996094 75.47824096679688 15.435302734375 C 71.57810974121094 11.53517150878906 67.03730773925781 8.473472595214844 61.98194122314453 6.335227966308594 C 56.74959564208984 4.12213134765625 51.18972396850586 3 45.45676803588867 3 M 45.45676803588867 0 C 70.56185150146484 0 90.91353607177734 20.35169219970703 90.91353607177734 45.4567756652832 L 90.91353607177734 45.4572868347168 C 90.91353607177734 70.5623779296875 70.56185150146484 90.9140625 45.45676803588867 90.9140625 C 20.3516845703125 90.9140625 0 70.5623779296875 0 45.4572868347168 L 0 45.4567756652832 C 0 20.35169219970703 20.3516845703125 0 45.45676803588867 0 Z" stroke="none" fill="#fff"/>
          </g>
        </g>
        <g id="Trazado_874923" data-name="Trazado 874923" transform="translate(0 0)" fill="none">
          <path d="M45.457,0A45.457,45.457,0,0,1,90.914,45.457h0A45.457,45.457,0,0,1,0,45.457H0A45.457,45.457,0,0,1,45.457,0Z" stroke="none"/>
          <path d="M 45.45676803588867 3 C 39.72381210327148 3 34.1639404296875 4.12213134765625 28.93159484863281 6.335227966308594 C 23.87622833251953 8.473472595214844 19.33542633056641 11.53517150878906 15.43529510498047 15.435302734375 C 11.53517150878906 19.33543395996094 8.473464965820312 23.87622833251953 6.335227966308594 28.93160247802734 C 4.122123718261719 34.16394424438477 3 39.72381591796875 3 45.4572868347168 C 3 51.19024658203125 4.122123718261719 56.75011825561523 6.335227966308594 61.98246002197266 C 8.473464965820312 67.03782653808594 11.53517150878906 71.57862854003906 15.43529510498047 75.478759765625 C 19.33542633056641 79.37889099121094 23.87622833251953 82.44058990478516 28.93159484863281 84.57883453369141 C 34.1639404296875 86.79193115234375 39.72381210327148 87.9140625 45.45676803588867 87.9140625 C 51.18972396850586 87.9140625 56.74959564208984 86.79193115234375 61.98194122314453 84.57883453369141 C 67.03730773925781 82.44058990478516 71.57810974121094 79.37889099121094 75.47824096679688 75.478759765625 C 79.37837219238281 71.57862854003906 82.44007110595703 67.03782653808594 84.57830810546875 61.98246002197266 C 86.79141235351562 56.75011825561523 87.91353607177734 51.19024658203125 87.91353607177734 45.4567756652832 C 87.91353607177734 39.72381591796875 86.79141235351562 34.16394424438477 84.57830810546875 28.93160247802734 C 82.44007110595703 23.87622833251953 79.37837219238281 19.33543395996094 75.47824096679688 15.435302734375 C 71.57810974121094 11.53517150878906 67.03730773925781 8.473472595214844 61.98194122314453 6.335227966308594 C 56.74959564208984 4.12213134765625 51.18972396850586 3 45.45676803588867 3 M 45.45676803588867 0 C 70.56185150146484 0 90.91353607177734 20.35169219970703 90.91353607177734 45.4567756652832 L 90.91353607177734 45.4572868347168 C 90.91353607177734 70.5623779296875 70.56185150146484 90.9140625 45.45676803588867 90.9140625 C 20.3516845703125 90.9140625 0 70.5623779296875 0 45.4572868347168 L 0 45.4567756652832 C 0 20.35169219970703 20.3516845703125 0 45.45676803588867 0 Z" stroke="none" fill="#fff"/>
        </g>
      </g>
    </g>
    <g id="bombi" transform="translate(757.043 13952.816)">
      <g id="Grupo_1108589" data-name="Grupo 1108589" transform="translate(25.313 0.856)">
        <path id="Trazado_897027" data-name="Trazado 897027" d="M63.275,20.282A18.536,18.536,0,0,0,44.936,1.748,18.882,18.882,0,0,0,26.21,19.788,18.522,18.522,0,0,0,35.261,36.21a.085.085,0,0,1,.042.074v4.745h18.87V36.235a18.523,18.523,0,0,0,9.1-15.953Z" transform="translate(-26.203 -1.747)" fill="#f3f5f9"/>
        <path id="Trazado_897028" data-name="Trazado 897028" d="M74.583,17.784a.856.856,0,0,1-.713-.38,12.791,12.791,0,0,0-10.479-5.688A.858.858,0,0,1,63.4,10h.009A14.51,14.51,0,0,1,75.3,16.449a.858.858,0,0,1-.712,1.336Z" transform="translate(-44.72 -5.953)" fill="#e1e6f0"/>
        <path id="Trazado_897029" data-name="Trazado 897029" d="M60.314,41.656H56.87a.859.859,0,0,0-.858.858v4.5h-3.9v-4.5a.858.858,0,0,0-.858-.858H47.808a3.314,3.314,0,0,0-3.31,3.31v.453a3.314,3.314,0,0,0,3.31,3.31h2.586V61.367a.858.858,0,0,0,1.716,0V48.729h3.9V61.367a.858.858,0,0,0,1.716,0V48.729h2.586a3.314,3.314,0,0,0,3.31-3.31v-.453A3.314,3.314,0,0,0,60.314,41.656Zm-9.92,5.357H47.808a1.6,1.6,0,0,1-1.593-1.594v-.453a1.6,1.6,0,0,1,1.594-1.594H50.4Zm11.513-1.594a1.6,1.6,0,0,1-1.594,1.594H57.728V43.372h2.586a1.6,1.6,0,0,1,1.593,1.594Z" transform="translate(-35.527 -22.085)" fill="#ff7f40"/>
        <path id="Trazado_897030" data-name="Trazado 897030" d="M60.942,87H41.365a2.573,2.573,0,0,1-2.573-2.572h0a2.573,2.573,0,0,1,2.573-2.573H60.942a2.573,2.573,0,0,1,2.573,2.573h0A2.573,2.573,0,0,1,60.942,87Z" transform="translate(-32.619 -42.571)" fill="#4d5e80"/>
        <rect id="Rectángulo_403059" data-name="Rectángulo 403059" width="24.723" height="5.145" rx="2.573" transform="translate(6.173 44.427)" fill="#3d4566"/>
        <path id="Trazado_897031" data-name="Trazado 897031" d="M60.942,107.981H41.365a2.573,2.573,0,0,1-2.573-2.573h0a2.573,2.573,0,0,1,2.573-2.573H60.942a2.573,2.573,0,0,1,2.573,2.573h0a2.573,2.573,0,0,1-2.573,2.573Z" transform="translate(-32.619 -53.264)" fill="#4d5e80"/>
        <path id="Trazado_897032" data-name="Trazado 897032" d="M46.125,113.328H63.656v2.412a3.923,3.923,0,0,1-3.923,3.923H50.048a3.923,3.923,0,0,1-3.923-3.923Z" transform="translate(-36.356 -58.611)" fill="#3d4566"/>
      </g>
      <g id="Grupo_1108590" data-name="Grupo 1108590" transform="translate(24.457 -0.001)">
        <path id="Trazado_897033" data-name="Trazado 897033" d="M28.156,22.156a.86.86,0,0,0,1.135-.433,17.938,17.938,0,0,1,1.177-2.2.858.858,0,0,0-1.453-.913,19.726,19.726,0,0,0-1.293,2.414A.859.859,0,0,0,28.156,22.156Z" transform="translate(-26.083 -9.278)"/>
        <path id="Trazado_897034" data-name="Trazado 897034" d="M63.242,19.391A19.239,19.239,0,0,0,31.967,4.229a.858.858,0,0,0,1.066,1.346A17.613,17.613,0,1,1,52.844,34.605a.859.859,0,0,0-.421.739v3.935H47.515V27.5H50.1a3.314,3.314,0,0,0,3.31-3.31v-.453a3.314,3.314,0,0,0-3.31-3.31H46.657a.859.859,0,0,0-.858.858v4.5H41.9v-4.5a.858.858,0,0,0-.858-.858H37.6a3.314,3.314,0,0,0-3.31,3.31v.453A3.314,3.314,0,0,0,37.6,27.5h2.586V39.279h-4.91V35.393a.945.945,0,0,0-.46-.811A17.723,17.723,0,0,1,26.177,18.92a.858.858,0,0,0-.834-.883.844.844,0,0,0-.88.834,19.445,19.445,0,0,0,9.092,16.955v3.5A3.422,3.422,0,0,0,31.8,45.283a3.415,3.415,0,0,0,0,5.145,3.426,3.426,0,0,0,2.262,6h.165v1.554a4.787,4.787,0,0,0,4.781,4.781h9.685a4.787,4.787,0,0,0,4.781-4.781V56.432h.165a3.426,3.426,0,0,0,2.262-6,3.416,3.416,0,0,0,0-5.145,3.423,3.423,0,0,0-1.758-5.962V35.826a19.5,19.5,0,0,0,9.1-16.435ZM47.515,22.143H50.1a1.6,1.6,0,0,1,1.593,1.594v.453A1.6,1.6,0,0,1,50.1,25.784H47.515ZM37.6,25.784A1.6,1.6,0,0,1,36,24.19v-.453A1.6,1.6,0,0,1,37.6,22.143h2.586v3.641ZM41.9,27.5h3.9V39.279H41.9Zm9.857,30.486a3.068,3.068,0,0,1-3.065,3.065H39.006a3.068,3.068,0,0,1-3.065-3.065V56.432H51.756Zm3.6-10.13a1.716,1.716,0,0,1-1.716,1.716h-2.2a.858.858,0,0,0,0,1.716h2.2a1.716,1.716,0,0,1,0,3.429H34.06a1.716,1.716,0,1,1,0-3.429H46.653a.858.858,0,1,0,0-1.716H34.06a1.716,1.716,0,1,1,0-3.429H53.637a1.716,1.716,0,0,1,1.714,1.712Zm0-5.145a1.716,1.716,0,0,1-1.716,1.716H34.06a1.716,1.716,0,1,1,0-3.429H53.637a1.716,1.716,0,0,1,1.714,1.713Z" transform="translate(-24.457 0.001)"/>
        <path id="Trazado_897035" data-name="Trazado 897035" d="M73.869,17.4a.858.858,0,1,0,1.425-.957A14.51,14.51,0,0,0,63.411,10H63.4a.858.858,0,0,0-.008,1.716A12.791,12.791,0,0,1,73.869,17.4Z" transform="translate(-43.866 -5.096)"/>
      </g>
    </g>
  </g>
</svg>
