<svg xmlns="http://www.w3.org/2000/svg" xmlns:xlink="http://www.w3.org/1999/xlink" width="108.914" height="108.914" viewBox="0 0 108.914 108.914">
  <defs>
    <filter id="Trazado_874925" x="0" y="0" width="108.914" height="108.914" filterUnits="userSpaceOnUse">
      <feOffset dy="3" input="SourceAlpha"/>
      <feGaussianBlur stdDeviation="3" result="blur"/>
      <feFlood flood-opacity="0.161"/>
      <feComposite operator="in" in2="blur"/>
      <feComposite in="SourceGraphic"/>
    </filter>
  </defs>
  <g id="Grupo_1108580" data-name="Grupo 1108580" transform="translate(-797.889 -1949.485)">
    <g id="Grupo_1098742" data-name="Grupo 1098742" transform="translate(806.889 1955.484)">
      <g transform="matrix(1, 0, 0, 1, -9, -6)" filter="url(#Trazado_874925)">
        <g id="Trazado_874925-2" data-name="Trazado 874925" transform="translate(9 6)" fill="#ffcd80" opacity="0.859">
          <path d="M 45.45676803588867 89.41407012939453 C 39.52198028564453 89.41407012939453 33.76551818847656 88.25206756591797 28.34726715087891 85.96034240722656 C 23.11311721801758 83.74648284912109 18.41204261779785 80.57682800292969 14.37464332580566 76.5394287109375 C 10.33724308013916 72.50202941894531 7.167593002319336 67.80095672607422 4.953730583190918 62.56679534912109 C 2.662005424499512 57.14855575561523 1.500005483627319 51.39208221435547 1.500005483627319 45.45729446411133 C 1.500005483627319 39.52198028564453 2.662005424499512 33.76551818847656 4.953730583190918 28.34726905822754 C 7.167593002319336 23.11310577392578 10.33724308013916 18.41203117370605 14.37464332580566 14.37464332580566 C 18.41204261779785 10.33724403381348 23.11311721801758 7.167593955993652 28.34726715087891 4.953731060028076 C 33.76551818847656 2.662006139755249 39.52198028564453 1.500006198883057 45.45676803588867 1.500006198883057 C 51.39155578613281 1.500006198883057 57.14802932739258 2.662006139755249 62.56626892089844 4.953731060028076 C 67.80043029785156 7.167593955993652 72.50150299072266 10.33724403381348 76.53890228271484 14.37464332580566 C 80.57630920410156 18.41203117370605 83.74595642089844 23.11310577392578 85.95981597900391 28.34726905822754 C 88.25154113769531 33.76551818847656 89.41354370117188 39.52198028564453 89.41354370117188 45.45676803588867 C 89.41354370117188 51.39208221435547 88.25154113769531 57.14855575561523 85.95981597900391 62.56679534912109 C 83.74595642089844 67.80095672607422 80.57630920410156 72.50202941894531 76.53890228271484 76.5394287109375 C 72.50150299072266 80.57682800292969 67.80043029785156 83.74648284912109 62.56626892089844 85.96034240722656 C 57.14802932739258 88.25206756591797 51.39155578613281 89.41407012939453 45.45676803588867 89.41407012939453 Z" stroke="none"/>
          <path d="M 45.45676803588867 3 C 39.72381210327148 3 34.1639404296875 4.12213134765625 28.93159484863281 6.335227966308594 C 23.87622833251953 8.473472595214844 19.33542633056641 11.53517150878906 15.43529510498047 15.435302734375 C 11.53517150878906 19.33543395996094 8.473464965820312 23.87622833251953 6.335227966308594 28.93160247802734 C 4.122123718261719 34.16394424438477 3 39.72381591796875 3 45.4572868347168 C 3 51.19024658203125 4.122123718261719 56.75011825561523 6.335227966308594 61.98246002197266 C 8.473464965820312 67.03782653808594 11.53517150878906 71.57862854003906 15.43529510498047 75.478759765625 C 19.33542633056641 79.37889099121094 23.87622833251953 82.44058990478516 28.93159484863281 84.57883453369141 C 34.1639404296875 86.79193115234375 39.72381210327148 87.9140625 45.45676803588867 87.9140625 C 51.18972396850586 87.9140625 56.74959564208984 86.79193115234375 61.98194122314453 84.57883453369141 C 67.03730773925781 82.44058990478516 71.57810974121094 79.37889099121094 75.47824096679688 75.478759765625 C 79.37837219238281 71.57862854003906 82.44007110595703 67.03782653808594 84.57830810546875 61.98246002197266 C 86.79141235351562 56.75011825561523 87.91353607177734 51.19024658203125 87.91353607177734 45.4567756652832 C 87.91353607177734 39.72381591796875 86.79141235351562 34.16394424438477 84.57830810546875 28.93160247802734 C 82.44007110595703 23.87622833251953 79.37837219238281 19.33543395996094 75.47824096679688 15.435302734375 C 71.57810974121094 11.53517150878906 67.03730773925781 8.473472595214844 61.98194122314453 6.335227966308594 C 56.74959564208984 4.12213134765625 51.18972396850586 3 45.45676803588867 3 M 45.45676803588867 0 C 70.56185150146484 0 90.91353607177734 20.35169219970703 90.91353607177734 45.4567756652832 L 90.91353607177734 45.4572868347168 C 90.91353607177734 70.5623779296875 70.56185150146484 90.9140625 45.45676803588867 90.9140625 C 20.3516845703125 90.9140625 0 70.5623779296875 0 45.4572868347168 L 0 45.4567756652832 C 0 20.35169219970703 20.3516845703125 0 45.45676803588867 0 Z" stroke="none" fill="#fff"/>
        </g>
      </g>
      <g id="Trazado_874923" data-name="Trazado 874923" transform="translate(0 0)" fill="none">
        <path d="M45.457,0A45.457,45.457,0,0,1,90.914,45.457h0A45.457,45.457,0,0,1,0,45.457H0A45.457,45.457,0,0,1,45.457,0Z" stroke="none"/>
        <path d="M 45.45676803588867 3 C 39.72381210327148 3 34.1639404296875 4.12213134765625 28.93159484863281 6.335227966308594 C 23.87622833251953 8.473472595214844 19.33542633056641 11.53517150878906 15.43529510498047 15.435302734375 C 11.53517150878906 19.33543395996094 8.473464965820312 23.87622833251953 6.335227966308594 28.93160247802734 C 4.122123718261719 34.16394424438477 3 39.72381591796875 3 45.4572868347168 C 3 51.19024658203125 4.122123718261719 56.75011825561523 6.335227966308594 61.98246002197266 C 8.473464965820312 67.03782653808594 11.53517150878906 71.57862854003906 15.43529510498047 75.478759765625 C 19.33542633056641 79.37889099121094 23.87622833251953 82.44058990478516 28.93159484863281 84.57883453369141 C 34.1639404296875 86.79193115234375 39.72381210327148 87.9140625 45.45676803588867 87.9140625 C 51.18972396850586 87.9140625 56.74959564208984 86.79193115234375 61.98194122314453 84.57883453369141 C 67.03730773925781 82.44058990478516 71.57810974121094 79.37889099121094 75.47824096679688 75.478759765625 C 79.37837219238281 71.57862854003906 82.44007110595703 67.03782653808594 84.57830810546875 61.98246002197266 C 86.79141235351562 56.75011825561523 87.91353607177734 51.19024658203125 87.91353607177734 45.4567756652832 C 87.91353607177734 39.72381591796875 86.79141235351562 34.16394424438477 84.57830810546875 28.93160247802734 C 82.44007110595703 23.87622833251953 79.37837219238281 19.33543395996094 75.47824096679688 15.435302734375 C 71.57810974121094 11.53517150878906 67.03730773925781 8.473472595214844 61.98194122314453 6.335227966308594 C 56.74959564208984 4.12213134765625 51.18972396850586 3 45.45676803588867 3 M 45.45676803588867 0 C 70.56185150146484 0 90.91353607177734 20.35169219970703 90.91353607177734 45.4567756652832 L 90.91353607177734 45.4572868347168 C 90.91353607177734 70.5623779296875 70.56185150146484 90.9140625 45.45676803588867 90.9140625 C 20.3516845703125 90.9140625 0 70.5623779296875 0 45.4572868347168 L 0 45.4567756652832 C 0 20.35169219970703 20.3516845703125 0 45.45676803588867 0 Z" stroke="none" fill="#fff"/>
      </g>
    </g>
    <g id="chef-masculino" transform="translate(766.177 1969.371)">
      <g id="Grupo_1107641" data-name="Grupo 1107641" transform="translate(64.2 0.925)">
        <path id="Trazado_894909" data-name="Trazado 894909" d="M81.6,326.81v21.913H71.7a.926.926,0,0,1-.908-1.112l.541-2.649.626-3.072L73.982,332a6.475,6.475,0,0,1,6.351-5.187Z" transform="translate(-70.775 -287.431)" fill="#ecf4ff"/>
        <path id="Trazado_894910" data-name="Trazado 894910" d="M121.066,326.81v21.913H115.79l2.058-21.615a6.468,6.468,0,0,1,1.949-.3Z" transform="translate(-110.239 -287.431)" fill="#ddeafb"/>
        <path id="Trazado_894911" data-name="Trazado 894911" d="M353.435,326.809v21.913h9.9a.927.927,0,0,0,.908-1.112L361.055,332a6.483,6.483,0,0,0-6.351-5.187Z" transform="translate(-318.576 -287.431)" fill="#ecf4ff"/>
        <path id="Trazado_894912" data-name="Trazado 894912" d="M364.244,347.611,361.056,332a6.483,6.483,0,0,0-6.351-5.187h-1.269v.072A6.482,6.482,0,0,1,358.828,332l3.188,15.615a.927.927,0,0,1-.908,1.112h2.228A.926.926,0,0,0,364.244,347.611Z" transform="translate(-318.577 -287.431)" fill="#ddeafb"/>
        <path id="Trazado_894913" data-name="Trazado 894913" d="M144.9,162.152a4.7,4.7,0,1,1-4.694-4.692A4.694,4.694,0,0,1,144.9,162.152Z" transform="translate(-127.527 -138.966)" fill="#d8ab8c"/>
        <path id="Trazado_894914" data-name="Trazado 894914" d="M162.421,162.152a4.7,4.7,0,0,1-6.921,4.133v-8.264a4.7,4.7,0,0,1,6.921,4.131Z" transform="translate(-145.051 -138.966)" fill="#c38778"/>
        <circle id="Elipse_11650" data-name="Elipse 11650" cx="4.693" cy="4.693" r="4.693" transform="translate(28.735 18.494)" fill="#d8ab8c"/>
        <path id="Trazado_894915" data-name="Trazado 894915" d="M333.912,157.459a4.7,4.7,0,0,0-1.114.134,4.693,4.693,0,0,1,0,9.118,4.693,4.693,0,1,0,1.114-9.252Z" transform="translate(-300.484 -138.965)" fill="#c38778"/>
        <path id="Trazado_894916" data-name="Trazado 894916" d="M185.724,153.687h-3.569a8.591,8.591,0,0,1-8.591-8.591v-12.16h20.751V145.1A8.591,8.591,0,0,1,185.724,153.687Z" transform="translate(-160.888 -117.467)" fill="#d8ab8c"/>
        <path id="Trazado_894917" data-name="Trazado 894917" d="M262.695,132.935V145.1a8.591,8.591,0,0,1-8.591,8.591h2.228a8.591,8.591,0,0,0,8.591-8.591v-12.16Z" transform="translate(-231.495 -117.466)" fill="#c38778"/>
        <path id="Trazado_894918" data-name="Trazado 894918" d="M173.563,132.935h20.751v4.191H173.563Z" transform="translate(-160.887 -117.466)" fill="#ecf4ff"/>
        <path id="Trazado_894919" data-name="Trazado 894919" d="M323.766,132.935h2.228v4.191h-2.228Z" transform="translate(-292.566 -117.466)" fill="#ddeafb"/>
        <path id="Trazado_894920" data-name="Trazado 894920" d="M85.583,449.089v3.072H75.316l.626-3.072Z" transform="translate(-74.756 -394.631)" fill="#fee45a"/>
        <path id="Trazado_894921" data-name="Trazado 894921" d="M162.376,12.778a5.531,5.531,0,0,0-9-4.053,1.858,1.858,0,0,1-2.333.012,5.527,5.527,0,0,0-6.973,0,1.856,1.856,0,0,1-2.333-.012,5.531,5.531,0,1,0-5.731,9.354,2.973,2.973,0,0,1,1.761,2.713v2.175h20.751V20.155A3.011,3.011,0,0,1,159.9,17.65a5.527,5.527,0,0,0,2.48-4.871Z" transform="translate(-125.094 -7.5)" fill="#ecf4ff"/>
        <g id="Grupo_1107640" data-name="Grupo 1107640" transform="translate(30.64 0)">
          <path id="Trazado_894922" data-name="Trazado 894922" d="M325.87,12.78a5.53,5.53,0,0,0-6.642-5.164,5.531,5.531,0,0,1,1.934,10.036,3.011,3.011,0,0,0-1.375,2.506V22.97h2.228V20.157a3.011,3.011,0,0,1,1.375-2.506,5.527,5.527,0,0,0,2.48-4.871Z" transform="translate(-319.228 -7.501)" fill="#ddeafb"/>
        </g>
        <path id="Trazado_894923" data-name="Trazado 894923" d="M118.694,452.161h4.917v-3.072h-4.625Z" transform="translate(-112.785 -394.631)" fill="#fedf30"/>
        <path id="Trazado_894924" data-name="Trazado 894924" d="M164.357,348.723H134.252l2.14-21.913h25.825Z" transform="translate(-126.424 -287.432)" fill="#ecf4ff"/>
        <path id="Trazado_894925" data-name="Trazado 894925" d="M345.176,326.81h-2.228l2.14,21.913h2.228Z" transform="translate(-309.383 -287.432)" fill="#ddeafb"/>
        <path id="Trazado_894926" data-name="Trazado 894926" d="M216.282,298.986h-13.1l1.372-3.427a.775.775,0,0,1,.72-.487h8.922a.775.775,0,0,1,.72.487Z" transform="translate(-186.849 -259.608)" fill="#d63030"/>
        <path id="Trazado_894927" data-name="Trazado 894927" d="M277.364,295.558a.775.775,0,0,0-.72-.487h-2.228a.775.775,0,0,1,.72.487l1.372,3.427h2.228Z" transform="translate(-249.302 -259.607)" fill="#d63030"/>
        <path id="Trazado_894928" data-name="Trazado 894928" d="M174.2,327.419l-1.291.3a.85.85,0,0,1-1.02-1.015l.292-1.292a5.021,5.021,0,0,1,3.768-3.787l1.291-.3a.85.85,0,0,1,1.02,1.015l-.292,1.292A5.021,5.021,0,0,1,174.2,327.419Z" transform="translate(-159.404 -282.603)" fill="#fb5858"/>
        <path id="Trazado_894929" data-name="Trazado 894929" d="M177.246,321.321l-1.29.3q-.174.041-.344.092a.831.831,0,0,1,.1.624l-.291,1.292a5.019,5.019,0,0,1-2.964,3.529.41.41,0,0,1-.565-.442.831.831,0,0,0,.105.608.845.845,0,0,0,.919.391l1.29-.3a5.02,5.02,0,0,0,3.769-3.787l.291-1.292A.85.85,0,0,0,177.246,321.321Z" transform="translate(-159.407 -282.6)" fill="#f44545"/>
        <path id="Trazado_894930" data-name="Trazado 894930" d="M255.894,327.419l1.291.3a.85.85,0,0,0,1.02-1.015l-.292-1.292a5.021,5.021,0,0,0-3.768-3.787l-1.291-.3a.85.85,0,0,0-1.02,1.015l.292,1.292A5.021,5.021,0,0,0,255.894,327.419Z" transform="translate(-229.487 -282.603)" fill="#fb5858"/>
        <path id="Trazado_894931" data-name="Trazado 894931" d="M258.48,326.7l-.291-1.292a5.02,5.02,0,0,0-3.769-3.787l-1.29-.3a.855.855,0,0,0-1,.576.288.288,0,0,1,.36-.18,5.022,5.022,0,0,1,3.406,3.689l.291,1.292a.832.832,0,0,1-.142.686l.127.031,1.29.3A.85.85,0,0,0,258.48,326.7Z" transform="translate(-229.762 -282.601)" fill="#f44545"/>
        <path id="Trazado_894932" data-name="Trazado 894932" d="M226.372,306.16h-1.545a.95.95,0,0,1-.95-.95v-3.057a.95.95,0,0,1,.95-.95h1.545a.95.95,0,0,1,.95.95v3.057A.95.95,0,0,1,226.372,306.16Z" transform="translate(-204.996 -264.982)" fill="#fb5858"/>
      </g>
      <g id="Grupo_1107642" data-name="Grupo 1107642" transform="translate(63.275 0)">
        <circle id="Elipse_11651" data-name="Elipse 11651" cx="0.968" cy="0.968" r="0.968" transform="translate(23.237 51.13)"/>
        <circle id="Elipse_11652" data-name="Elipse 11652" cx="0.968" cy="0.968" r="0.968" transform="translate(23.237 55.286)"/>
        <path id="Trazado_894933" data-name="Trazado 894933" d="M216.951,44.025a.925.925,0,0,0,1.85,0,24.128,24.128,0,0,0-.791-5.7.925.925,0,0,0-1.782.5A22.507,22.507,0,0,1,216.951,44.025Z" transform="translate(-197.335 -33.004)"/>
        <path id="Trazado_894934" data-name="Trazado 894934" d="M276.208,44.951a.925.925,0,0,0,.925-.925,22.6,22.6,0,0,1,.724-5.205.925.925,0,0,0-1.782-.5,24.124,24.124,0,0,0-.791,5.7A.925.925,0,0,0,276.208,44.951Z" transform="translate(-249.137 -33.005)"/>
        <path id="Trazado_894935" data-name="Trazado 894935" d="M246.385,203.25h.85a.925.925,0,0,0,.212-1.825l.347-2.439a.925.925,0,0,0-1.831-.26l-.493,3.47a.956.956,0,0,0,.916,1.055Z" transform="translate(-222.995 -173.521)"/>
        <path id="Trazado_894936" data-name="Trazado 894936" d="M237.209,250.1a3.526,3.526,0,0,0,2.538-1.122.925.925,0,1,0-1.308-1.308,1.891,1.891,0,0,1-2.647-.017.925.925,0,0,0-1.278,1.337A4.028,4.028,0,0,0,237.209,250.1Z" transform="translate(-213.147 -216.89)"/>
        <path id="Trazado_894937" data-name="Trazado 894937" d="M110.772,60.919l-3.188-15.614a7.432,7.432,0,0,0-7.257-5.927H94.259l-.933-2.331a9.58,9.58,0,0,0,5.16-7.383,5.619,5.619,0,0,0,3.827-8.653.925.925,0,0,0-1.542,1.022,3.768,3.768,0,0,1-2.219,5.731V13.58a2.088,2.088,0,0,1,.96-1.734,6.414,6.414,0,0,0,2.894-5.684A6.456,6.456,0,0,0,91.9,1.431a.932.932,0,0,1-1.168.014,6.453,6.453,0,0,0-8.141,0,.931.931,0,0,1-1.167-.014,6.456,6.456,0,1,0-6.691,10.917,2.051,2.051,0,0,1,1.214,1.868v4.352a5.618,5.618,0,0,0,.064,11.092A9.471,9.471,0,0,0,80.893,36.9l-.922,2.3q-.228.078-.447.173H73.758A7.431,7.431,0,0,0,66.5,45.305L63.313,60.919a1.851,1.851,0,0,0,1.814,2.222h43.832a1.851,1.851,0,0,0,1.814-2.222ZM77.883,43.935a4.119,4.119,0,0,1,3.074-3.09l1.174-.271-.265,1.175a4.119,4.119,0,0,1-3.074,3.09l-1.174.271Zm6.123-5.84a.025.025,0,0,1,.025-.025h1.545a.025.025,0,0,1,.025.025v3.057a.025.025,0,0,1-.025.025H84.031a.025.025,0,0,1-.025-.025Zm3.735,3.654-.265-1.175,1.174.271a4.119,4.119,0,0,1,3.074,3.09l.265,1.175-1.174-.271a4.118,4.118,0,0,1-3.074-3.09Zm2.341-2.372a13.046,13.046,0,0,0-2.631-.677,3.132,3.132,0,0,0-.173-1.387H91.44l.826,2.064ZM75.493,10.662a4.607,4.607,0,1,1,4.772-7.791,2.789,2.789,0,0,0,3.5.01,4.6,4.6,0,0,1,5.806,0,2.79,2.79,0,0,0,3.5-.01A4.607,4.607,0,1,1,98.492,10.3,3.932,3.932,0,0,0,96.7,13.58v1.889H83.761a.925.925,0,0,0,0,1.85H96.7V19.66H77.8V17.319h1.591a.925.925,0,1,0,0-1.85H77.8v-1.25A3.9,3.9,0,0,0,75.493,10.662ZM73.108,24.111a3.774,3.774,0,0,1,2.843-3.652v7.306A3.775,3.775,0,0,1,73.108,24.111ZM77.8,28.554V21.509H96.7v7.045a7.7,7.7,0,0,1-4.574,7.014c-.184-.067-9.767-.09-9.891-.061A7.638,7.638,0,0,1,77.8,28.554ZM66.127,56.38l.015-.072h5.534l-.119,1.222H65.893Zm7.018-15.117L71.856,54.458H66.52l1.793-8.783a5.578,5.578,0,0,1,4.832-4.412ZM65.125,61.29l.39-1.909h5.861l-.187,1.911Zm8.19-2.738v0l1.692-17.32H77.16a5.92,5.92,0,0,0-1.082,2.3c-.213.924-.649,2.1.188,2.941.616.783,2.015.428,2.942.173a5.983,5.983,0,0,0,4.231-3.712,7.971,7.971,0,0,0,2.73,0,5.928,5.928,0,0,0,.625,1.213l-3.4,3.4a2.494,2.494,0,0,0-.736,1.776V61.292H73.047Zm29.657,2.74L101.85,49.8a.925.925,0,1,0-1.841.18l1.1,11.309H84.5V49.323a.657.657,0,0,1,.194-.468L88.048,45.5c1.47,1.013,3.947,2.089,5.293.964,1.232-1.331-.174-4.224-.894-5.241h6.707l.431,4.409a.925.925,0,0,0,.92.835.972.972,0,0,0,.922-1.015l-.409-4.185a5.579,5.579,0,0,1,4.755,4.4l3.186,15.617Z" transform="translate(-63.275 0)"/>
      </g>
    </g>
  </g>
</svg>
