<svg xmlns="http://www.w3.org/2000/svg" xmlns:xlink="http://www.w3.org/1999/xlink" width="108.914" height="108.914" viewBox="0 0 108.914 108.914">
  <defs>
    <filter id="Trazado_874925" x="0" y="0" width="108.914" height="108.914" filterUnits="userSpaceOnUse">
      <feOffset dy="3" input="SourceAlpha"/>
      <feGaussianBlur stdDeviation="3" result="blur"/>
      <feFlood flood-opacity="0.161"/>
      <feComposite operator="in" in2="blur"/>
      <feComposite in="SourceGraphic"/>
    </filter>
  </defs>
  <g id="Grupo_1108578" data-name="Grupo 1108578" transform="translate(-797.889 -1949.485)">
    <g id="Grupo_1098742" data-name="Grupo 1098742" transform="translate(806.889 1955.484)">
      <g transform="matrix(1, 0, 0, 1, -9, -6)" filter="url(#Trazado_874925)">
        <g id="Trazado_874925-2" data-name="Trazado 874925" transform="translate(9 6)" fill="#ffcd80" opacity="0.859">
          <path d="M 45.45676803588867 89.41407012939453 C 39.52198028564453 89.41407012939453 33.76551818847656 88.25206756591797 28.34726715087891 85.96034240722656 C 23.11311721801758 83.74648284912109 18.41204261779785 80.57682800292969 14.37464332580566 76.5394287109375 C 10.33724308013916 72.50202941894531 7.167593002319336 67.80095672607422 4.953730583190918 62.56679534912109 C 2.662005424499512 57.14855575561523 1.500005483627319 51.39208221435547 1.500005483627319 45.45729446411133 C 1.500005483627319 39.52198028564453 2.662005424499512 33.76551818847656 4.953730583190918 28.34726905822754 C 7.167593002319336 23.11310577392578 10.33724308013916 18.41203117370605 14.37464332580566 14.37464332580566 C 18.41204261779785 10.33724403381348 23.11311721801758 7.167593955993652 28.34726715087891 4.953731060028076 C 33.76551818847656 2.662006139755249 39.52198028564453 1.500006198883057 45.45676803588867 1.500006198883057 C 51.39155578613281 1.500006198883057 57.14802932739258 2.662006139755249 62.56626892089844 4.953731060028076 C 67.80043029785156 7.167593955993652 72.50150299072266 10.33724403381348 76.53890228271484 14.37464332580566 C 80.57630920410156 18.41203117370605 83.74595642089844 23.11310577392578 85.95981597900391 28.34726905822754 C 88.25154113769531 33.76551818847656 89.41354370117188 39.52198028564453 89.41354370117188 45.45676803588867 C 89.41354370117188 51.39208221435547 88.25154113769531 57.14855575561523 85.95981597900391 62.56679534912109 C 83.74595642089844 67.80095672607422 80.57630920410156 72.50202941894531 76.53890228271484 76.5394287109375 C 72.50150299072266 80.57682800292969 67.80043029785156 83.74648284912109 62.56626892089844 85.96034240722656 C 57.14802932739258 88.25206756591797 51.39155578613281 89.41407012939453 45.45676803588867 89.41407012939453 Z" stroke="none"/>
          <path d="M 45.45676803588867 3 C 39.72381210327148 3 34.1639404296875 4.12213134765625 28.93159484863281 6.335227966308594 C 23.87622833251953 8.473472595214844 19.33542633056641 11.53517150878906 15.43529510498047 15.435302734375 C 11.53517150878906 19.33543395996094 8.473464965820312 23.87622833251953 6.335227966308594 28.93160247802734 C 4.122123718261719 34.16394424438477 3 39.72381591796875 3 45.4572868347168 C 3 51.19024658203125 4.122123718261719 56.75011825561523 6.335227966308594 61.98246002197266 C 8.473464965820312 67.03782653808594 11.53517150878906 71.57862854003906 15.43529510498047 75.478759765625 C 19.33542633056641 79.37889099121094 23.87622833251953 82.44058990478516 28.93159484863281 84.57883453369141 C 34.1639404296875 86.79193115234375 39.72381210327148 87.9140625 45.45676803588867 87.9140625 C 51.18972396850586 87.9140625 56.74959564208984 86.79193115234375 61.98194122314453 84.57883453369141 C 67.03730773925781 82.44058990478516 71.57810974121094 79.37889099121094 75.47824096679688 75.478759765625 C 79.37837219238281 71.57862854003906 82.44007110595703 67.03782653808594 84.57830810546875 61.98246002197266 C 86.79141235351562 56.75011825561523 87.91353607177734 51.19024658203125 87.91353607177734 45.4567756652832 C 87.91353607177734 39.72381591796875 86.79141235351562 34.16394424438477 84.57830810546875 28.93160247802734 C 82.44007110595703 23.87622833251953 79.37837219238281 19.33543395996094 75.47824096679688 15.435302734375 C 71.57810974121094 11.53517150878906 67.03730773925781 8.473472595214844 61.98194122314453 6.335227966308594 C 56.74959564208984 4.12213134765625 51.18972396850586 3 45.45676803588867 3 M 45.45676803588867 0 C 70.56185150146484 0 90.91353607177734 20.35169219970703 90.91353607177734 45.4567756652832 L 90.91353607177734 45.4572868347168 C 90.91353607177734 70.5623779296875 70.56185150146484 90.9140625 45.45676803588867 90.9140625 C 20.3516845703125 90.9140625 0 70.5623779296875 0 45.4572868347168 L 0 45.4567756652832 C 0 20.35169219970703 20.3516845703125 0 45.45676803588867 0 Z" stroke="none" fill="#fff"/>
        </g>
      </g>
      <g id="Trazado_874923" data-name="Trazado 874923" transform="translate(0 0)" fill="none">
        <path d="M45.457,0A45.457,45.457,0,0,1,90.914,45.457h0A45.457,45.457,0,0,1,0,45.457H0A45.457,45.457,0,0,1,45.457,0Z" stroke="none"/>
        <path d="M 45.45676803588867 3 C 39.72381210327148 3 34.1639404296875 4.12213134765625 28.93159484863281 6.335227966308594 C 23.87622833251953 8.473472595214844 19.33542633056641 11.53517150878906 15.43529510498047 15.435302734375 C 11.53517150878906 19.33543395996094 8.473464965820312 23.87622833251953 6.335227966308594 28.93160247802734 C 4.122123718261719 34.16394424438477 3 39.72381591796875 3 45.4572868347168 C 3 51.19024658203125 4.122123718261719 56.75011825561523 6.335227966308594 61.98246002197266 C 8.473464965820312 67.03782653808594 11.53517150878906 71.57862854003906 15.43529510498047 75.478759765625 C 19.33542633056641 79.37889099121094 23.87622833251953 82.44058990478516 28.93159484863281 84.57883453369141 C 34.1639404296875 86.79193115234375 39.72381210327148 87.9140625 45.45676803588867 87.9140625 C 51.18972396850586 87.9140625 56.74959564208984 86.79193115234375 61.98194122314453 84.57883453369141 C 67.03730773925781 82.44058990478516 71.57810974121094 79.37889099121094 75.47824096679688 75.478759765625 C 79.37837219238281 71.57862854003906 82.44007110595703 67.03782653808594 84.57830810546875 61.98246002197266 C 86.79141235351562 56.75011825561523 87.91353607177734 51.19024658203125 87.91353607177734 45.4567756652832 C 87.91353607177734 39.72381591796875 86.79141235351562 34.16394424438477 84.57830810546875 28.93160247802734 C 82.44007110595703 23.87622833251953 79.37837219238281 19.33543395996094 75.47824096679688 15.435302734375 C 71.57810974121094 11.53517150878906 67.03730773925781 8.473472595214844 61.98194122314453 6.335227966308594 C 56.74959564208984 4.12213134765625 51.18972396850586 3 45.45676803588867 3 M 45.45676803588867 0 C 70.56185150146484 0 90.91353607177734 20.35169219970703 90.91353607177734 45.4567756652832 L 90.91353607177734 45.4572868347168 C 90.91353607177734 70.5623779296875 70.56185150146484 90.9140625 45.45676803588867 90.9140625 C 20.3516845703125 90.9140625 0 70.5623779296875 0 45.4572868347168 L 0 45.4567756652832 C 0 20.35169219970703 20.3516845703125 0 45.45676803588867 0 Z" stroke="none" fill="#fff"/>
      </g>
    </g>
    <g id="gastos" transform="translate(806.464 1931.249)">
      <g id="Grupo_1108657" data-name="Grupo 1108657" transform="translate(16.847 46.421)">
        <g id="Grupo_1108641" data-name="Grupo 1108641" transform="translate(12.437 21.768)">
          <path id="Trazado_897079" data-name="Trazado 897079" d="M100.035,150a20.277,20.277,0,0,0-14.676,6.274A9.6,9.6,0,0,1,79.7,169.922c0,.145-.021.285-.021.43h41.835C121.517,159.112,111.275,150,100.035,150Z" transform="translate(-79.683 -150)" fill="#ffda88"/>
        </g>
        <g id="Grupo_1108642" data-name="Grupo 1108642" transform="translate(12.437 21.768)">
          <path id="Trazado_897080" data-name="Trazado 897080" d="M89.859,160.741a9.536,9.536,0,0,0-1.108-4.467,20.284,20.284,0,0,1,13.011-6.188c-.573-.046-1.147-.086-1.727-.086a20.277,20.277,0,0,0-14.676,6.274A9.6,9.6,0,0,1,79.7,169.922c0,.145-.021.285-.021.43h3.392c0-.145.019-.285.021-.43A9.613,9.613,0,0,0,89.859,160.741Z" transform="translate(-79.683 -150)" fill="#ffe2a9"/>
        </g>
        <g id="Grupo_1108643" data-name="Grupo 1108643" transform="translate(22.329 0)">
          <circle id="Elipse_11692" data-name="Elipse 11692" cx="9.611" cy="9.611" r="9.611" transform="translate(0 18.973) rotate(-80.782)" fill="#e5e5e4"/>
        </g>
        <g id="Grupo_1108644" data-name="Grupo 1108644" transform="translate(23.744 1.416)">
          <path id="Trazado_897081" data-name="Trazado 897081" d="M136.875,62.769a9.606,9.606,0,0,1,7.915-9.452,9.611,9.611,0,1,0,0,18.9A9.606,9.606,0,0,1,136.875,62.769Z" transform="translate(-133.483 -53.159)" fill="#efefef"/>
        </g>
        <g id="Grupo_1108645" data-name="Grupo 1108645" transform="translate(26.275 21.768)">
          <path id="Trazado_897082" data-name="Trazado 897082" d="M145.525,151.084l6.515,5.7,6.476-5.757A21.4,21.4,0,0,0,152.04,150,20.287,20.287,0,0,0,145.525,151.084Z" transform="translate(-145.525 -150)" fill="#e5e5e4"/>
        </g>
        <g id="Grupo_1108646" data-name="Grupo 1108646" transform="translate(26.275 21.768)">
          <path id="Trazado_897083" data-name="Trazado 897083" d="M149.307,150.2c-.293.04-.584.082-.872.133-.382.071-.762.149-1.136.241-.155.036-.307.077-.46.118-.442.118-.881.242-1.312.388l1.082.947a20.267,20.267,0,0,1,7.134-1.947c-.564-.045-1.131-.085-1.7-.085-.63,0-1.251.039-1.867.094C149.882,150.121,149.595,150.164,149.307,150.2Z" transform="translate(-145.526 -149.999)" fill="#efefef"/>
        </g>
        <g id="Grupo_1108647" data-name="Grupo 1108647" transform="translate(32.789 22.799)">
          <path id="Trazado_897084" data-name="Trazado 897084" d="M183.012,154.907l-6.488,5.753,4.523,2.261,4.888-6.844A22.481,22.481,0,0,0,183.012,154.907Z" transform="translate(-176.524 -154.907)" fill="#7fd3b9"/>
        </g>
        <g id="Grupo_1108648" data-name="Grupo 1108648" transform="translate(23.439 22.852)">
          <path id="Trazado_897085" data-name="Trazado 897085" d="M136.86,163.121l4.523-2.261-6.515-5.7a20.071,20.071,0,0,0-2.835,1.2Z" transform="translate(-132.032 -155.16)" fill="#7fd3b9"/>
        </g>
        <g id="Grupo_1108649" data-name="Grupo 1108649" transform="translate(23.439 22.852)">
          <path id="Trazado_897086" data-name="Trazado 897086" d="M134.868,155.16a20.071,20.071,0,0,0-2.835,1.2l1.036,1.45a20.233,20.233,0,0,1,2.882-1.706Z" transform="translate(-132.033 -155.16)" fill="#bbead9"/>
        </g>
        <g id="Grupo_1108650" data-name="Grupo 1108650" transform="translate(29.256 28.552)">
          <path id="Trazado_897087" data-name="Trazado 897087" d="M165.506,187.934l1.265-3.89-3.527-1.763-3.533,1.767,1.272,3.887Z" transform="translate(-159.711 -182.281)" fill="#fe6f80"/>
        </g>
        <g id="Grupo_1108651" data-name="Grupo 1108651" transform="translate(30.528 34.205)">
          <rect id="Rect치ngulo_403060" data-name="Rect치ngulo 403060" width="4.523" height="7.915" fill="#fe6f80"/>
        </g>
        <g id="Grupo_1108652" data-name="Grupo 1108652" transform="translate(30.528 34.205)">
          <rect id="Rect치ngulo_403061" data-name="Rect치ngulo 403061" width="2.261" height="7.915" fill="#ffa1aa"/>
        </g>
        <g id="Grupo_1108653" data-name="Grupo 1108653" transform="translate(29.256 28.552)">
          <path id="Trazado_897088" data-name="Trazado 897088" d="M164.375,182.846l-1.131-.565-3.533,1.767,1.272,3.887h2.261l-1.272-3.887Z" transform="translate(-159.711 -182.281)" fill="#ffa1aa"/>
        </g>
        <g id="Grupo_1108654" data-name="Grupo 1108654" transform="translate(0 18.376)">
          <path id="Trazado_897089" data-name="Trazado 897089" d="M33.186,138.893l2.014-5.034a25.528,25.528,0,0,1-10.176,0l2.014,5.034a9.611,9.611,0,1,0,6.149,0Z" transform="translate(-20.501 -133.859)" fill="#7fd3b9"/>
        </g>
        <g id="Grupo_1108655" data-name="Grupo 1108655" transform="translate(0 18.376)">
          <path id="Trazado_897090" data-name="Trazado 897090" d="M22.762,147.993a9.61,9.61,0,0,1,6.536-9.1l-1.864-4.659a18.751,18.751,0,0,1-2.411-.374l2.014,5.034a9.607,9.607,0,0,0,3.075,18.71,9.79,9.79,0,0,0,1.131-.072A9.608,9.608,0,0,1,22.762,147.993Z" transform="translate(-20.501 -133.86)" fill="#bbead9"/>
        </g>
        <g id="Grupo_1108656" data-name="Grupo 1108656" transform="translate(6.073 25.981)">
          <path id="Trazado_897091" data-name="Trazado 897091" d="M55.88,177.422a2.83,2.83,0,0,0-.862-.962,9.4,9.4,0,0,0-1.52-.774c-.916-.368-1.371-.806-1.371-1.309a.929.929,0,0,1,.264-.661.86.86,0,0,1,.631-.275,3.759,3.759,0,0,1,1.56.64l1-1.628a2.057,2.057,0,0,0-2.08-.985v-.731c0-.38-.3-.688-1.131-.688s-1.131.308-1.131.688v.843a2.687,2.687,0,0,0-.929.681,3.367,3.367,0,0,0-.677,2.266,2.61,2.61,0,0,0,1.41,2.162,6.362,6.362,0,0,0,1.248.677c1.1.471,1.611.845,1.611,1.379a1.029,1.029,0,0,1-.361.741,1.186,1.186,0,0,1-.762.355c-.746.052-1.362-.472-2.22-1.105l-1.16,1.617a5.814,5.814,0,0,0,1.842,1.371v.687c0,.381.4.688,1.131.688.683,0,1.131-.307,1.131-.688v-.687a3.615,3.615,0,0,0,1.6-.686,3.135,3.135,0,0,0,1.114-2.28A2.671,2.671,0,0,0,55.88,177.422Z" transform="translate(-49.398 -170.049)" fill="#ffda88"/>
        </g>
      </g>
      <g id="Grupo_1108667" data-name="Grupo 1108667" transform="translate(15.874 46.706)">
        <g id="Grupo_1108658" data-name="Grupo 1108658" transform="translate(23.586)">
          <path id="Trazado_897092" data-name="Trazado 897092" d="M138.844,69.261a10.741,10.741,0,1,1,10.741-10.741A10.754,10.754,0,0,1,138.844,69.261Zm0-19.221a8.48,8.48,0,1,0,8.48,8.48A8.489,8.489,0,0,0,138.844,50.039Z" transform="translate(-128.103 -47.778)" fill="#161616"/>
        </g>
        <g id="Grupo_1108659" data-name="Grupo 1108659" transform="translate(26.116 20.358)">
          <path id="Trazado_897093" data-name="Trazado 897093" d="M147.789,153.687a1.129,1.129,0,0,1-.745-.279l-6.515-5.7a1.131,1.131,0,0,1,.382-1.923,21.748,21.748,0,0,1,13.7-.064,1.131,1.131,0,0,1,.409,1.922l-6.476,5.757A1.126,1.126,0,0,1,147.789,153.687Zm-4.2-6.309,4.2,3.671,4.16-3.7A19.218,19.218,0,0,0,143.587,147.378Z" transform="translate(-140.144 -144.647)" fill="#161616"/>
        </g>
        <g id="Grupo_1108660" data-name="Grupo 1108660" transform="translate(32.631 21.384)">
          <path id="Trazado_897094" data-name="Trazado 897094" d="M176.8,159.8a1.132,1.132,0,0,1-.505-.119l-4.523-2.261a1.131,1.131,0,0,1-.244-1.857l6.488-5.753a1.131,1.131,0,0,1,1.094-.232,23.7,23.7,0,0,1,3.07,1.23,1.13,1.13,0,0,1,.43,1.675l-4.888,6.844A1.131,1.131,0,0,1,176.8,159.8Zm-2.521-3.656,2.163,1.082,3.522-4.931q-.47-.192-.939-.359Z" transform="translate(-171.145 -149.528)" fill="#161616"/>
        </g>
        <g id="Grupo_1108661" data-name="Grupo 1108661" transform="translate(23.281 21.437)">
          <path id="Trazado_897095" data-name="Trazado 897095" d="M132.612,160a1.129,1.129,0,0,1-.92-.474l-4.827-6.758a1.131,1.131,0,0,1,.4-1.661,21.339,21.339,0,0,1,3-1.271,1.136,1.136,0,0,1,1.106.22l6.515,5.7a1.132,1.132,0,0,1-.239,1.863l-4.523,2.261A1.134,1.134,0,0,1,132.612,160Zm-3.123-7.446,3.481,4.873,2.152-1.077-4.748-4.154Q129.926,152.369,129.489,152.558Z" transform="translate(-126.654 -149.783)" fill="#161616"/>
        </g>
        <g id="Grupo_1108662" data-name="Grupo 1108662" transform="translate(29.097 27.136)">
          <path id="Trazado_897096" data-name="Trazado 897096" d="M161.255,184.815h-4.523a1.131,1.131,0,0,1-1.074-.778l-1.272-3.887a1.131,1.131,0,0,1,.569-1.364l3.533-1.767a1.132,1.132,0,0,1,1.011,0l3.527,1.763a1.132,1.132,0,0,1,.57,1.361l-1.265,3.89A1.13,1.13,0,0,1,161.255,184.815Zm-3.7-2.261h2.882l.71-2.183-2.15-1.075-2.155,1.078Z" transform="translate(-154.33 -176.9)" fill="#161616"/>
        </g>
        <g id="Grupo_1108663" data-name="Grupo 1108663" transform="translate(30.369 32.789)">
          <path id="Trazado_897097" data-name="Trazado 897097" d="M166.036,213.977h-4.523a1.13,1.13,0,0,1-1.131-1.131v-7.915a1.13,1.13,0,0,1,1.131-1.131h4.523a1.13,1.13,0,0,1,1.131,1.131v7.915A1.13,1.13,0,0,1,166.036,213.977Zm-3.392-2.261h2.261v-5.653h-2.261Z" transform="translate(-160.383 -203.801)" fill="#161616"/>
        </g>
        <g id="Grupo_1108664" data-name="Grupo 1108664" transform="translate(7.045 25.696)">
          <path id="Trazado_897098" data-name="Trazado 897098" d="M55.88,177.422a2.83,2.83,0,0,0-.862-.962,9.4,9.4,0,0,0-1.52-.774c-.916-.368-1.371-.806-1.371-1.309a.929.929,0,0,1,.264-.661.86.86,0,0,1,.631-.275,3.759,3.759,0,0,1,1.56.64l1-1.628a2.057,2.057,0,0,0-2.08-.985v-.731c0-.38-.3-.688-1.131-.688s-1.131.308-1.131.688v.843a2.687,2.687,0,0,0-.929.681,3.367,3.367,0,0,0-.677,2.266,2.61,2.61,0,0,0,1.41,2.162,6.362,6.362,0,0,0,1.248.677c1.1.471,1.611.845,1.611,1.379a1.029,1.029,0,0,1-.361.741,1.186,1.186,0,0,1-.762.355c-.746.052-1.362-.472-2.22-1.105l-1.16,1.617a5.814,5.814,0,0,0,1.842,1.371v.687c0,.381.4.688,1.131.688.683,0,1.131-.307,1.131-.688v-.687a3.615,3.615,0,0,0,1.6-.686,3.135,3.135,0,0,0,1.114-2.28A2.671,2.671,0,0,0,55.88,177.422Z" transform="translate(-49.398 -170.049)" fill="#161616"/>
        </g>
        <g id="Grupo_1108665" data-name="Grupo 1108665" transform="translate(12.279 20.352)">
          <path id="Trazado_897099" data-name="Trazado 897099" d="M117.267,167.234h-5.653a1.131,1.131,0,1,1,0-2.261H116.1c-.667-9.761-9.873-18.091-20.313-18.091a19.027,19.027,0,0,0-13.311,5.376,10.576,10.576,0,0,1,.874,4.234,10.693,10.693,0,0,1-4.13,8.48h27.874a1.131,1.131,0,0,1,0,2.261H75.433A1.13,1.13,0,0,1,74.3,166.1c0-.1.007-.209.014-.311l.008-.14a1.131,1.131,0,0,1,.8-1.058,8.47,8.47,0,0,0,4.989-12.041,1.131,1.131,0,0,1,.184-1.311,21.3,21.3,0,0,1,15.492-6.622c12.258,0,22.613,9.838,22.613,21.483A1.13,1.13,0,0,1,117.267,167.234Z" transform="translate(-74.302 -144.621)" fill="#161616"/>
        </g>
        <g id="Grupo_1108666" data-name="Grupo 1108666" transform="translate(0 16.961)">
          <path id="Trazado_897100" data-name="Trazado 897100" d="M26.457,154.488a10.72,10.72,0,0,1-10.565-8.847,1.131,1.131,0,1,1,2.226-.4,8.476,8.476,0,1,0,11.052-9.526,1.13,1.13,0,0,1-.688-1.49l1.273-3.182a27.824,27.824,0,0,1-6.589.016l1.266,3.167a1.13,1.13,0,0,1-.688,1.49,8.5,8.5,0,0,0-5.379,5.535,1.131,1.131,0,0,1-2.161-.667,10.777,10.777,0,0,1,5.71-6.565l-1.595-3.988a1.132,1.132,0,0,1,1.323-1.517,24.67,24.67,0,0,0,9.681-.011,1.131,1.131,0,0,1,1.272,1.528L31,134.02a10.737,10.737,0,0,1-4.543,20.468Z" transform="translate(-15.874 -128.484)" fill="#161616"/>
        </g>
      </g>
    </g>
  </g>
</svg>
