<svg xmlns="http://www.w3.org/2000/svg" width="90" height="90" viewBox="0 0 90 90">
  <g id="Grupo_1108459" data-name="Grupo 1108459" transform="translate(-335.257 -1642.309)">
    <g id="Grupo_1108455" data-name="Grupo 1108455" transform="translate(-0.524 -2190.691)">
      <g id="Grupo_1098742" data-name="Grupo 1098742" transform="translate(-867.539 3444.258)">
        <g id="Rect치ngulo_400898" data-name="Rect치ngulo 400898" transform="translate(1203.32 388.742)" fill="#b6a385" stroke="#fff" stroke-width="3" opacity="0.859">
          <rect width="90" height="90" rx="45" stroke="none"/>
          <rect x="1.5" y="1.5" width="87" height="87" rx="43.5" fill="none"/>
        </g>
        <g id="Rect치ngulo_400907" data-name="Rect치ngulo 400907" transform="translate(1203.32 388.742)" fill="none" stroke="#fff" stroke-width="3">
          <rect width="90" height="90" rx="45" stroke="none"/>
          <rect x="1.5" y="1.5" width="87" height="87" rx="43.5" fill="none"/>
        </g>
      </g>
    </g>
    <g id="Layer_48" transform="translate(336.696 1655.644)">
      <path id="Trazado_896740" data-name="Trazado 896740" d="M62.4,46.293V36.159A2.669,2.669,0,0,0,59.742,33.5h-7.57a1.854,1.854,0,0,1-.144,2.611,1.783,1.783,0,0,1-1.222.479H35.139a1.845,1.845,0,0,1-1.845-1.845,1.783,1.783,0,0,1,.479-1.222H26.059A2.669,2.669,0,0,0,23.4,36.183V83.57a2.669,2.669,0,0,0,2.659,2.659H59.742A2.669,2.669,0,0,0,62.4,83.57V57.121L56.748,66.9a1.006,1.006,0,0,1-.982.5h0l-1.653,2.875-3.474,2.707a.5.5,0,0,1-.695-.1.485.485,0,0,1-.1-.359l.623-4.36,1.653-2.875h0a1.019,1.019,0,0,1-.072-1.1Z" transform="translate(-1.901 -25.475)" fill="#b26e3b"/>
      <path id="Trazado_896741" data-name="Trazado 896741" d="M67.714,58.29V43.916c0-.12-.1-.192-.216-.216h-7.57l-.144.144h0c-.048.048-.1.072-.144.12h0c-.048.024-.1.072-.144.1l-.024.024-.144.072a.023.023,0,0,0-.024.024.34.34,0,0,1-.144.048c-.024,0-.024,0-.048.024-.048.024-.1.024-.144.048-.024,0-.024,0-.048.024-.048,0-.1.024-.144.024H42.656c-.048,0-.1-.024-.144-.024-.024,0-.024,0-.048-.024a.34.34,0,0,1-.144-.048c-.024,0-.024,0-.048-.024-.048-.024-.1-.024-.144-.048a.023.023,0,0,1-.024-.024l-.144-.072-.024-.024c-.048-.024-.1-.072-.144-.1h0a.635.635,0,0,1-.144-.12h0a.635.635,0,0,1-.12-.144H33.816c-.12,0-.192.1-.216.216V91.3c0,.12.1.192.216.216h26.64l7.259-7.259V69.142l-3.186,5.534a1.006,1.006,0,0,1-.982.5h0l-1.653,2.875-3.474,2.707a.5.5,0,0,1-.695-.1.485.485,0,0,1-.1-.359l.623-4.36L59.9,73.071h0a1.019,1.019,0,0,1-.072-1.1Z" transform="translate(-9.657 -33.231)" fill="#e9e9ea"/>
      <path id="Trazado_896742" data-name="Trazado 896742" d="M100.926,104.8h9.367a1.125,1.125,0,0,1,1.126,1.126v2.42a1.125,1.125,0,0,1-1.126,1.126h-9.367a1.125,1.125,0,0,1-1.126-1.126v-2.42A1.125,1.125,0,0,1,100.926,104.8Z" transform="translate(-59.998 -79.693)" fill="#55acd5"/>
      <path id="Trazado_896743" data-name="Trazado 896743" d="M110.193,141.8h-9.367a1.125,1.125,0,0,0-1.126,1.126v2.42a1.125,1.125,0,0,0,1.126,1.126h9.3l1.174-2.036V142.95A1.1,1.1,0,0,0,110.193,141.8Z" transform="translate(-59.922 -107.829)" fill="#55acd5"/>
      <path id="Trazado_896744" data-name="Trazado 896744" d="M107.945,182.94l.6-4.24h-7.618a1.125,1.125,0,0,0-1.126,1.126v2.42a1.125,1.125,0,0,0,1.126,1.126h7.163A.591.591,0,0,1,107.945,182.94Z" transform="translate(-59.998 -135.889)" fill="#55acd5"/>
      <path id="Trazado_896745" data-name="Trazado 896745" d="M142.652,75.375l15.4-26.664a.989.989,0,0,1,1.366-.359l2.947,1.7a.989.989,0,0,1,.359,1.366l-15.4,26.664a.989.989,0,0,1-1.366.359l-2.947-1.7A.984.984,0,0,1,142.652,75.375Z" transform="translate(-92.477 -36.661)" fill="#6d6c6b"/>
      <path id="Trazado_896746" data-name="Trazado 896746" d="M214.95,39.81a2.108,2.108,0,0,0-2.875.767h0l-.575,1.006a1.026,1.026,0,0,1,.383.12l2.947,1.7a1.65,1.65,0,0,1,.311.264l.575-1.006a2.091,2.091,0,0,0-.767-2.851Z" transform="translate(-144.939 -30.06)" fill="#898989"/>
      <path id="Trazado_896747" data-name="Trazado 896747" d="M221.9,58.2l-2.2,3.785,1.893,1.1.791-1.389A2.8,2.8,0,0,0,221.9,58.2Z" transform="translate(-151.174 -44.257)" fill="#6d6c6b"/>
      <path id="Trazado_896748" data-name="Trazado 896748" d="M134.4,178.1l-.623,4.36a.472.472,0,0,0,.407.551.458.458,0,0,0,.359-.1l3.474-2.707Z" transform="translate(-85.829 -135.433)" fill="#e9e9ea"/>
      <path id="Trazado_896749" data-name="Trazado 896749" d="M141.311,168.164l-2.947-1.7a1.649,1.649,0,0,1-.311-.264l-1.653,2.875,3.641,2.108,1.653-2.875A1.252,1.252,0,0,1,141.311,168.164Z" transform="translate(-87.83 -126.384)" fill="#ffcd29"/>
      <path id="Trazado_896750" data-name="Trazado 896750" d="M61.027,44.679a.638.638,0,0,0,.072-.287V34.258A3.262,3.262,0,0,0,57.841,31h-7.57a.593.593,0,0,0-.6.6.651.651,0,0,0,.144.407,1.246,1.246,0,0,1-.1,1.749,1.217,1.217,0,0,1-.838.311H33.238a1.237,1.237,0,0,1-1.246-1.246,1.341,1.341,0,0,1,.311-.838.6.6,0,0,0-.048-.838A.651.651,0,0,0,31.848,31h-7.69A3.262,3.262,0,0,0,20.9,34.258V81.644A3.262,3.262,0,0,0,24.158,84.9H57.841A3.262,3.262,0,0,0,61.1,81.644V55.22a.593.593,0,0,0-.6-.6.658.658,0,0,0-.527.287L54.32,64.683a.387.387,0,0,1-.407.192h0a.631.631,0,0,0-.623.359l-1.557,2.707L48.57,70.409l.551-3.977,1.557-2.707a.618.618,0,0,0,.024-.671c0-.024-.024-.024-.024-.048a.442.442,0,0,1-.024-.455Zm-11.379,17.3a1.578,1.578,0,0,0-.1,1.389l-1.485,2.587a.386.386,0,0,0-.072.216l-.623,4.36a1.093,1.093,0,0,0,1.749,1.006l3.474-2.707a.322.322,0,0,0,.144-.168l1.485-2.587a1.584,1.584,0,0,0,1.15-.791h0L59.9,57.424v24.2a2.06,2.06,0,0,1-2.06,2.06H24.158a2.06,2.06,0,0,1-2.06-2.06V34.258a2.06,2.06,0,0,1,2.06-2.06h6.708a2.453,2.453,0,0,0,1.725,2.995,2.762,2.762,0,0,0,.623.072H48.881a2.454,2.454,0,0,0,2.444-2.444,2.611,2.611,0,0,0-.072-.623h6.588a2.06,2.06,0,0,1,2.06,2.06v9.966Z" transform="translate(0 -23.573)" fill="#231f20"/>
      <path id="Trazado_896751" data-name="Trazado 896751" d="M66.316,56.624a.638.638,0,0,0,.072-.287v-14.4a.808.808,0,0,0-.815-.815H58a.654.654,0,0,0-.455.192l-.1.1h0c-.024.024-.072.048-.1.072a.524.524,0,0,1-.12.072c-.024.024-.072.024-.1.048h-.024a.144.144,0,0,1-.1.024H57c-.024,0-.048.024-.1.024h-.024a.144.144,0,0,0-.1.024H40.826a.144.144,0,0,1-.1-.024h-.024c-.024,0-.072-.024-.1-.024h-.024c-.024,0-.072-.024-.1-.024l-.024-.024c-.024-.024-.072-.024-.1-.048s-.072-.048-.1-.072-.072-.048-.1-.072h0c-.024-.024-.072-.048-.1-.1a.654.654,0,0,0-.455-.192H31.915a.808.808,0,0,0-.815.815V89.3a.808.808,0,0,0,.815.815h26.64a.689.689,0,0,0,.431-.168l7.259-7.259a.577.577,0,0,0,.168-.431V67.141a.593.593,0,0,0-.6-.6.658.658,0,0,0-.527.287L62.1,72.364a.387.387,0,0,1-.407.192h0a.631.631,0,0,0-.623.359l-1.557,2.707L56.35,78.089l.551-3.977,1.557-2.707a.618.618,0,0,0,.024-.671c0-.024-.024-.024-.024-.048h0a.442.442,0,0,1-.024-.455ZM57.4,69.656a1.578,1.578,0,0,0-.1,1.389l-1.485,2.587a.386.386,0,0,0-.072.216l-.623,4.36a1.093,1.093,0,0,0,1.749,1.006l3.474-2.707a.322.322,0,0,0,.144-.168l1.485-2.587a1.584,1.584,0,0,0,1.15-.791l2.084-3.594V82.018l-6.9,6.9H32.322v-46.6h7.067c.048.048.12.1.168.144a.522.522,0,0,0,.192.12l.024.024a1.422,1.422,0,0,0,.192.1l.048.024a1.65,1.65,0,0,0,.192.072l.048.024c.048.024.12.024.192.048a.088.088,0,0,1,.072.024.528.528,0,0,0,.192.024h.072c.1,0,.168.024.264.024H56.71a.983.983,0,0,0,.264-.024h.072c.072,0,.12-.024.192-.024a.088.088,0,0,0,.072-.024,1.527,1.527,0,0,0,.168-.048c.024,0,.024,0,.048-.024a1.167,1.167,0,0,0,.168-.072l.048-.024c.072-.024.12-.072.192-.1l.024-.024a1,1,0,0,0,.192-.144c.048-.048.12-.1.168-.144h6.947V56.169Z" transform="translate(-7.756 -31.254)" fill="#231f20"/>
      <path id="Trazado_896752" data-name="Trazado 896752" d="M145.816,213c-.12,0-.192.1-.216.216v7.043L152.883,213Z" transform="translate(-94.826 -161.972)" fill="#ffcd29"/>
      <path id="Trazado_896753" data-name="Trazado 896753" d="M91.108,7.9A4.412,4.412,0,0,0,86.7,12.308v1.1h2.468v-1.1a1.964,1.964,0,1,1,3.929,0v1.1h2.468v-1.1A4.484,4.484,0,0,0,91.108,7.9Z" transform="translate(-50.036 -6.007)" fill="#e9e9ea"/>
      <path id="Trazado_896754" data-name="Trazado 896754" d="M82.212,30.9H66.545a1.845,1.845,0,0,0,0,3.689H82.212a1.845,1.845,0,0,0,0-3.689Z" transform="translate(-33.307 -23.497)" fill="#898989"/>
      <path id="Trazado_896755" data-name="Trazado 896755" d="M204.1,161.8a.6.6,0,1,0,.6.6A.609.609,0,0,0,204.1,161.8Z" transform="translate(-138.855 -123.038)" fill="#55acd5"/>
      <path id="Trazado_896756" data-name="Trazado 896756" d="M161.4,15.8a.6.6,0,1,0,.6.6h0A.593.593,0,0,0,161.4,15.8Z" transform="translate(-106.385 -12.015)" fill="#ea4647"/>
      <path id="Trazado_896757" data-name="Trazado 896757" d="M217.658,135.789a2.246,2.246,0,0,1-1.8-1.8c0-.024-.024-.048-.048-.024a.023.023,0,0,0-.024.024,2.246,2.246,0,0,1-1.8,1.8c-.024,0-.048.024-.024.048a.023.023,0,0,0,.024.024,2.246,2.246,0,0,1,1.8,1.8c0,.024.024.048.048.024a.023.023,0,0,0,.024-.024,2.246,2.246,0,0,1,1.8-1.8c.024,0,.048-.024.024-.048A.023.023,0,0,0,217.658,135.789Z" transform="translate(-146.808 -101.867)" fill="#6dcc6d"/>
      <path id="Trazado_896758" data-name="Trazado 896758" d="M138.559,1.03h-.431V.6a.6.6,0,1,0-1.2,0V1.03H136.5a.6.6,0,0,0,0,1.2h.431v.431a.6.6,0,1,0,1.2,0V2.228h.431a.6.6,0,1,0,0-1.2Z" transform="translate(-87.45)" fill="#ffcd29"/>
      <path id="Trazado_896759" data-name="Trazado 896759" d="M151.609,210.859a.605.605,0,0,0-.551-.359h-7.043a.808.808,0,0,0-.815.815v7.043a.593.593,0,0,0,.6.6.689.689,0,0,0,.431-.168l7.259-7.259A.69.69,0,0,0,151.609,210.859ZM144.4,216.9v-5.2h5.2Z" transform="translate(-93.001 -160.071)" fill="#231f20"/>
      <path id="Trazado_896760" data-name="Trazado 896760" d="M80.311,28.4H64.644a2.444,2.444,0,1,0,0,4.887H80.311a2.444,2.444,0,0,0,0-4.887Zm0,3.689H64.644a1.246,1.246,0,1,1,0-2.491H80.311a1.237,1.237,0,0,1,1.246,1.246A1.252,1.252,0,0,1,80.311,32.089Z" transform="translate(-31.406 -21.596)" fill="#231f20"/>
      <path id="Trazado_896761" data-name="Trazado 896761" d="M89.207,5.4A5,5,0,0,0,84.2,10.407v1.1a.593.593,0,0,0,.6.6h2.468a.593.593,0,0,0,.6-.6v-1.1a1.365,1.365,0,0,1,1.366-1.366A1.35,1.35,0,0,1,90.6,10.407v1.1a.593.593,0,0,0,.6.6h2.468a.593.593,0,0,0,.6-.6v-1.1A5.077,5.077,0,0,0,89.207,5.4Zm3.809,5.51h-1.27v-.5a2.563,2.563,0,0,0-5.127,0v.5H85.35v-.5A3.8,3.8,0,0,1,89.159,6.6a3.845,3.845,0,0,1,3.857,3.809Z" transform="translate(-48.135 -4.106)" fill="#231f20"/>
      <path id="Trazado_896762" data-name="Trazado 896762" d="M87.914,43.8a.593.593,0,0,0-.6.6v1.653a.91.91,0,0,1-.91.91h-11a.91.91,0,0,1-.91-.91V44.4a.6.6,0,1,0-1.2,0v1.653a2.111,2.111,0,0,0,2.108,2.108h11a2.111,2.111,0,0,0,2.108-2.108V44.4A.593.593,0,0,0,87.914,43.8Z" transform="translate(-39.847 -33.307)" fill="#231f20"/>
      <path id="Trazado_896763" data-name="Trazado 896763" d="M94.949,72.8H87.5a.6.6,0,0,0,0,1.2h7.451a.6.6,0,0,0,0-1.2Z" transform="translate(-50.189 -55.36)" fill="#231f20"/>
      <path id="Trazado_896764" data-name="Trazado 896764" d="M83.8,86.1H66a.6.6,0,0,0,0,1.2H83.8a.6.6,0,1,0,0-1.2Z" transform="translate(-33.839 -65.473)" fill="#231f20"/>
      <path id="Trazado_896765" data-name="Trazado 896765" d="M67.817,105.4H62.5a.6.6,0,1,0,0,1.2h5.294a.6.6,0,0,0,.024-1.2Z" transform="translate(-31.178 -80.15)" fill="#231f20"/>
      <path id="Trazado_896766" data-name="Trazado 896766" d="M67.817,118.6H62.5a.6.6,0,1,0,0,1.2h5.294a.6.6,0,0,0,.024-1.2Z" transform="translate(-31.178 -90.187)" fill="#231f20"/>
      <path id="Trazado_896767" data-name="Trazado 896767" d="M67.817,142.4H62.5a.6.6,0,0,0,0,1.2h5.294a.6.6,0,0,0,.024-1.2Z" transform="translate(-31.178 -108.286)" fill="#231f20"/>
      <path id="Trazado_896768" data-name="Trazado 896768" d="M67.817,155.6H62.5a.6.6,0,1,0,0,1.2h5.294a.6.6,0,0,0,.024-1.2Z" transform="translate(-31.178 -118.323)" fill="#231f20"/>
      <path id="Trazado_896769" data-name="Trazado 896769" d="M67.817,179.3H62.5a.6.6,0,1,0,0,1.2h5.294a.6.6,0,0,0,.024-1.2Z" transform="translate(-31.178 -136.346)" fill="#231f20"/>
      <path id="Trazado_896770" data-name="Trazado 896770" d="M67.817,192.5H62.5a.6.6,0,0,0,0,1.2h5.294a.6.6,0,0,0,.024-1.2Z" transform="translate(-31.178 -146.383)" fill="#231f20"/>
      <path id="Trazado_896771" data-name="Trazado 896771" d="M108.292,102.3H98.925a1.718,1.718,0,0,0-1.725,1.725v2.42a1.718,1.718,0,0,0,1.725,1.725h9.367a1.718,1.718,0,0,0,1.725-1.725v-2.42A1.718,1.718,0,0,0,108.292,102.3Zm.527,4.121a.532.532,0,0,1-.527.527H98.925a.532.532,0,0,1-.527-.527V104a.532.532,0,0,1,.527-.527h9.367a.532.532,0,0,1,.527.527Z" transform="translate(-58.021 -77.792)" fill="#231f20"/>
      <path id="Trazado_896772" data-name="Trazado 896772" d="M136.508,177.846l-3.641-2.108a.591.591,0,0,0-.815.216.386.386,0,0,0-.072.216l-.623,4.36a1.068,1.068,0,0,0,.934,1.222,1.086,1.086,0,0,0,.815-.216l3.474-2.707a.583.583,0,0,0,.1-.838.322.322,0,0,0-.168-.144Zm-3.929,2.587.455-3.21,2.108,1.222Z" transform="translate(-83.985 -133.574)" fill="#231f20"/>
      <path id="Trazado_896773" data-name="Trazado 896773" d="M161.614,48.527a1.706,1.706,0,0,0-.743-.982l-2.947-1.7a1.6,1.6,0,0,0-2.18.6h0l-15.4,26.664a1.617,1.617,0,0,0,.575,2.18l2.947,1.7a1.617,1.617,0,0,0,2.18-.575l15.4-26.664A1.668,1.668,0,0,0,161.614,48.527Zm-1.2.623-15.4,26.664a.4.4,0,0,1-.551.144h0l-2.947-1.7a.4.4,0,0,1-.144-.551l15.4-26.664a.4.4,0,0,1,.551-.144h0l2.947,1.7a.447.447,0,0,1,.144.551Z" transform="translate(-90.669 -34.703)" fill="#231f20"/>
      <path id="Trazado_896774" data-name="Trazado 896774" d="M213.3,37.448a2.7,2.7,0,0,0-3.689.982l-.575,1.006a.591.591,0,0,0,.216.815.4.4,0,0,0,.24.072.444.444,0,0,1,.168.048l2.947,1.7a.289.289,0,0,1,.12.12.625.625,0,0,0,.479.24h.024a.575.575,0,0,0,.479-.287l.575-1.006A2.678,2.678,0,0,0,213.3,37.448Zm-.048,3.09-.24.431L210.4,39.46l.24-.431a1.517,1.517,0,0,1,2.06-.551,1.476,1.476,0,0,1,.551,2.06Z" transform="translate(-143.004 -28.201)" fill="#231f20"/>
      <path id="Trazado_896775" data-name="Trazado 896775" d="M210.983,49.53a3.544,3.544,0,0,0-1.605-2.108l-3.594-2.084a.6.6,0,1,0-.6,1.03h0l3.594,2.084a2.264,2.264,0,0,1,.815,3.09h0l-5.2,9.008a.6.6,0,0,0-.551,1.054l.479.287a.591.591,0,0,0,.815-.216l5.51-9.535A3.412,3.412,0,0,0,210.983,49.53Z" transform="translate(-138.888 -34.414)" fill="#231f20"/>
      <path id="Trazado_896776" data-name="Trazado 896776" d="M220.529,55.9a.6.6,0,0,0-.838.024.524.524,0,0,0-.072.12l-2.18,3.785a.591.591,0,0,0,.216.815l1.893,1.1a.591.591,0,0,0,.815-.216l.791-1.389A3.451,3.451,0,0,0,220.529,55.9Zm-.431,3.641-.5.862-.862-.5,1.437-2.491a2.244,2.244,0,0,1-.072,2.132Z" transform="translate(-149.391 -42.384)" fill="#231f20"/>
      <path id="Trazado_896777" data-name="Trazado 896777" d="M140.311,166.054a.592.592,0,0,0-.479-.335.444.444,0,0,1-.168-.048l-2.947-1.7a.289.289,0,0,1-.12-.12.605.605,0,0,0-.839-.12.646.646,0,0,0-.168.192l-1.653,2.875a.591.591,0,0,0,.216.815l3.641,2.108a.591.591,0,0,0,.815-.216l1.653-2.875A.552.552,0,0,0,140.311,166.054Zm-2.42,2.324-2.611-1.509,1.006-1.749,2.611,1.509Z" transform="translate(-85.895 -124.417)" fill="#231f20"/>
      <path id="Trazado_896778" data-name="Trazado 896778" d="M108.292,139.3H98.925a1.718,1.718,0,0,0-1.725,1.725v2.42a1.718,1.718,0,0,0,1.725,1.725h9.3a.658.658,0,0,0,.527-.287l1.174-2.036a.638.638,0,0,0,.072-.287v-1.485A1.7,1.7,0,0,0,108.292,139.3Zm.527,3.042-.934,1.605h-8.96a.532.532,0,0,1-.527-.527V141a.532.532,0,0,1,.527-.527h9.367a.532.532,0,0,1,.527.527Z" transform="translate(-58.021 -105.928)" fill="#231f20"/>
      <path id="Trazado_896779" data-name="Trazado 896779" d="M107.1,176.416a.681.681,0,0,0-.455-.216H99.025a1.718,1.718,0,0,0-1.725,1.725v2.42a1.718,1.718,0,0,0,1.725,1.725h7.163a.593.593,0,0,0,.6-.6.544.544,0,0,0-.144-.383l.6-4.168A.583.583,0,0,0,107.1,176.416Zm-1.629,4.432H99.025a.532.532,0,0,1-.527-.527V177.9a.532.532,0,0,1,.527-.527h6.947Z" transform="translate(-58.097 -133.988)" fill="#231f20"/>
    </g>
  </g>
</svg>
