<svg xmlns="http://www.w3.org/2000/svg" xmlns:xlink="http://www.w3.org/1999/xlink" width="108" height="108" viewBox="0 0 108 108">
  <defs>
    <filter id="Rectángulo_400898" x="0" y="0" width="108" height="108" filterUnits="userSpaceOnUse">
      <feOffset dy="3" input="SourceAlpha"/>
      <feGaussianBlur stdDeviation="3" result="blur"/>
      <feFlood flood-opacity="0.161"/>
      <feComposite operator="in" in2="blur"/>
      <feComposite in="SourceGraphic"/>
    </filter>
  </defs>
  <g id="Grupo_1108460" data-name="Grupo 1108460" transform="translate(-747.257 -1636.309)">
    <g id="Grupo_1108456" data-name="Grupo 1108456" transform="translate(-0.524 -2190.691)">
      <g id="Grupo_1098742" data-name="Grupo 1098742" transform="translate(-446.539 3444.258)">
        <g transform="matrix(1, 0, 0, 1, 1194.32, 382.74)" filter="url(#Rectángulo_400898)">
          <g id="Rectángulo_400898-2" data-name="Rectángulo 400898" transform="translate(9 6)" fill="#997b4d" stroke="#fff" stroke-width="3" opacity="0.859">
            <rect width="90" height="90" rx="45" stroke="none"/>
            <rect x="1.5" y="1.5" width="87" height="87" rx="43.5" fill="none"/>
          </g>
        </g>
        <g id="Rectángulo_400907" data-name="Rectángulo 400907" transform="translate(1203.32 388.742)" fill="none" stroke="#fff" stroke-width="3">
          <rect width="90" height="90" rx="45" stroke="none"/>
          <rect x="1.5" y="1.5" width="87" height="87" rx="43.5" fill="none"/>
        </g>
      </g>
    </g>
    <g id="Wish_list" transform="translate(734.812 1627.382)">
      <path id="Trazado_896803" data-name="Trazado 896803" d="M116.489,43.75V93.516H79.231a4.721,4.721,0,0,1-4.721-4.722V49.876L74.5,45.882V42.5c0-3.391-3.566-3.566-3.566-3.566h40.739a4.82,4.82,0,0,1,4.82,4.82Z" transform="translate(-29.989 -4.598)" fill="#def1f9"/>
      <rect id="Rectángulo_402953" data-name="Rectángulo 402953" width="4.908" height="4.908" transform="translate(51.399 47.656)" fill="#9dc0d1"/>
      <rect id="Rectángulo_402954" data-name="Rectángulo 402954" width="4.908" height="4.908" transform="translate(51.399 56.56)" fill="#9dc0d1"/>
      <rect id="Rectángulo_402955" data-name="Rectángulo 402955" width="4.908" height="4.908" transform="translate(51.399 65.463)" fill="#9dc0d1"/>
      <rect id="Rectángulo_402956" data-name="Rectángulo 402956" width="4.908" height="4.908" transform="translate(51.399 74.366)" fill="#9dc0d1"/>
      <rect id="Rectángulo_402957" data-name="Rectángulo 402957" width="15.464" height="1.511" transform="translate(63.01 48.321)" fill="#83afc6"/>
      <rect id="Rectángulo_402958" data-name="Rectángulo 402958" width="2.722" height="1.511" transform="translate(58.476 48.321)" fill="#83afc6"/>
      <rect id="Rectángulo_402959" data-name="Rectángulo 402959" width="15.464" height="1.511" transform="translate(63.01 57.225)" fill="#83afc6"/>
      <rect id="Rectángulo_402960" data-name="Rectángulo 402960" width="2.722" height="1.511" transform="translate(58.476 57.225)" fill="#83afc6"/>
      <rect id="Rectángulo_402961" data-name="Rectángulo 402961" width="15.464" height="1.511" transform="translate(63.01 66.128)" fill="#83afc6"/>
      <rect id="Rectángulo_402962" data-name="Rectángulo 402962" width="2.722" height="1.511" transform="translate(58.476 66.128)" fill="#83afc6"/>
      <rect id="Rectángulo_402963" data-name="Rectángulo 402963" width="15.464" height="1.511" transform="translate(63.01 74.956)" fill="#83afc6"/>
      <rect id="Rectángulo_402964" data-name="Rectángulo 402964" width="2.722" height="1.511" transform="translate(58.476 74.956)" fill="#83afc6"/>
      <path id="Trazado_896804" data-name="Trazado 896804" d="M388.678,286.985v9.33l-1.486-1.486-3.186,3.186L382.34,286.1Z" transform="translate(-302.177 -220.637)" fill="#9dc0d1"/>
      <rect id="Rectángulo_402965" data-name="Rectángulo 402965" width="13.946" height="2.964" transform="translate(67.189 39.77)" fill="#ffaf9f"/>
      <path id="Trazado_896805" data-name="Trazado 896805" d="M168.35,440.375h3.892a4.6,4.6,0,0,0,4.6-4.6H136.793a4.6,4.6,0,0,1-4.6,4.6Z" transform="translate(-83.533 -351.456)" fill="#9dc0d1"/>
      <path id="Trazado_896806" data-name="Trazado 896806" d="M49.751,46.626H42.62V43.238a3.566,3.566,0,0,1,3.566-3.568h0a3.564,3.564,0,0,1,3.566,3.568Z" transform="translate(-5.244 -5.244)" fill="#3e4757"/>
      <rect id="Rectángulo_402966" data-name="Rectángulo 402966" width="4.908" height="4.908" transform="translate(49.572 45.66)" fill="#3dc9c9"/>
      <rect id="Rectángulo_402967" data-name="Rectángulo 402967" width="4.908" height="4.908" transform="translate(49.572 54.563)" fill="#3dc9c9"/>
      <rect id="Rectángulo_402968" data-name="Rectángulo 402968" width="4.908" height="4.908" transform="translate(49.572 63.465)" fill="#3dc9c9"/>
      <rect id="Rectángulo_402969" data-name="Rectángulo 402969" width="4.908" height="4.908" transform="translate(49.572 72.369)" fill="#3dc9c9"/>
      <rect id="Rectángulo_402970" data-name="Rectángulo 402970" width="1.637" height="1.511" transform="translate(56.877 40.626)" fill="#f47a53"/>
      <rect id="Rectángulo_402971" data-name="Rectángulo 402971" width="1.637" height="1.511" transform="translate(63.175 40.626)" fill="#f47a53"/>
      <rect id="Rectángulo_402972" data-name="Rectángulo 402972" width="1.637" height="1.511" transform="translate(60.026 40.626)" fill="#f47a53"/>
      <path id="Trazado_896807" data-name="Trazado 896807" d="M413.036,306.985,401.12,305.32l1.665,11.916,3.186-3.186,3.979,3.979,3.845-3.845-3.979-3.979Z" transform="translate(-318.592 -237.436)" fill="#f47a53"/>
      <path id="Trazado_896808" data-name="Trazado 896808" d="M136.973,258.785l3.979,3.979,4.912-4.912-3.976-3.98,3.757-3.758-8.795-1.228V240.87h-1.511v7.809l-4.1-.573,2.015,14.41,2.091-2.091v4.242H102.1v.756a3.62,3.62,0,1,1-7.226,0v-9.571H93.36v9.566a5.387,5.387,0,0,0,4.889,5.338v.023c.088,0,.175,0,.262-.006H138.3a5.365,5.365,0,0,0,5.359-5.36v-.756H136.85v-5.747Zm1.329,10.481H101.975a5.36,5.36,0,0,0,1.581-3.093h38.52a3.854,3.854,0,0,1-3.773,3.093Zm-5.29-19.4,9.422,1.32-2.685,2.681,3.98,3.979-2.771,2.771-3.979-3.979-2.645,2.645Z" transform="translate(-49.594 -181.104)"/>
      <path id="Trazado_896809" data-name="Trazado 896809" d="M43.766,72.6h1.511V41.382h-.015V37.994a4.3,4.3,0,0,0-1.038-2.812H81.68a4.068,4.068,0,0,1,4.064,4.064v17.08h1.511V39.246A5.582,5.582,0,0,0,81.68,33.67H40.941a4.326,4.326,0,0,0-4.321,4.324v4.144h7.146Zm-.015-31.978h-5.62V37.994a2.81,2.81,0,1,1,5.62,0Z"/>
      <path id="Trazado_896810" data-name="Trazado 896810" d="M288.788,76.1H273.33v4.475h15.458Zm-1.511,2.964H274.841V77.611h12.435Z" transform="translate(-206.897 -37.086)"/>
      <path id="Trazado_896811" data-name="Trazado 896811" d="M139.863,193.56H133.44v6.423h6.423Zm-1.511,4.912h-3.4v-3.4h3.4Z" transform="translate(-84.626 -139.752)"/>
      <path id="Trazado_896812" data-name="Trazado 896812" d="M139.863,122.87H133.44v6.423h6.423Zm-1.511,4.912h-3.4v-3.4h3.4Z" transform="translate(-84.626 -77.965)"/>
      <path id="Trazado_896813" data-name="Trazado 896813" d="M139.863,264.24H133.44v6.423h6.423Zm-1.511,4.912h-3.4v-3.4h3.4Z" transform="translate(-84.626 -201.53)"/>
      <path id="Trazado_896814" data-name="Trazado 896814" d="M133.46,340.733h6.423V334.31H133.46Zm1.511-4.912h3.4v3.4h-3.4Z" transform="translate(-84.643 -262.775)"/>
      <rect id="Rectángulo_402973" data-name="Rectángulo 402973" width="15.464" height="1.511" transform="translate(63.01 49.813)"/>
      <rect id="Rectángulo_402974" data-name="Rectángulo 402974" width="2.722" height="1.511" transform="translate(58.476 49.813)"/>
      <rect id="Rectángulo_402975" data-name="Rectángulo 402975" width="15.464" height="1.511" transform="translate(63.01 58.716)"/>
      <rect id="Rectángulo_402976" data-name="Rectángulo 402976" width="2.722" height="1.511" transform="translate(58.476 58.716)"/>
      <rect id="Rectángulo_402977" data-name="Rectángulo 402977" width="15.464" height="1.511" transform="translate(63.01 67.619)"/>
      <rect id="Rectángulo_402978" data-name="Rectángulo 402978" width="2.722" height="1.511" transform="translate(58.476 67.619)"/>
      <rect id="Rectángulo_402979" data-name="Rectángulo 402979" width="15.464" height="1.511" transform="translate(63.01 76.447)"/>
      <rect id="Rectángulo_402980" data-name="Rectángulo 402980" width="2.722" height="1.511" transform="translate(58.476 76.447)"/>
    </g>
  </g>
</svg>
