<svg xmlns="http://www.w3.org/2000/svg" width="67.762" height="70.309" viewBox="0 0 67.762 70.309">
  <g id="Grupo_1107766" data-name="Grupo 1107766" transform="translate(-177.744 -6595)">
    <path id="Trazado_113538" data-name="Trazado 113538" d="M58.458,8.925c-2.665,0-3.981-2.148-5.038-3.876-1.071-1.747-1.8-2.819-3.16-2.819S48.171,3.3,47.1,5.049c-1.057,1.727-2.372,3.876-5.037,3.876s-3.981-2.148-5.038-3.876C35.959,3.3,35.234,2.231,33.871,2.231S31.784,3.3,30.714,5.049c-1.057,1.727-2.372,3.876-5.037,3.876S21.7,6.777,20.642,5.049C19.573,3.3,18.849,2.231,17.487,2.231S15.4,3.3,14.332,5.049C13.275,6.777,11.96,8.925,9.3,8.925S5.318,6.777,4.261,5.049C3.192,3.3,2.468,2.231,1.106,2.231A1.116,1.116,0,0,1,1.106,0C3.769,0,5.084,2.15,6.141,3.877,7.209,5.623,7.934,6.694,9.3,6.694s2.086-1.071,3.155-2.817C13.509,2.15,14.824,0,17.487,0s3.978,2.15,5.034,3.876c1.069,1.747,1.793,2.819,3.157,2.819s2.087-1.071,3.157-2.819C29.891,2.15,31.207,0,33.871,0s3.98,2.15,5.038,3.876c1.068,1.747,1.793,2.819,3.158,2.819s2.087-1.071,3.157-2.819C46.279,2.15,47.6,0,50.26,0S54.242,2.15,55.3,3.876c1.071,1.747,1.8,2.819,3.159,2.819s2.09-1.071,3.16-2.819C62.675,2.15,63.992,0,66.657,0a1.11,1.11,0,0,1,1.1,1.115,1.109,1.109,0,0,1-1.1,1.115c-1.365,0-2.09,1.071-3.16,2.819C62.44,6.777,61.124,8.925,58.458,8.925Z" transform="translate(245.506 6635.016) rotate(180)" fill="#9ec9ff"/>
    <path id="Trazado_126936" data-name="Trazado 126936" d="M58.458,8.925c-2.665,0-3.981-2.148-5.038-3.876-1.071-1.747-1.8-2.819-3.16-2.819S48.171,3.3,47.1,5.049c-1.057,1.727-2.372,3.876-5.037,3.876s-3.981-2.148-5.038-3.876C35.959,3.3,35.234,2.231,33.871,2.231S31.784,3.3,30.714,5.049c-1.057,1.727-2.372,3.876-5.037,3.876S21.7,6.777,20.642,5.049C19.573,3.3,18.849,2.231,17.487,2.231S15.4,3.3,14.332,5.049C13.275,6.777,11.96,8.925,9.3,8.925S5.318,6.777,4.261,5.049C3.192,3.3,2.468,2.231,1.106,2.231A1.116,1.116,0,0,1,1.106,0C3.769,0,5.084,2.15,6.141,3.877,7.209,5.623,7.934,6.694,9.3,6.694s2.086-1.071,3.155-2.817C13.509,2.15,14.824,0,17.487,0s3.978,2.15,5.034,3.876c1.069,1.747,1.793,2.819,3.157,2.819s2.087-1.071,3.157-2.819C29.891,2.15,31.207,0,33.871,0s3.98,2.15,5.038,3.876c1.068,1.747,1.793,2.819,3.158,2.819s2.087-1.071,3.157-2.819C46.279,2.15,47.6,0,50.26,0S54.242,2.15,55.3,3.876c1.071,1.747,1.8,2.819,3.159,2.819s2.09-1.071,3.16-2.819C62.675,2.15,63.992,0,66.657,0a1.11,1.11,0,0,1,1.1,1.115,1.109,1.109,0,0,1-1.1,1.115c-1.365,0-2.09,1.071-3.16,2.819C62.44,6.777,61.124,8.925,58.458,8.925Z" transform="translate(245.506 6665.31) rotate(180)" fill="#9ec9ff"/>
    <path id="Trazado_126924" data-name="Trazado 126924" d="M58.458,8.925c-2.665,0-3.981-2.148-5.038-3.876-1.071-1.747-1.8-2.819-3.16-2.819S48.171,3.3,47.1,5.049c-1.057,1.727-2.372,3.876-5.037,3.876s-3.981-2.148-5.038-3.876C35.959,3.3,35.234,2.231,33.871,2.231S31.784,3.3,30.714,5.049c-1.057,1.727-2.372,3.876-5.037,3.876S21.7,6.777,20.642,5.049C19.573,3.3,18.849,2.231,17.487,2.231S15.4,3.3,14.332,5.049C13.275,6.777,11.96,8.925,9.3,8.925S5.318,6.777,4.261,5.049C3.192,3.3,2.468,2.231,1.106,2.231A1.116,1.116,0,0,1,1.106,0C3.769,0,5.084,2.15,6.141,3.877,7.209,5.623,7.934,6.694,9.3,6.694s2.086-1.071,3.155-2.817C13.509,2.15,14.824,0,17.487,0s3.978,2.15,5.034,3.876c1.069,1.747,1.793,2.819,3.157,2.819s2.087-1.071,3.157-2.819C29.891,2.15,31.207,0,33.871,0s3.98,2.15,5.038,3.876c1.068,1.747,1.793,2.819,3.158,2.819s2.087-1.071,3.157-2.819C46.279,2.15,47.6,0,50.26,0S54.242,2.15,55.3,3.876c1.071,1.747,1.8,2.819,3.159,2.819s2.09-1.071,3.16-2.819C62.675,2.15,63.992,0,66.657,0a1.11,1.11,0,0,1,1.1,1.115,1.109,1.109,0,0,1-1.1,1.115c-1.365,0-2.09,1.071-3.16,2.819C62.44,6.777,61.124,8.925,58.458,8.925Z" transform="translate(245.506 6614.289) rotate(180)" fill="#9ec9ff"/>
    <path id="Trazado_126938" data-name="Trazado 126938" d="M58.458,8.925c-2.665,0-3.981-2.148-5.038-3.876-1.071-1.747-1.8-2.819-3.16-2.819S48.171,3.3,47.1,5.049c-1.057,1.727-2.372,3.876-5.037,3.876s-3.981-2.148-5.038-3.876C35.959,3.3,35.234,2.231,33.871,2.231S31.784,3.3,30.714,5.049c-1.057,1.727-2.372,3.876-5.037,3.876S21.7,6.777,20.642,5.049C19.573,3.3,18.849,2.231,17.487,2.231S15.4,3.3,14.332,5.049C13.275,6.777,11.96,8.925,9.3,8.925S5.318,6.777,4.261,5.049C3.192,3.3,2.468,2.231,1.106,2.231A1.116,1.116,0,0,1,1.106,0C3.769,0,5.084,2.15,6.141,3.877,7.209,5.623,7.934,6.694,9.3,6.694s2.086-1.071,3.155-2.817C13.509,2.15,14.824,0,17.487,0s3.978,2.15,5.034,3.876c1.069,1.747,1.793,2.819,3.157,2.819s2.087-1.071,3.157-2.819C29.891,2.15,31.207,0,33.871,0s3.98,2.15,5.038,3.876c1.068,1.747,1.793,2.819,3.158,2.819s2.087-1.071,3.157-2.819C46.279,2.15,47.6,0,50.26,0S54.242,2.15,55.3,3.876c1.071,1.747,1.8,2.819,3.159,2.819s2.09-1.071,3.16-2.819C62.675,2.15,63.992,0,66.657,0a1.11,1.11,0,0,1,1.1,1.115,1.109,1.109,0,0,1-1.1,1.115c-1.365,0-2.09,1.071-3.16,2.819C62.44,6.777,61.124,8.925,58.458,8.925Z" transform="translate(245.506 6644.583) rotate(180)" fill="#9ec9ff"/>
    <path id="Trazado_113539" data-name="Trazado 113539" d="M58.458,8.925c-2.665,0-3.981-2.148-5.038-3.876-1.071-1.747-1.8-2.819-3.16-2.819S48.171,3.3,47.1,5.049c-1.057,1.727-2.372,3.876-5.037,3.876s-3.981-2.148-5.038-3.876C35.959,3.3,35.234,2.231,33.871,2.231S31.784,3.3,30.714,5.049c-1.057,1.727-2.372,3.876-5.037,3.876S21.7,6.777,20.642,5.049C19.573,3.3,18.849,2.231,17.487,2.231S15.4,3.3,14.332,5.049C13.275,6.777,11.96,8.925,9.3,8.925S5.318,6.777,4.261,5.049C3.192,3.3,2.468,2.231,1.106,2.231A1.116,1.116,0,0,1,1.106,0C3.769,0,5.084,2.15,6.141,3.877,7.209,5.623,7.934,6.694,9.3,6.694s2.086-1.071,3.155-2.817C13.509,2.15,14.824,0,17.487,0s3.978,2.15,5.034,3.876c1.069,1.747,1.793,2.819,3.157,2.819s2.087-1.071,3.157-2.819C29.891,2.15,31.207,0,33.871,0s3.98,2.15,5.038,3.876c1.068,1.747,1.793,2.819,3.158,2.819s2.087-1.071,3.157-2.819C46.279,2.15,47.6,0,50.26,0S54.242,2.15,55.3,3.876c1.071,1.747,1.8,2.819,3.159,2.819s2.09-1.071,3.16-2.819C62.675,2.15,63.992,0,66.657,0a1.11,1.11,0,0,1,1.1,1.115,1.109,1.109,0,0,1-1.1,1.115c-1.365,0-2.09,1.071-3.16,2.819C62.44,6.777,61.124,8.925,58.458,8.925Z" transform="translate(245.506 6624.652) rotate(180)" fill="#9ec9ff"/>
    <path id="Trazado_126937" data-name="Trazado 126937" d="M58.458,8.925c-2.665,0-3.981-2.148-5.038-3.876-1.071-1.747-1.8-2.819-3.16-2.819S48.171,3.3,47.1,5.049c-1.057,1.727-2.372,3.876-5.037,3.876s-3.981-2.148-5.038-3.876C35.959,3.3,35.234,2.231,33.871,2.231S31.784,3.3,30.714,5.049c-1.057,1.727-2.372,3.876-5.037,3.876S21.7,6.777,20.642,5.049C19.573,3.3,18.849,2.231,17.487,2.231S15.4,3.3,14.332,5.049C13.275,6.777,11.96,8.925,9.3,8.925S5.318,6.777,4.261,5.049C3.192,3.3,2.468,2.231,1.106,2.231A1.116,1.116,0,0,1,1.106,0C3.769,0,5.084,2.15,6.141,3.877,7.209,5.623,7.934,6.694,9.3,6.694s2.086-1.071,3.155-2.817C13.509,2.15,14.824,0,17.487,0s3.978,2.15,5.034,3.876c1.069,1.747,1.793,2.819,3.157,2.819s2.087-1.071,3.157-2.819C29.891,2.15,31.207,0,33.871,0s3.98,2.15,5.038,3.876c1.068,1.747,1.793,2.819,3.158,2.819s2.087-1.071,3.157-2.819C46.279,2.15,47.6,0,50.26,0S54.242,2.15,55.3,3.876c1.071,1.747,1.8,2.819,3.159,2.819s2.09-1.071,3.16-2.819C62.675,2.15,63.992,0,66.657,0a1.11,1.11,0,0,1,1.1,1.115,1.109,1.109,0,0,1-1.1,1.115c-1.365,0-2.09,1.071-3.16,2.819C62.44,6.777,61.124,8.925,58.458,8.925Z" transform="translate(245.506 6654.946) rotate(180)" fill="#9ec9ff"/>
    <path id="Trazado_126923" data-name="Trazado 126923" d="M58.458,8.925c-2.665,0-3.981-2.148-5.038-3.876-1.071-1.747-1.8-2.819-3.16-2.819S48.171,3.3,47.1,5.049c-1.057,1.727-2.372,3.876-5.037,3.876s-3.981-2.148-5.038-3.876C35.959,3.3,35.234,2.231,33.871,2.231S31.784,3.3,30.714,5.049c-1.057,1.727-2.372,3.876-5.037,3.876S21.7,6.777,20.642,5.049C19.573,3.3,18.849,2.231,17.487,2.231S15.4,3.3,14.332,5.049C13.275,6.777,11.96,8.925,9.3,8.925S5.318,6.777,4.261,5.049C3.192,3.3,2.468,2.231,1.106,2.231A1.116,1.116,0,0,1,1.106,0C3.769,0,5.084,2.15,6.141,3.877,7.209,5.623,7.934,6.694,9.3,6.694s2.086-1.071,3.155-2.817C13.509,2.15,14.824,0,17.487,0s3.978,2.15,5.034,3.876c1.069,1.747,1.793,2.819,3.157,2.819s2.087-1.071,3.157-2.819C29.891,2.15,31.207,0,33.871,0s3.98,2.15,5.038,3.876c1.068,1.747,1.793,2.819,3.158,2.819s2.087-1.071,3.157-2.819C46.279,2.15,47.6,0,50.26,0S54.242,2.15,55.3,3.876c1.071,1.747,1.8,2.819,3.159,2.819s2.09-1.071,3.16-2.819C62.675,2.15,63.992,0,66.657,0a1.11,1.11,0,0,1,1.1,1.115,1.109,1.109,0,0,1-1.1,1.115c-1.365,0-2.09,1.071-3.16,2.819C62.44,6.777,61.124,8.925,58.458,8.925Z" transform="translate(245.506 6603.925) rotate(180)" fill="#9ec9ff"/>
  </g>
</svg>
